<?xml version="1.0" encoding="UTF-8" standalone="no"?>
<!-- Created with Inkscape (http://www.inkscape.org/) -->

<svg
   xmlns:dc="http://purl.org/dc/elements/1.1/"
   xmlns:cc="http://creativecommons.org/ns#"
   xmlns:rdf="http://www.w3.org/1999/02/22-rdf-syntax-ns#"
   xmlns:svg="http://www.w3.org/2000/svg"
   xmlns="http://www.w3.org/2000/svg"
   xmlns:sodipodi="http://sodipodi.sourceforge.net/DTD/sodipodi-0.dtd"
   xmlns:inkscape="http://www.inkscape.org/namespaces/inkscape"
   version="1.1"
   id="svg2"
   xml:space="preserve"
   width="450.39999"
   height="179.7227"
   viewBox="0 0 450.4 179.72269"
   sodipodi:docname="fig_1_ij.svg"
   inkscape:version="0.92.4 (unknown)"><metadata
     id="metadata8"><rdf:RDF><cc:Work
         rdf:about=""><dc:format>image/svg+xml</dc:format><dc:type
           rdf:resource="http://purl.org/dc/dcmitype/StillImage" /><dc:title /></cc:Work></rdf:RDF></metadata><defs
     id="defs6"><marker
   inkscape:stockid="Arrow1Lstart"
   orient="auto"
   refY="0.0"
   refX="0.0"
   id="Arrow1Lstart"
   style="overflow:visible"
   inkscape:isstock="true"><path
     id="path10032"
     d="M 0.0,0.0 L 5.0,-5.0 L -12.5,0.0 L 5.0,5.0 L 0.0,0.0 z "
     style="fill-rule:evenodd;stroke:#000000;stroke-width:1pt;stroke-opacity:1;fill:#000000;fill-opacity:1"
     transform="scale(0.8) translate(12.5,0)" /></marker><clipPath
   clipPathUnits="userSpaceOnUse"
   id="clipPath1254"><path
     d="m 299.46,390.32 h 6.6 v 14.64 h -6.6 z"
     id="path1252"
     inkscape:connector-curvature="0" /></clipPath><clipPath
   clipPathUnits="userSpaceOnUse"
   id="clipPath1310"><path
     d="m 319.92,314.18 h 15.18 v 14.64 h -15.18 z"
     id="path1308"
     inkscape:connector-curvature="0" /></clipPath><clipPath
   clipPathUnits="userSpaceOnUse"
   id="clipPath1326"><path
     d="m 310.2,314.18 h 6.6 v 14.64 h -6.6 z"
     id="path1324"
     inkscape:connector-curvature="0" /></clipPath><clipPath
   clipPathUnits="userSpaceOnUse"
   id="clipPath1338"><path
     d="m 247.74,314.18 h 12.48 v 14.64 h -12.48 z"
     id="path1336"
     inkscape:connector-curvature="0" /></clipPath><clipPath
   clipPathUnits="userSpaceOnUse"
   id="clipPath1390"><path
     d="m 319.92,244.82 h 15.18 v 14.64 h -15.18 z"
     id="path1388"
     inkscape:connector-curvature="0" /></clipPath><clipPath
   clipPathUnits="userSpaceOnUse"
   id="clipPath1406"><path
     d="m 310.2,244.82 h 6.6 v 14.64 h -6.6 z"
     id="path1404"
     inkscape:connector-curvature="0" /></clipPath><clipPath
   clipPathUnits="userSpaceOnUse"
   id="clipPath1418"><path
     d="m 247.74,244.82 h 12.48 v 14.64 h -12.48 z"
     id="path1416"
     inkscape:connector-curvature="0" /></clipPath><clipPath
   clipPathUnits="userSpaceOnUse"
   id="clipPath1470"><path
     d="m 319.86,175.46 h 8.58 v 14.64 h -8.58 z"
     id="path1468"
     inkscape:connector-curvature="0" /></clipPath><clipPath
   clipPathUnits="userSpaceOnUse"
   id="clipPath1482"><path
     d="m 310.32,175.46 h 6.6 v 14.64 h -6.6 z"
     id="path1480"
     inkscape:connector-curvature="0" /></clipPath><clipPath
   clipPathUnits="userSpaceOnUse"
   id="clipPath1494"><path
     d="m 247.8,175.46 h 12.48 V 190.1 H 247.8 Z"
     id="path1492"
     inkscape:connector-curvature="0" /></clipPath><clipPath
   clipPathUnits="userSpaceOnUse"
   id="clipPath1546"><path
     d="m 319.86,106.1 h 8.58 v 14.64 h -8.58 z"
     id="path1544"
     inkscape:connector-curvature="0" /></clipPath><clipPath
   clipPathUnits="userSpaceOnUse"
   id="clipPath1558"><path
     d="m 310.32,106.1 h 6.6 v 14.64 h -6.6 z"
     id="path1556"
     inkscape:connector-curvature="0" /></clipPath><clipPath
   clipPathUnits="userSpaceOnUse"
   id="clipPath1570"><path
     d="m 247.8,106.1 h 12.48 v 14.64 H 247.8 Z"
     id="path1568"
     inkscape:connector-curvature="0" /></clipPath>





</defs><sodipodi:namedview
     pagecolor="#ffffff"
     bordercolor="#666666"
     borderopacity="1"
     objecttolerance="10"
     gridtolerance="10"
     guidetolerance="10"
     inkscape:pageopacity="0"
     inkscape:pageshadow="2"
     inkscape:window-width="1299"
     inkscape:window-height="713"
     id="namedview4"
     showgrid="false"
     fit-margin-top="0"
     fit-margin-left="0"
     fit-margin-right="0"
     fit-margin-bottom="0"
     inkscape:zoom="1.1891486"
     inkscape:cx="276.35575"
     inkscape:cy="111.19275"
     inkscape:window-x="67"
     inkscape:window-y="27"
     inkscape:window-maximized="1"
     inkscape:current-layer="g10" /><g
     id="g10"
     inkscape:groupmode="layer"
     inkscape:label="TP4 Matemática-2017"
     transform="matrix(1.3333333,0,0,-1.3333333,-66.49493,1037.706)"><g
   aria-label="i)"
   transform="scale(1,-1)"
   style="font-style:normal;font-weight:normal;font-size:12.97472286px;line-height:1.25;font-family:sans-serif;letter-spacing:0px;word-spacing:0px;fill:#000000;fill-opacity:1;stroke:none;stroke-width:0.32436809"
   id="text8456"><path
     d="m 53.211767,-772.96768 h 1.165698 v 7.09555 h -1.165698 z m 0,-2.7622 h 1.165698 v 1.47613 h -1.165698 z"
     style="stroke-width:0.32436809"
     id="path1241" /><path
     d="m 56.626502,-775.71721 h 1.01365 q 0.950297,1.49513 1.41911,2.92692 0.475149,1.43178 0.475149,2.84455 0,1.41911 -0.475149,2.85723 -0.468813,1.43811 -1.41911,2.92691 h -1.01365 q 0.842596,-1.45078 1.254392,-2.88256 0.41813,-1.43812 0.41813,-2.90158 0,-1.46346 -0.41813,-2.8889 -0.411796,-1.42545 -1.254392,-2.88257 z"
     style="stroke-width:0.32436809"
     id="path1243" /></g>
<g
   aria-label="j)"
   transform="scale(1,-1)"
   style="font-style:normal;font-weight:normal;font-size:12.97472286px;line-height:1.25;font-family:sans-serif;letter-spacing:0px;word-spacing:0px;fill:#000000;fill-opacity:1;stroke:none;stroke-width:0.32436809"
   id="text8460"><path
     d="m 228.71178,-772.96768 h 1.16569 v 7.22225 q 0,1.35576 -0.51949,1.96395 -0.51316,0.60819 -1.65986,0.60819 h -0.44347 v -0.98831 h 0.31043 q 0.66521,0 0.90595,-0.31043 0.24075,-0.30409 0.24075,-1.2734 z m 0,-2.7622 h 1.16569 v 1.47613 h -1.16569 z"
     style="stroke-width:0.32436809"
     id="path1236" /><path
     d="m 232.12651,-775.71721 h 1.01365 q 0.9503,1.49513 1.41911,2.92692 0.47515,1.43178 0.47515,2.84455 0,1.41911 -0.47515,2.85723 -0.46881,1.43811 -1.41911,2.92691 h -1.01365 q 0.8426,-1.45078 1.25439,-2.88256 0.41813,-1.43812 0.41813,-2.90158 0,-1.46346 -0.41813,-2.8889 -0.41179,-1.42545 -1.25439,-2.88257 z"
     style="stroke-width:0.32436809"
     id="path1238" /></g>

<path
   inkscape:connector-curvature="0"
   id="path18-3"
   style="fill:none;stroke:#000000;stroke-width:0.99975002;stroke-linecap:butt;stroke-linejoin:miter;stroke-miterlimit:4;stroke-dasharray:none;stroke-opacity:1"
   d="m 141.78578,773.47778 -2.16,3.12 -2.16,-3.12" /><path
   d="m 139.62578,775.99778 v -131.34"
   style="fill:none;stroke:#000000;stroke-width:0.99975002;stroke-linecap:butt;stroke-linejoin:miter;stroke-miterlimit:4;stroke-dasharray:none;stroke-opacity:1"
   id="path22-6"
   inkscape:connector-curvature="0" /><path
   inkscape:connector-curvature="0"
   id="path26-7"
   style="fill:none;stroke:#000000;stroke-width:0.99975002;stroke-linecap:butt;stroke-linejoin:miter;stroke-miterlimit:4;stroke-dasharray:none;stroke-opacity:1"
   d="m 45.00578,684.67778 h 160.14" /><path
   d="m 202.38578,686.71778 3.42,-2.04 -3.42,-1.98"
   style="fill:none;stroke:#000000;stroke-width:0.99975002;stroke-linecap:butt;stroke-linejoin:miter;stroke-miterlimit:4;stroke-dasharray:none;stroke-opacity:1"
   id="path30-5"
   inkscape:connector-curvature="0" /><path
   inkscape:connector-curvature="0"
   id="path34-3"
   style="fill:none;stroke:#000000;stroke-width:0.99975002;stroke-linecap:butt;stroke-linejoin:miter;stroke-miterlimit:4;stroke-dasharray:none;stroke-opacity:1"
   d="m 66.650428,740.77778 111.779992,-68.76" /><path
   d="m 178.21275,672.13778 v 0.06 h 0.06 l 0.06,0.06 v 0.06 l 0.06,0.06 h 0.06 l 0.06,0.06 h 0.06 l 0.06,0.06 h 0.12 l 0.06,0.06 h 0.12 l 0.06,0.06 h 0.48 l 0.06,-0.06 h 0.12 l 0.06,-0.06 h 0.12 l 0.06,-0.06 h 0.12 v -0.06 l 0.06,-0.06 h 0.06 l 0.06,-0.06 v -0.06 l 0.06,-0.06 h 0.06 v -0.06 l 0.06,-0.06 v -0.12 l 0.06,-0.06 v -0.12 l 0.06,-0.06 v -0.42 l -0.06,-0.06 v -0.12 l -0.06,-0.06 v -0.06 l -0.12,-0.12 v -0.06 h -0.06 l -0.06,-0.06 v -0.06 l -0.06,-0.06 h -0.06 l -0.06,-0.06 v -0.06 h -0.06 l -0.06,-0.06 h -0.12 l -0.06,-0.06 h -0.12 l -0.06,-0.06 h -0.48 l -0.06,0.06 h -0.12 l -0.06,0.06 h -0.12 l -0.12,0.12 h -0.06 v 0.06 l -0.06,0.06 h -0.06 l -0.06,0.06 v 0.06 l -0.06,0.06 h -0.06 v 0.06 l -0.06,0.06 v 0.06 l -0.06,0.06 v 0.12 l -0.12,0.06 v 0.06 c 0,0.1 0,0.2 0,0.3 v 0.06 l 0.12,0.06 v 0.12 l 0.06,0.06 v 0.12 l 0.12,0.12"
   style="fill:none;stroke:#000000;stroke-width:0.99975002;stroke-linecap:butt;stroke-linejoin:miter;stroke-miterlimit:4;stroke-dasharray:none;stroke-opacity:1"
   id="path38-5"
   inkscape:connector-curvature="0" /><path
   inkscape:connector-curvature="0"
   id="path42-6"
   style="fill:none;stroke:#000000;stroke-width:0.99975002;stroke-linecap:butt;stroke-linejoin:miter;stroke-miterlimit:4;stroke-dasharray:none;stroke-opacity:1"
   d="m 180.59043,672.27313 18.78,29.28" /><path
   inkscape:connector-curvature="0"
   id="path46-2"
   style="fill:#000000;fill-opacity:1;fill-rule:evenodd;stroke:none"
   d="m 177.30577,676.93778 0.84,0.06 0.12,-0.24 0.12,-0.3 c 0.608,-0.949 1.727,-0.823 2.52,-0.12 l 0.12,0.24 0.06,0.3 v 0.48 l -0.06,0.3 -0.12,0.18 -0.18,0.18 -0.24,0.18 -0.24,0.12 -0.24,0.06 h -0.42 l -0.18,-0.06 h -0.12 l -0.18,-0.06 0.06,0.84 h 0.12 c 0.941,0.048 1.611,0.209 1.38,1.32 l -0.12,0.18 -0.12,0.12 c -0.817,0.421 -1.423,0.324 -2.04,-0.36 l -0.12,-0.24 -0.06,-0.24 -0.84,0.12 0.12,0.42 0.36,0.6 0.24,0.3 0.3,0.12 0.36,0.18 0.36,0.06 0.42,0.06 h 0.3 l 0.24,-0.06 0.3,-0.06 0.24,-0.12 0.24,-0.06 0.36,-0.36 c 0.502,-0.553 0.536,-1.649 -0.18,-2.04 l -0.18,-0.18 -0.24,-0.12 0.3,-0.06 0.3,-0.12 c 0.953,-0.474 0.97,-1.783 0.42,-2.58 l -0.3,-0.36 -0.36,-0.24 -0.42,-0.18 -0.48,-0.12 -0.48,-0.06 -0.84,0.12 -0.42,0.18 -0.36,0.18 -0.24,0.3 -0.18,0.36 -0.18,0.36 -0.06,0.42" /><path
   inkscape:connector-curvature="0"
   id="path50"
   style="fill:none;stroke:#000000;stroke-width:0.375;stroke-linecap:butt;stroke-linejoin:miter;stroke-miterlimit:4;stroke-dasharray:none;stroke-opacity:1"
   d="m 142.98578,672.07778 h -6.3" /><path
   d="m 142.68578,708.61778 h -6.3"
   style="fill:none;stroke:#000000;stroke-width:0.375;stroke-linecap:butt;stroke-linejoin:miter;stroke-miterlimit:4;stroke-dasharray:none;stroke-opacity:1"
   id="path54"
   inkscape:connector-curvature="0" /><path
   inkscape:connector-curvature="0"
   id="path58"
   style="fill:none;stroke:#000000;stroke-width:0.375;stroke-linecap:butt;stroke-linejoin:miter;stroke-miterlimit:4;stroke-dasharray:none;stroke-opacity:1"
   d="m 142.92578,720.79778 h -6.3" /><path
   d="m 153.18578,687.49778 v -5.88"
   style="fill:none;stroke:#000000;stroke-width:0.375;stroke-linecap:butt;stroke-linejoin:miter;stroke-miterlimit:4;stroke-dasharray:none;stroke-opacity:1"
   id="path62"
   inkscape:connector-curvature="0" /><path
   inkscape:connector-curvature="0"
   id="path66"
   style="fill:none;stroke:#000000;stroke-width:0.375;stroke-linecap:butt;stroke-linejoin:miter;stroke-miterlimit:4;stroke-dasharray:none;stroke-opacity:1"
   d="m 165.90578,687.19778 v -5.82" /><path
   d="m 179.16578,687.49778 v -5.88"
   style="fill:none;stroke:#000000;stroke-width:0.375;stroke-linecap:butt;stroke-linejoin:miter;stroke-miterlimit:4;stroke-dasharray:none;stroke-opacity:1"
   id="path70"
   inkscape:connector-curvature="0" /><path
   inkscape:connector-curvature="0"
   id="path74"
   style="fill:none;stroke:#000000;stroke-width:0.375;stroke-linecap:butt;stroke-linejoin:miter;stroke-miterlimit:4;stroke-dasharray:none;stroke-opacity:1"
   d="m 142.68578,695.77778 h -6.3" /><path
   inkscape:connector-curvature="0"
   id="path78"
   style="fill:#000000;fill-opacity:1;fill-rule:evenodd;stroke:none"
   d="m 133.20578,691.99777 h -0.84 v 5.22 l -0.18,-0.18 c -0.849,-0.649 -0.54,-0.348 -1.38,-0.78 l -0.24,-0.06 v 0.78 l 0.36,0.18 c 0.543,0.204 1.268,0.809 1.62,1.26 l 0.12,0.24 h 0.54 v -6.66" /><path
   inkscape:connector-curvature="0"
   id="path82"
   style="fill:#000000;fill-opacity:1;fill-rule:evenodd;stroke:none"
   d="m 97.025784,744.91777 0.84,-0.12 -0.06,-0.42 -0.18,-0.36 -0.18,-0.3 c -0.585,-0.544 -1.437,-0.804 -2.22,-0.6 l -0.54,0.12 -0.42,0.12 c -0.489,0.364 -0.93,0.915 -0.9,1.56 l -0.06,0.3 v 0.66 l 0.06,0.42 c 0.053,0.627 0.514,1.118 1.02,1.44 l 0.3,0.12 0.36,0.12 0.3,0.06 h 0.3 l 0.42,-0.06 0.36,-0.06 0.6,-0.24 0.24,-0.24 0.24,-0.3 0.12,-0.3 0.12,-0.36 -0.9,-0.12 -0.06,0.24 -0.12,0.18 -0.24,0.24 -0.54,0.18 h -0.54 c -0.505,-0.351 -0.622,0.193 -1.08,-0.9 l -0.12,-0.36 v -0.84 l 0.12,-0.3 0.12,-0.36 0.18,-0.24 0.18,-0.18 0.36,-0.06 0.24,-0.12 h 0.6 l 0.18,0.06 0.24,0.12 0.18,0.06 0.18,0.18 0.12,0.18 0.12,0.24 z m 6.299996,2.1 h -4.799996 v 0.77997 h 4.799996 z m 0,-2.04 h -4.799996 v 0.77997 h 4.799996 z m 1.08,-0.06 0.84,0.12 0.12,-0.24 0.12,-0.3 0.12,-0.24 0.12,-0.18 0.18,-0.06 0.24,-0.12 0.24,-0.06 h 0.6 l 0.3,0.12 0.24,0.06 0.24,0.18 0.18,0.18 0.12,0.24 0.06,0.24 c 0.165,1.118 -0.66,1.708 -1.68,1.44 h -0.3 l 0.06,0.78 h 0.12 c 0.874,-0.015 1.663,0.39 1.38,1.38 l -0.24,0.24 c -0.614,0.535 -1.544,0.347 -1.98,-0.3 l -0.12,-0.24 -0.06,-0.3 -0.84,0.18 0.12,0.42 0.18,0.3 c 0.557,1.106 2.141,1.29 3.12,0.66 l 0.18,-0.12 0.18,-0.18 c 0.531,-0.561 0.479,-1.805 -0.18,-2.04 l -0.18,-0.18 -0.24,-0.12 0.3,-0.06 c 3.487,-1.963 -1.987,-5.869 -3.48,-2.16 l -0.06,0.36" /><g
   aria-label="  "
   transform="scale(1,-1)"
   style="font-variant:normal;font-weight:normal;font-stretch:normal;font-size:10.99989986px;font-family:Calibri;-inkscape-font-specification:Calibri;writing-mode:lr-tb;fill:#000000;fill-opacity:1;fill-rule:nonzero;stroke:none;stroke-width:0.99999994"
   id="text86" /><g
   aria-label="y"
   transform="scale(1,-1)"
   style="font-style:normal;font-weight:normal;font-size:9.41431713px;line-height:1.25;font-family:sans-serif;letter-spacing:0px;word-spacing:0px;fill:#000000;fill-opacity:1;stroke:none;stroke-width:0.23535794"
   id="text4279-3"><path
     d="m 133.04431,-771.58754 q -0.35855,0.91936 -0.69872,1.19977 -0.34016,0.28041 -0.91017,0.28041 h -0.67573 v -0.70791 h 0.49645 q 0.34936,0 0.54243,-0.16549 0.19307,-0.16549 0.42751,-0.78146 l 0.15169,-0.38614 -2.08236,-5.06571 h 0.89638 l 1.60889,4.02683 1.60889,-4.02683 h 0.89639 z"
     style="stroke-width:0.23535794"
     id="path1232" /></g><g
   aria-label="x"
   transform="scale(1,-1)"
   style="font-style:normal;font-weight:normal;font-size:9.41431713px;line-height:1.25;font-family:sans-serif;letter-spacing:0px;word-spacing:0px;fill:#000000;fill-opacity:1;stroke:none;stroke-width:0.23535794"
   id="text4283-6"><path
     d="m 206.6794,-680.32613 -1.86172,2.50528 1.95825,2.64318 h -0.99751 l -1.49857,-2.02261 -1.49857,2.02261 h -0.99751 l 1.99962,-2.69375 -1.82954,-2.45471 h 0.99752 l 1.36526,1.83414 1.36526,-1.83414 z"
     style="stroke-width:0.23535794"
     id="path1229" /></g><path
   inkscape:connector-curvature="0"
   id="path90"
   style="fill:none;stroke:#000000;stroke-width:0.60000002;stroke-linecap:butt;stroke-linejoin:miter;stroke-miterlimit:4;stroke-dasharray:none;stroke-opacity:1"
   d="m 284.85062,773.71371 -1.98,2.94 -2.04,-2.94" /><path
   d="m 282.87062,776.05371 v -123.18"
   style="fill:none;stroke:#000000;stroke-width:0.99975002;stroke-linecap:butt;stroke-linejoin:miter;stroke-miterlimit:4;stroke-dasharray:none;stroke-opacity:1"
   id="path94"
   inkscape:connector-curvature="0" /><path
   inkscape:connector-curvature="0"
   id="path98"
   style="fill:none;stroke:#000000;stroke-width:0.99975002;stroke-linecap:butt;stroke-linejoin:miter;stroke-miterlimit:4;stroke-dasharray:none;stroke-opacity:1"
   d="m 220.71062,689.89371 h 147.12" /><path
   d="m 365.37062,691.75371 3.06,-1.86 -3.06,-1.86"
   style="fill:none;stroke:#000000;stroke-width:0.60000002;stroke-linecap:butt;stroke-linejoin:miter;stroke-miterlimit:4;stroke-dasharray:none;stroke-opacity:1"
   id="path102"
   inkscape:connector-curvature="0" /><path
   inkscape:connector-curvature="0"
   id="path106"
   style="fill:none;stroke:#000000;stroke-width:0.99975002;stroke-linecap:butt;stroke-linejoin:miter;stroke-miterlimit:4;stroke-dasharray:none;stroke-opacity:1"
   d="m 318.39062,758.95371 0.3,-3.12 c 2.875,-40.141 -11.795,-99.842 -60.36,-103.8 l -5.34,-0.18" /><path
   d="m 385.35062,754.57371 -2.76,0.48 c -35.358,3.419 -53.904,-75.321 -58.14,-100.02 l -0.96,-5.52"
   style="fill:none;stroke:#000000;stroke-width:0.99975002;stroke-linecap:butt;stroke-linejoin:miter;stroke-miterlimit:4;stroke-dasharray:none;stroke-opacity:1"
   id="path110"
   inkscape:connector-curvature="0" /><path
   inkscape:connector-curvature="0"
   id="path650"
   style="fill:#000000;fill-opacity:1;fill-rule:evenodd;stroke:none"
   d="m 317.97062,681.37371 0.78,0.12 0.12,-0.24 0.12,-0.3 c 0.413,-0.862 1.739,-0.752 2.28,-0.06 l 0.12,0.18 0.06,0.24 v 0.48 l -0.06,0.3 -0.12,0.18 -0.18,0.18 -0.24,0.12 -0.18,0.12 -0.24,0.06 h -0.36 l -0.18,-0.06 h -0.12 l -0.18,-0.06 0.06,0.78 h 0.12 c 0.803,0.006 1.522,0.336 1.26,1.26 l -0.12,0.18 -0.06,0.06 c -0.693,0.521 -1.365,0.384 -1.86,-0.3 l -0.12,-0.18 -0.06,-0.3 -0.78,0.18 0.12,0.36 0.36,0.6 0.18,0.24 0.3,0.18 0.3,0.12 0.3,0.06 0.42,0.06 h 0.24 l 0.24,-0.06 0.3,-0.06 0.18,-0.12 0.24,-0.06 0.18,-0.18 0.18,-0.18 c 0.436,-0.622 0.419,-1.456 -0.18,-1.92 l -0.18,-0.12 -0.24,-0.12 0.3,-0.06 c 3.304,-1.987 -2.011,-5.378 -3.24,-2.04 l -0.06,0.36" /><path
   inkscape:connector-curvature="0"
   id="path654"
   style="fill:none;stroke:#000000;stroke-width:0.375;stroke-linecap:butt;stroke-linejoin:miter;stroke-miterlimit:4;stroke-dasharray:none;stroke-opacity:1"
   d="m 285.57062,713.1137 h -5.82" /><path
   d="m 285.27062,701.2937 h -5.82"
   style="fill:none;stroke:#000000;stroke-width:0.375;stroke-linecap:butt;stroke-linejoin:miter;stroke-miterlimit:4;stroke-dasharray:none;stroke-opacity:1"
   id="path658"
   inkscape:connector-curvature="0" /><path
   inkscape:connector-curvature="0"
   id="path662"
   style="fill:none;stroke:#000000;stroke-width:0.375;stroke-linecap:butt;stroke-linejoin:miter;stroke-miterlimit:4;stroke-dasharray:none;stroke-opacity:1"
   d="m 286.05062,724.8137 h -5.82" /><path
   d="m 285.09062,678.2537 h -5.82"
   style="fill:none;stroke:#000000;stroke-width:0.375;stroke-linecap:butt;stroke-linejoin:miter;stroke-miterlimit:4;stroke-dasharray:none;stroke-opacity:1"
   id="path666"
   inkscape:connector-curvature="0" /><path
   inkscape:connector-curvature="0"
   id="path670"
   style="fill:none;stroke:#000000;stroke-width:0.375;stroke-linecap:butt;stroke-linejoin:miter;stroke-miterlimit:4;stroke-dasharray:none;stroke-opacity:1"
   d="m 285.51062,666.3137 h -5.82" /><path
   d="m 294.87062,692.2937 v -5.46"
   style="fill:none;stroke:#000000;stroke-width:0.375;stroke-linecap:butt;stroke-linejoin:miter;stroke-miterlimit:4;stroke-dasharray:none;stroke-opacity:1"
   id="path674"
   inkscape:connector-curvature="0" /><path
   inkscape:connector-curvature="0"
   id="path678"
   style="fill:none;stroke:#000000;stroke-width:0.375;stroke-linecap:butt;stroke-linejoin:miter;stroke-miterlimit:4;stroke-dasharray:none;stroke-opacity:1"
   d="m 307.53062,692.2937 v -5.46" /><path
   d="m 320.61062,692.2937 v -5.46"
   style="fill:none;stroke:#000000;stroke-width:0.375;stroke-linecap:butt;stroke-linejoin:miter;stroke-miterlimit:4;stroke-dasharray:none;stroke-opacity:1"
   id="path682"
   inkscape:connector-curvature="0" /><path
   inkscape:connector-curvature="0"
   id="path686"
   style="fill:none;stroke:#000000;stroke-width:0.375;stroke-linecap:butt;stroke-linejoin:miter;stroke-miterlimit:4;stroke-dasharray:none;stroke-opacity:1"
   d="m 332.49062,692.0537 v -5.52" /><path
   d="m 270.45062,692.8337 v -5.52"
   style="fill:none;stroke:#000000;stroke-width:0.375;stroke-linecap:butt;stroke-linejoin:miter;stroke-miterlimit:4;stroke-dasharray:none;stroke-opacity:1"
   id="path690"
   inkscape:connector-curvature="0" /><path
   inkscape:connector-curvature="0"
   id="path694"
   style="fill:#000000;fill-opacity:1;fill-rule:evenodd;stroke:none"
   d="m 245.19062,739.7537 0.78,-0.18 -0.06,-0.36 -0.12,-0.3 -0.18,-0.36 c -0.555,-0.481 -1.293,-0.737 -2.04,-0.54 l -0.48,0.12 -0.36,0.12 c -0.476,0.279 -0.867,0.947 -0.84,1.5 l -0.06,0.24 v 0.6 c -0.008,2.065 2.702,2.759 3.84,1.2 l 0.12,-0.3 0.06,-0.3 -0.78,-0.12 -0.06,0.24 -0.12,0.12 -0.24,0.24 -0.18,0.06 -0.12,0.06 -0.18,0.06 h -0.54 c -0.384,-0.357 -0.563,0.175 -0.9,-0.9 l -0.12,-0.3 v -0.78 l 0.24,-0.6 0.12,-0.24 0.18,-0.12 0.3,-0.12 0.18,-0.12 h 0.6 l 0.36,0.18 0.18,0.06 0.18,0.18 0.12,0.18 0.06,0.18 z m 5.82,1.92 h -4.44 v 0.77997 h 4.44 z m 0,-1.92 h -4.44 v 0.77997 h 4.44 z m 0.96,0 0.78,0.06 0.24,-0.48 c 0.329,-0.987 1.725,-0.764 2.28,-0.12 l 0.12,0.18 0.06,0.3 v 0.42 l -0.06,0.3 -0.12,0.18 -0.18,0.18 -0.24,0.18 -0.18,0.06 -0.24,0.06 h -0.42 l -0.12,-0.06 h -0.12 l -0.18,-0.06 0.06,0.78 h 0.12 c 0.708,-0.08 1.573,0.477 1.26,1.26 l -0.12,0.18 -0.12,0.12 -0.36,0.18 -0.18,0.06 h -0.42 l -0.24,-0.06 -0.18,-0.12 -0.18,-0.06 -0.36,-0.54 -0.06,-0.24 -0.78,0.12 0.12,0.36 0.18,0.3 c 0.427,1.09 1.984,1.149 2.88,0.66 l 0.18,-0.18 0.12,-0.12 c 0.492,-0.528 0.521,-1.52 -0.12,-1.92 l -0.18,-0.18 -0.24,-0.12 0.3,-0.06 0.24,-0.06 c 0.895,-0.461 0.935,-1.713 0.42,-2.46 l -0.6,-0.6 c -1.027,-0.414 -2.605,-0.501 -3.12,0.72 l -0.18,0.36 -0.06,0.42" /><g
   aria-label=" "
   transform="scale(1,-1)"
   style="font-variant:normal;font-weight:normal;font-stretch:normal;font-size:10.99989986px;font-family:Calibri;-inkscape-font-specification:Calibri;writing-mode:lr-tb;fill:#000000;fill-opacity:1;fill-rule:nonzero;stroke:none;stroke-width:0.99999994"
   id="text698" /><path
   inkscape:connector-curvature="0"
   id="path5929-3-6-7-5-6"
   d="M 320.61062,774.69072 V 649.30686"
   style="fill:none;stroke:#000000;stroke-width:0.60000002;stroke-linecap:butt;stroke-linejoin:miter;stroke-miterlimit:4;stroke-dasharray:2.40000006, 2.40000006;stroke-dashoffset:0;stroke-opacity:1" /><path
   inkscape:connector-curvature="0"
   id="path1034-5"
   style="fill:#000000;fill-opacity:1;fill-rule:evenodd;stroke:none"
   d="m 276.45673,698.31904 h -0.78 v 5.1 l -0.18,-0.18 c -0.328,-0.275 -0.829,-0.55 -1.2,-0.78 h -0.24 v 0.72 l 0.3,0.18 c 0.468,0.161 1.224,0.846 1.5,1.26 l 0.12,0.18 h 0.48 v -6.48" /><g
   aria-label="y"
   transform="scale(1,-1)"
   style="font-style:normal;font-weight:normal;font-size:9.41431713px;line-height:1.25;font-family:sans-serif;letter-spacing:0px;word-spacing:0px;fill:#000000;fill-opacity:1;stroke:none;stroke-width:0.23535794"
   id="text4255-9"><path
     d="m 276.45885,-770.9999 q -0.35855,0.91937 -0.69872,1.19978 -0.34017,0.28041 -0.91017,0.28041 h -0.67574 v -0.70792 h 0.49646 q 0.34936,0 0.54243,-0.16548 0.19306,-0.16549 0.4275,-0.78147 l 0.1517,-0.38613 -2.08237,-5.06571 h 0.89638 l 1.6089,4.02683 1.60889,-4.02683 h 0.89638 z"
     style="stroke-width:0.23535794"
     id="path1225" /></g><g
   aria-label="x"
   transform="scale(1,-1)"
   style="font-style:normal;font-weight:normal;font-size:9.41431713px;line-height:1.25;font-family:sans-serif;letter-spacing:0px;word-spacing:0px;fill:#000000;fill-opacity:1;stroke:none;stroke-width:0.23535794"
   id="text4259-2"><path
     d="m 368.7247,-685.92317 -1.86171,2.50527 1.95825,2.64318 h -0.99752 l -1.49856,-2.02261 -1.49857,2.02261 h -0.99752 l 1.99963,-2.69374 -1.82954,-2.45471 h 0.99751 l 1.36526,1.83413 1.36526,-1.83413 z"
     style="stroke-width:0.23535794"
     id="path1222" /></g></g></svg>