<?xml version="1.0" encoding="UTF-8" standalone="no"?>
<!-- Created with Inkscape (http://www.inkscape.org/) -->

<svg
   xmlns:dc="http://purl.org/dc/elements/1.1/"
   xmlns:cc="http://creativecommons.org/ns#"
   xmlns:rdf="http://www.w3.org/1999/02/22-rdf-syntax-ns#"
   xmlns:svg="http://www.w3.org/2000/svg"
   xmlns="http://www.w3.org/2000/svg"
   xmlns:sodipodi="http://sodipodi.sourceforge.net/DTD/sodipodi-0.dtd"
   xmlns:inkscape="http://www.inkscape.org/namespaces/inkscape"
   version="1.1"
   id="svg2"
   xml:space="preserve"
   width="450.39999"
   height="179.7227"
   viewBox="0 0 450.4 179.72269"
   sodipodi:docname="fig_1_kl.svg"
   inkscape:version="0.92.4 (unknown)"><metadata
     id="metadata8"><rdf:RDF><cc:Work
         rdf:about=""><dc:format>image/svg+xml</dc:format><dc:type
           rdf:resource="http://purl.org/dc/dcmitype/StillImage" /><dc:title /></cc:Work></rdf:RDF></metadata><defs
     id="defs6"><marker
   inkscape:stockid="Arrow1Lstart"
   orient="auto"
   refY="0.0"
   refX="0.0"
   id="Arrow1Lstart"
   style="overflow:visible"
   inkscape:isstock="true"><path
     id="path10032"
     d="M 0.0,0.0 L 5.0,-5.0 L -12.5,0.0 L 5.0,5.0 L 0.0,0.0 z "
     style="fill-rule:evenodd;stroke:#000000;stroke-width:1pt;stroke-opacity:1;fill:#000000;fill-opacity:1"
     transform="scale(0.8) translate(12.5,0)" /></marker><clipPath
   clipPathUnits="userSpaceOnUse"
   id="clipPath1254"><path
     d="m 299.46,390.32 h 6.6 v 14.64 h -6.6 z"
     id="path1252"
     inkscape:connector-curvature="0" /></clipPath><clipPath
   clipPathUnits="userSpaceOnUse"
   id="clipPath1310"><path
     d="m 319.92,314.18 h 15.18 v 14.64 h -15.18 z"
     id="path1308"
     inkscape:connector-curvature="0" /></clipPath><clipPath
   clipPathUnits="userSpaceOnUse"
   id="clipPath1326"><path
     d="m 310.2,314.18 h 6.6 v 14.64 h -6.6 z"
     id="path1324"
     inkscape:connector-curvature="0" /></clipPath><clipPath
   clipPathUnits="userSpaceOnUse"
   id="clipPath1338"><path
     d="m 247.74,314.18 h 12.48 v 14.64 h -12.48 z"
     id="path1336"
     inkscape:connector-curvature="0" /></clipPath><clipPath
   clipPathUnits="userSpaceOnUse"
   id="clipPath1390"><path
     d="m 319.92,244.82 h 15.18 v 14.64 h -15.18 z"
     id="path1388"
     inkscape:connector-curvature="0" /></clipPath><clipPath
   clipPathUnits="userSpaceOnUse"
   id="clipPath1406"><path
     d="m 310.2,244.82 h 6.6 v 14.64 h -6.6 z"
     id="path1404"
     inkscape:connector-curvature="0" /></clipPath><clipPath
   clipPathUnits="userSpaceOnUse"
   id="clipPath1418"><path
     d="m 247.74,244.82 h 12.48 v 14.64 h -12.48 z"
     id="path1416"
     inkscape:connector-curvature="0" /></clipPath><clipPath
   clipPathUnits="userSpaceOnUse"
   id="clipPath1470"><path
     d="m 319.86,175.46 h 8.58 v 14.64 h -8.58 z"
     id="path1468"
     inkscape:connector-curvature="0" /></clipPath><clipPath
   clipPathUnits="userSpaceOnUse"
   id="clipPath1482"><path
     d="m 310.32,175.46 h 6.6 v 14.64 h -6.6 z"
     id="path1480"
     inkscape:connector-curvature="0" /></clipPath><clipPath
   clipPathUnits="userSpaceOnUse"
   id="clipPath1494"><path
     d="m 247.8,175.46 h 12.48 V 190.1 H 247.8 Z"
     id="path1492"
     inkscape:connector-curvature="0" /></clipPath><clipPath
   clipPathUnits="userSpaceOnUse"
   id="clipPath1546"><path
     d="m 319.86,106.1 h 8.58 v 14.64 h -8.58 z"
     id="path1544"
     inkscape:connector-curvature="0" /></clipPath><clipPath
   clipPathUnits="userSpaceOnUse"
   id="clipPath1558"><path
     d="m 310.32,106.1 h 6.6 v 14.64 h -6.6 z"
     id="path1556"
     inkscape:connector-curvature="0" /></clipPath><clipPath
   clipPathUnits="userSpaceOnUse"
   id="clipPath1570"><path
     d="m 247.8,106.1 h 12.48 v 14.64 H 247.8 Z"
     id="path1568"
     inkscape:connector-curvature="0" /></clipPath>



</defs><sodipodi:namedview
     pagecolor="#ffffff"
     bordercolor="#666666"
     borderopacity="1"
     objecttolerance="10"
     gridtolerance="10"
     guidetolerance="10"
     inkscape:pageopacity="0"
     inkscape:pageshadow="2"
     inkscape:window-width="1299"
     inkscape:window-height="713"
     id="namedview4"
     showgrid="false"
     fit-margin-top="0"
     fit-margin-left="0"
     fit-margin-right="0"
     fit-margin-bottom="0"
     inkscape:zoom="1.1891486"
     inkscape:cx="243.72339"
     inkscape:cy="16.346807"
     inkscape:window-x="67"
     inkscape:window-y="27"
     inkscape:window-maximized="1"
     inkscape:current-layer="g10" /><g
     id="g10"
     inkscape:groupmode="layer"
     inkscape:label="TP4 Matemática-2017"
     transform="matrix(1.3333333,0,0,-1.3333333,-66.49493,1037.706)"><g
   aria-label="k)"
   transform="scale(1,-1)"
   style="font-style:normal;font-weight:normal;font-size:12.97472286px;line-height:1.25;font-family:sans-serif;letter-spacing:0px;word-spacing:0px;fill:#000000;fill-opacity:1;stroke:none;stroke-width:0.32436809"
   id="text8456"><path
     d="m 53.16742,-775.72988 h 1.172033 v 5.82215 l 3.478088,-3.05995 h 1.488798 l -3.763176,3.3197 3.921559,3.77585 h -1.520475 l -3.604794,-3.46542 v 3.46542 H 53.16742 Z"
     style="stroke-width:0.32436809"
     id="path1171" /><path
     d="m 60.554396,-775.71721 h 1.01365 q 0.950297,1.49513 1.419111,2.92692 0.475148,1.43178 0.475148,2.84455 0,1.41911 -0.475148,2.85723 -0.468814,1.43811 -1.419111,2.92691 h -1.01365 q 0.842597,-1.45078 1.254392,-2.88256 0.418131,-1.43812 0.418131,-2.90158 0,-1.46346 -0.418131,-2.8889 -0.411795,-1.42545 -1.254392,-2.88257 z"
     style="stroke-width:0.32436809"
     id="path1173" /></g>
<g
   aria-label="l)"
   transform="scale(1,-1)"
   style="font-style:normal;font-weight:normal;font-size:12.97472286px;line-height:1.25;font-family:sans-serif;letter-spacing:0px;word-spacing:0px;fill:#000000;fill-opacity:1;stroke:none;stroke-width:0.32436809"
   id="text8460"><path
     d="m 234.71178,-775.72988 h 1.16569 v 9.85775 h -1.16569 z"
     style="stroke-width:0.32436809"
     id="path1176" /><path
     d="m 238.12651,-775.71721 h 1.01365 q 0.9503,1.49513 1.41911,2.92692 0.47515,1.43178 0.47515,2.84455 0,1.41911 -0.47515,2.85723 -0.46881,1.43811 -1.41911,2.92691 h -1.01365 q 0.8426,-1.45078 1.25439,-2.88256 0.41813,-1.43812 0.41813,-2.90158 0,-1.46346 -0.41813,-2.8889 -0.41179,-1.42545 -1.25439,-2.88257 z"
     style="stroke-width:0.32436809"
     id="path1178" /></g>

<path
   inkscape:connector-curvature="0"
   id="path702"
   style="fill:none;stroke:#000000;stroke-width:0.99975002;stroke-linecap:butt;stroke-linejoin:miter;stroke-miterlimit:4;stroke-dasharray:none;stroke-opacity:1"
   d="m 106.14579,766.69775 -2.34,3.6 -2.28001,-3.6" /><path
   d="m 103.80579,769.57775 v -124.44"
   style="fill:none;stroke:#000000;stroke-width:0.99975002;stroke-linecap:butt;stroke-linejoin:miter;stroke-miterlimit:4;stroke-dasharray:none;stroke-opacity:1"
   id="path706"
   inkscape:connector-curvature="0" /><path
   inkscape:connector-curvature="0"
   id="path710"
   style="fill:none;stroke:#000000;stroke-width:0.99975002;stroke-linecap:butt;stroke-linejoin:miter;stroke-miterlimit:4;stroke-dasharray:none;stroke-opacity:1"
   d="M 51.905786,691.33775 H 221.94579" /><path
   d="m 219.06579,693.67775 3.6,-2.34 -3.6,-2.28"
   style="fill:none;stroke:#000000;stroke-width:0.99975002;stroke-linecap:butt;stroke-linejoin:miter;stroke-miterlimit:4;stroke-dasharray:none;stroke-opacity:1"
   id="path714"
   inkscape:connector-curvature="0" /><path
   inkscape:connector-curvature="0"
   id="path718"
   style="fill:none;stroke:#000000;stroke-width:0.99975002;stroke-linecap:butt;stroke-linejoin:miter;stroke-miterlimit:4;stroke-dasharray:none;stroke-opacity:1"
   d="m 87.545784,646.45775 70.980006,72.36" /><path
   d="m 158.85177,718.63775 v 0.12 l -0.06,0.06 h -0.06 v 0.06 l -0.06,0.06 -0.06,0.06 v 0.12 l -0.06,0.06 v 0.12 l -0.06,0.06 v 0.54 l 0.06,0.06 v 0.18 l 0.06,0.06 v 0.06 l 0.06,0.06 0.06,0.06 0.06,0.06 v 0.06 l 0.06,0.12 h 0.06 l 0.06,0.06 v 0.06 h 0.06 l 0.12,0.12 h 0.12 l 0.06,0.06 h 0.18 l 0.06,0.06 h 0.48 l 0.06,-0.06 h 0.24 l 0.06,-0.06 h 0.06 c 0.278,-0.313 0.157,-0.083 0.3,-0.24 v -0.12 l 0.06,-0.06 h 0.06 v -0.06 l 0.06,-0.06 0.06,-0.06 v -0.12 l 0.06,-0.06 v -0.12 l 0.06,-0.06 v -0.54 l -0.06,-0.06 v -0.18 l -0.06,-0.06 v -0.06 l -0.06,-0.06 -0.06,-0.06 -0.06,-0.06 v -0.06 l -0.06,-0.12 h -0.06 l -0.06,-0.06 v -0.06 h -0.06 l -0.12,-0.12 h -0.12 l -0.12,-0.06 h -0.12 l -0.06,-0.06 h -0.48 l -0.06,0.06 h -0.24 l -0.06,0.06 h -0.06 l -0.18,0.18 h -0.06 l -0.06,0.06"
   style="fill:none;stroke:#000000;stroke-width:0.60000002;stroke-linecap:butt;stroke-linejoin:miter;stroke-miterlimit:4;stroke-dasharray:none;stroke-opacity:1"
   id="path722"
   inkscape:connector-curvature="0" /><path
   inkscape:connector-curvature="0"
   id="path726"
   style="fill:none;stroke:#000000;stroke-width:0.60000002;stroke-linecap:butt;stroke-linejoin:miter;stroke-miterlimit:4;stroke-dasharray:none;stroke-opacity:1"
   d="m 160.83981,663.67775 -0.06,0.06 v 0.06 l -0.06,0.12 h -0.06 l -0.06,0.06 h -0.06 l -0.06,0.06 h -0.06 l -0.12,0.06 h -0.12 l -0.06,0.06 h -0.48 l -0.06,-0.06 h -0.12 l -0.12,-0.06 h -0.06 l -0.06,-0.06 h -0.06 l -0.06,-0.06 h -0.06 l -0.06,-0.12 v -0.06 l -0.06,-0.06 h -0.06 l -0.06,-0.06 v -0.06 l -0.06,-0.06 v -0.06 l -0.06,-0.06 v -0.06 l -0.06,-0.06 v -0.12 l -0.06,-0.06 v -0.54 h 0.06 v -0.18 l 0.06,-0.06 v -0.06 l 0.06,-0.06 v -0.06 l 0.06,-0.06 v -0.12 l 0.06,-0.06 h 0.06 l 0.06,-0.06 v -0.06 l 0.06,-0.06 h 0.06 l 0.06,-0.06 h 0.06 l 0.06,-0.06 h 0.06 l 0.12,-0.06 h 0.12 l 0.06,-0.06 h 0.48 l 0.06,0.06 h 0.12 l 0.12,0.06 h 0.06 l 0.06,0.06 h 0.06 l 0.06,0.06 h 0.06 l 0.06,0.06 v 0.06 l 0.06,0.06 h 0.06 l 0.06,0.06 v 0.12 l 0.06,0.06 v 0.06 l 0.06,0.06 v 0.06 l 0.06,0.06 v 0.12 l 0.06,0.06 v 0.54 h -0.06 v 0.18 l -0.06,0.06 v 0.06 l -0.06,0.06 v 0.06 l -0.06,0.06 v 0.06 l -0.06,0.06 h -0.06" /><path
   d="m 161.16579,663.61775 54.3,51.78"
   style="fill:none;stroke:#000000;stroke-width:0.99975002;stroke-linecap:butt;stroke-linejoin:miter;stroke-miterlimit:4;stroke-dasharray:none;stroke-opacity:1"
   id="path730"
   inkscape:connector-curvature="0" /><path
   inkscape:connector-curvature="0"
   id="path734"
   style="fill:none;stroke:#000000;stroke-width:0.375;stroke-linecap:butt;stroke-linejoin:miter;stroke-miterlimit:4;stroke-dasharray:none;stroke-opacity:1"
   d="m 117.84578,693.73777 v -6.78" /><path
   d="m 88.80578,694.27777 v -6.72"
   style="fill:none;stroke:#000000;stroke-width:0.375;stroke-linecap:butt;stroke-linejoin:miter;stroke-miterlimit:4;stroke-dasharray:none;stroke-opacity:1"
   id="path738"
   inkscape:connector-curvature="0" /><path
   inkscape:connector-curvature="0"
   id="path742"
   style="fill:none;stroke:#000000;stroke-width:0.375;stroke-linecap:butt;stroke-linejoin:miter;stroke-miterlimit:4;stroke-dasharray:none;stroke-opacity:1"
   d="m 132.06578,693.97777 v -6.72" /><path
   d="m 146.46578,694.27777 v -6.72"
   style="fill:none;stroke:#000000;stroke-width:0.375;stroke-linecap:butt;stroke-linejoin:miter;stroke-miterlimit:4;stroke-dasharray:none;stroke-opacity:1"
   id="path746"
   inkscape:connector-curvature="0" /><path
   inkscape:connector-curvature="0"
   id="path750"
   style="fill:none;stroke:#000000;stroke-width:0.375;stroke-linecap:butt;stroke-linejoin:miter;stroke-miterlimit:4;stroke-dasharray:none;stroke-opacity:1"
   d="m 159.96578,693.97777 v -6.72" /><path
   d="m 100.74578,704.95777 h 6.72"
   style="fill:none;stroke:#000000;stroke-width:0.375;stroke-linecap:butt;stroke-linejoin:miter;stroke-miterlimit:4;stroke-dasharray:none;stroke-opacity:1"
   id="path754"
   inkscape:connector-curvature="0" /><path
   inkscape:connector-curvature="0"
   id="path758"
   style="fill:none;stroke:#000000;stroke-width:0.375;stroke-linecap:butt;stroke-linejoin:miter;stroke-miterlimit:4;stroke-dasharray:none;stroke-opacity:1"
   d="m 100.50578,719.35777 h 6.72" /><path
   inkscape:connector-curvature="0"
   id="path762"
   style="fill:#000000;fill-opacity:1;fill-rule:evenodd;stroke:none"
   d="m 117.12578,677.83777 h -0.9 v 6 l -0.18,-0.18 c -0.508,-0.271 -0.894,-0.638 -1.5,-0.9 l -0.24,-0.06 v 0.9 l 0.36,0.18 c 0.72,0.532 1.223,0.705 1.74,1.5 l 0.12,0.24 h 0.6 v -7.68" /><path
   inkscape:connector-curvature="0"
   id="path766"
   style="fill:#000000;fill-opacity:1;fill-rule:evenodd;stroke:none"
   d="m 157.86579,678.43777 v 1.86 h -3.42 v 0.9 l 3.6,4.86 h 0.72 v -4.86 h 0.96 v -0.9 h -0.96 v -1.86 z m 0,2.76 v 3.06 l -2.34,-3.06 h 2.34" /><path
   inkscape:connector-curvature="0"
   id="path770"
   style="fill:none;stroke:#000000;stroke-width:0.375;stroke-linecap:butt;stroke-linejoin:miter;stroke-miterlimit:4;stroke-dasharray:none;stroke-opacity:1"
   d="m 174.96578,693.97777 v -6.72" /><path
   d="m 190.62578,694.27777 v -6.72"
   style="fill:none;stroke:#000000;stroke-width:0.375;stroke-linecap:butt;stroke-linejoin:miter;stroke-miterlimit:4;stroke-dasharray:none;stroke-opacity:1"
   id="path774"
   inkscape:connector-curvature="0" /><path
   inkscape:connector-curvature="0"
   id="path778"
   style="fill:none;stroke:#000000;stroke-width:0.375;stroke-linecap:butt;stroke-linejoin:miter;stroke-miterlimit:4;stroke-dasharray:none;stroke-opacity:1"
   d="m 101.04578,733.21777 h 6.78" /><path
   inkscape:connector-curvature="0"
   id="path782"
   style="fill:#000000;fill-opacity:1;fill-rule:evenodd;stroke:#000000;stroke-width:0.06;stroke-linecap:butt;stroke-linejoin:miter;stroke-miterlimit:10;stroke-dasharray:none;stroke-opacity:1"
   d="m 157.93383,705.25777 v -0.24 l 0.06,-0.12 v -0.18 l 0.12,-0.12 v -0.06 l 0.06,-0.06 v -0.06 l 0.06,-0.12 0.12,-0.12 v -0.06 l 0.06,-0.06 0.06,-0.06 0.06,-0.06 0.06,-0.06 h 0.06 l 0.06,-0.12 0.06,-0.06 0.12,-0.06 h 0.12 l 0.06,-0.06 h 0.06 l 0.12,-0.06 h 0.12 l 0.12,-0.06 h 0.54 l 0.12,0.06 h 0.12 l 0.12,0.06 h 0.06 l 0.06,0.06 h 0.06 l 0.12,0.06 0.18,0.18 h 0.06 l 0.06,0.06 0.06,0.06 0.06,0.06 0.06,0.06 v 0.06 l 0.12,0.12 0.06,0.12 v 0.06 l 0.06,0.06 v 0.06 l 0.06,0.12 v 0.18 l 0.06,0.12 v 0.48 l -0.06,0.12 v 0.18 l -0.06,0.12 v 0.06 l -0.06,0.06 v 0.06 l -0.06,0.12 -0.12,0.12 v 0.06 l -0.18,0.18 -0.06,0.12 h -0.06 l -0.12,0.06 -0.06,0.06 -0.12,0.06 h -0.06 l -0.06,0.06 h -0.06 l -0.12,0.06 h -0.12 l -0.12,0.06 h -0.54 l -0.12,-0.06 h -0.12 l -0.12,-0.06 h -0.06 l -0.06,-0.06 h -0.12 l -0.12,-0.06 -0.12,-0.12 h -0.06 l -0.06,-0.12 -0.18,-0.18 v -0.06 l -0.12,-0.12 -0.06,-0.12 v -0.06 l -0.06,-0.06 v -0.06 l -0.12,-0.12 v -0.18 l -0.06,-0.12 z" /><path
   inkscape:connector-curvature="0"
   id="path970"
   style="fill:#000000;fill-opacity:1;fill-rule:evenodd;stroke:none"
   d="m 96.185784,700.69777 h -0.9 v 6.06 l -0.18,-0.24 c -0.546,-0.376 -0.932,-0.585 -1.5,-0.9 l -0.24,-0.06 v 0.9 l 0.36,0.24 c 0.995,0.563 1.025,0.54 1.74,1.44 l 0.12,0.24 h 0.6 v -7.68" /><path
   inkscape:connector-curvature="0"
   id="path974"
   style="fill:#000000;fill-opacity:1;fill-rule:evenodd;stroke:none"
   d="m 77.825784,731.65777 0.9,-0.18 -0.06,-0.42 -0.18,-0.42 -0.18,-0.36 c -0.852,-0.707 -1.245,-0.916 -2.4,-0.72 l -0.48,0.12 -0.48,0.24 c -0.554,0.407 -0.996,1.023 -0.96,1.74 l -0.06,0.36 v 0.78 l 0.12,0.84 0.12,0.3 0.24,0.3 0.18,0.24 0.24,0.24 0.24,0.18 0.36,0.18 0.3,0.12 c 0.697,0.173 1.882,-0.015 2.4,-0.6 l 0.24,-0.36 0.12,-0.36 0.12,-0.42 -0.96,-0.12 -0.06,0.3 -0.12,0.18 -0.24,0.24 -0.24,0.12 -0.36,0.12 h -0.6 l -0.24,-0.12 -0.3,-0.12 -0.18,-0.18 -0.24,-0.24 -0.12,-0.42 -0.12,-0.36 v -0.96 c 0.179,-1.659 2.148,-2.037 2.82,-0.78 l 0.12,0.24 z m 6.78,2.4 h -5.16 v 0.96002 h 5.16 z m 0,-2.28 h -5.16 v 0.84003 h 5.16 z m 4.14,-2.22 v 1.86 h -3.42 v 0.9 l 3.6,4.86 h 0.72 v -4.86 h 0.96 v -0.9 h -0.96 v -1.86 z m 0,2.76 v 3.06 l -2.28,-3.06 h 2.28" /><path
   inkscape:connector-curvature="0"
   id="path5929-3-6-7-5-9"
   d="m 159.90579,718.39775 v -54.3"
   style="fill:none;stroke:#000000;stroke-width:0.52302635;stroke-linecap:butt;stroke-linejoin:miter;stroke-miterlimit:4;stroke-dasharray:2.09210535, 2.09210535;stroke-dashoffset:0;stroke-opacity:1" /><g
   aria-label="y"
   transform="scale(1,-1)"
   style="font-style:normal;font-weight:normal;font-size:9.41431713px;line-height:1.25;font-family:sans-serif;letter-spacing:0px;word-spacing:0px;opacity:0.95;fill:#000000;fill-opacity:1;stroke:none;stroke-width:0.23535794"
   id="text4279-3-0"><path
     d="m 97.289537,-766.20619 q -0.358553,0.91936 -0.698719,1.19977 -0.340165,0.28041 -0.910173,0.28041 h -0.675734 v -0.70792 h 0.496458 q 0.349359,0 0.542426,-0.16548 0.193067,-0.16549 0.427506,-0.78146 l 0.151695,-0.38614 -2.082366,-5.06571 h 0.896383 l 1.608892,4.02683 1.608892,-4.02683 h 0.896383 z"
     style="stroke-width:0.23535794"
     id="path1181" /></g><g
   aria-label="x"
   transform="scale(1,-1)"
   style="font-style:normal;font-weight:normal;font-size:9.41431713px;line-height:1.25;font-family:sans-serif;letter-spacing:0px;word-spacing:0px;opacity:0.95;fill:#000000;fill-opacity:1;stroke:none;stroke-width:0.23535794"
   id="text4283-6-3"><path
     d="m 223.42464,-686.94478 -1.86172,2.50527 1.95825,2.64318 h -0.99751 l -1.49857,-2.0226 -1.49857,2.0226 h -0.99751 l 1.99962,-2.69374 -1.82954,-2.45471 h 0.99752 l 1.36526,1.83414 1.36526,-1.83414 z"
     style="stroke-width:0.23535794"
     id="path1184" /></g><path
   inkscape:connector-curvature="0"
   id="path982"
   style="fill:none;stroke:#000000;stroke-width:0.99975002;stroke-linecap:butt;stroke-linejoin:miter;stroke-miterlimit:4;stroke-dasharray:none;stroke-opacity:1"
   d="m 299.01062,773.53371 -1.92,3.06 -1.98,-3.06" /><path
   d="m 297.09062,775.99371 v -127.44"
   style="fill:none;stroke:#000000;stroke-width:0.99975002;stroke-linecap:butt;stroke-linejoin:miter;stroke-miterlimit:4;stroke-dasharray:none;stroke-opacity:1"
   id="path986"
   inkscape:connector-curvature="0" /><path
   inkscape:connector-curvature="0"
   id="path990"
   style="fill:none;stroke:#000000;stroke-width:0.99975002;stroke-linecap:butt;stroke-linejoin:miter;stroke-miterlimit:4;stroke-dasharray:none;stroke-opacity:1"
   d="m 242.43062,687.37371 h 142.86" /><path
   d="m 382.89062,689.35371 3,-1.98 -3,-1.92"
   style="fill:none;stroke:#000000;stroke-width:0.99975002;stroke-linecap:butt;stroke-linejoin:miter;stroke-miterlimit:4;stroke-dasharray:none;stroke-opacity:1"
   id="path994"
   inkscape:connector-curvature="0" /><path
   inkscape:connector-curvature="0"
   id="path998"
   style="fill:none;stroke:#000000;stroke-width:0.99975002;stroke-linecap:butt;stroke-linejoin:miter;stroke-miterlimit:4;stroke-dasharray:none;stroke-opacity:1"
   d="m 241.65062,680.77371 1.38,2.58 1.44,2.52 c 5.35,10.023 11.33,20.845 17.82,30.18 l 0.84,1.08 0.72,1.02 0.72,0.9 c 1.402,1.782 2.211,2.558 3.9,4.02 l 0.6,0.42 0.6,0.36 c 1.278,0.735 1.231,0.786 2.16,-0.24 l 0.18,-0.12 0.24,-0.18 0.12,-0.06 0.42,0.24 0.3,0.48 0.18,0.36 0.42,0.06 0.6,-0.36 c 3.738,-2.401 6.289,-8.015 8.58,-11.7 l 0.72,-1.44 0.84,-1.44 c 4.56,-9.07 9.629,-17.872 14.94,-26.52 l 1.5,-2.22 1.44,-2.28" /><path
   d="m 302.08457,678.72674 3.12,-3.24 c 30.14699,-29.614 35.78299,45.513 40.97999,27.36 l 0.48,-2.16"
   style="fill:none;stroke:#000000;stroke-width:0.99975002;stroke-linecap:butt;stroke-linejoin:miter;stroke-miterlimit:4;stroke-dasharray:none;stroke-opacity:1"
   id="path1002"
   inkscape:connector-curvature="0" /><path
   inkscape:connector-curvature="0"
   id="path1006"
   style="fill:#000000;fill-opacity:1;fill-rule:evenodd;stroke:none"
   d="m 312.51062,676.5137 h -0.78 v 5.04 l -0.12,-0.12 c -0.925,-0.733 -0.421,-0.28 -1.26,-0.78 l -0.24,-0.06 v 0.78 l 0.36,0.12 c 0.613,0.488 0.933,0.548 1.44,1.26 l 0.12,0.24 h 0.48 v -6.48" /><path
   inkscape:connector-curvature="0"
   id="path1010"
   style="fill:none;stroke:#000000;stroke-width:0.375;stroke-linecap:butt;stroke-linejoin:miter;stroke-miterlimit:4;stroke-dasharray:none;stroke-opacity:1"
   d="m 294.03062,699.0137 h 5.7" /><path
   d="m 294.33062,722.4737 h 5.64"
   style="fill:none;stroke:#000000;stroke-width:0.375;stroke-linecap:butt;stroke-linejoin:miter;stroke-miterlimit:4;stroke-dasharray:none;stroke-opacity:1"
   id="path1014"
   inkscape:connector-curvature="0" /><path
   inkscape:connector-curvature="0"
   id="path1018"
   style="fill:none;stroke:#000000;stroke-width:0.375;stroke-linecap:butt;stroke-linejoin:miter;stroke-miterlimit:4;stroke-dasharray:none;stroke-opacity:1"
   d="m 294.03062,699.0137 h 5.7" /><path
   d="m 309.81062,684.7337 v 5.7"
   style="fill:none;stroke:#000000;stroke-width:0.375;stroke-linecap:butt;stroke-linejoin:miter;stroke-miterlimit:4;stroke-dasharray:none;stroke-opacity:1"
   id="path1022"
   inkscape:connector-curvature="0" /><path
   inkscape:connector-curvature="0"
   id="path1026"
   style="fill:none;stroke:#000000;stroke-width:0.375;stroke-linecap:butt;stroke-linejoin:miter;stroke-miterlimit:4;stroke-dasharray:none;stroke-opacity:1"
   d="m 321.15062,684.1937 v 5.7" /><path
   d="m 333.03062,684.7337 v 5.7"
   style="fill:none;stroke:#000000;stroke-width:0.375;stroke-linecap:butt;stroke-linejoin:miter;stroke-miterlimit:4;stroke-dasharray:none;stroke-opacity:1"
   id="path1030"
   inkscape:connector-curvature="0" /><path
   inkscape:connector-curvature="0"
   id="path1034"
   style="fill:#000000;fill-opacity:1;fill-rule:evenodd;stroke:none"
   d="m 292.41062,697.8737 h -0.78 v 5.1 l -0.18,-0.18 c -0.328,-0.275 -0.829,-0.55 -1.2,-0.78 h -0.24 v 0.72 l 0.3,0.18 c 0.468,0.161 1.224,0.846 1.5,1.26 l 0.12,0.18 h 0.48 v -6.48" /><path
   inkscape:connector-curvature="0"
   id="path1038"
   style="fill:none;stroke:#000000;stroke-width:0.375;stroke-linecap:butt;stroke-linejoin:miter;stroke-miterlimit:4;stroke-dasharray:none;stroke-opacity:1"
   d="m 294.33062,711.13368 h 5.64" /><path
   d="m 285.27062,684.73368 v 5.7"
   style="fill:none;stroke:#000000;stroke-width:0.375;stroke-linecap:butt;stroke-linejoin:miter;stroke-miterlimit:4;stroke-dasharray:none;stroke-opacity:1"
   id="path1042"
   inkscape:connector-curvature="0" /><path
   inkscape:connector-curvature="0"
   id="path1046"
   style="fill:none;stroke:#000000;stroke-width:0.375;stroke-linecap:butt;stroke-linejoin:miter;stroke-miterlimit:4;stroke-dasharray:none;stroke-opacity:1"
   d="m 272.19062,684.55368 v 5.64" /><path
   d="m 272.25062,687.43368 v 0.18"
   style="fill:none;stroke:#000000;stroke-width:0.375;stroke-linecap:butt;stroke-linejoin:miter;stroke-miterlimit:4;stroke-dasharray:none;stroke-opacity:1"
   id="path1050"
   inkscape:connector-curvature="0" /><path
   inkscape:connector-curvature="0"
   id="path1054"
   style="fill:none;stroke:#000000;stroke-width:0.375;stroke-linecap:butt;stroke-linejoin:miter;stroke-miterlimit:4;stroke-dasharray:none;stroke-opacity:1"
   d="m 272.25062,688.39368 v 0.12" /><path
   inkscape:connector-curvature="0"
   id="path1206"
   style="fill:none;stroke:#000000;stroke-width:0.60000002;stroke-linecap:butt;stroke-linejoin:miter;stroke-miterlimit:4;stroke-dasharray:none;stroke-opacity:1"
   d="m 272.14252,724.12884 h -0.27799 l -0.0695,0.0677 h -0.13901 l -0.0695,0.0677 h -0.0695 v 0.0677 h -0.2085 v 0.0677 h -0.0695 l -0.13899,0.13531 v 0.0677 h -0.0695 v 0.0677 l -0.0695,0.0677 v 0.0677 l -0.0695,0.0677 v 0.20294 l -0.0695,0.0677 v 0.47352 l 0.0695,0.0677 v 0.27059 l 0.0695,0.0677 v 0.0677 l 0.0695,0.0677 h 0.0695 v 0.0677 l 0.13899,0.13529 h 0.0695 v 0.0677 h 0.0695 l 0.0695,0.0677 h 0.0695 v 0.0677 h 0.0695 l 0.0695,0.0677 h 0.13901 l 0.0695,0.0677 h 0.48648 l 0.0695,-0.0677 h 0.13901 l 0.0695,-0.0677 h 0.0695 v -0.0677 h 0.0695 l 0.0695,-0.0677 h 0.0695 v -0.0677 h 0.0695 l 0.13899,-0.13529 v -0.0677 h 0.0695 l 0.0695,-0.0677 v -0.0677 l 0.0695,-0.0677 v -0.27059 l 0.0695,-0.0677 v -0.47352 l -0.0695,-0.0677 v -0.20294 l -0.0695,-0.0677 v -0.0677 l -0.0695,-0.0677 v -0.0677 h -0.0695 v -0.0677 l -0.13899,-0.13531 h -0.0695 v -0.0677 h -0.2085 v -0.0677 h -0.0695 l -0.0695,-0.0677 h -0.13901 l -0.0695,-0.0677 h -0.20849" /><path
   inkscape:connector-curvature="0"
   id="path1210"
   style="fill:#000000;fill-opacity:1;fill-rule:evenodd;stroke:none"
   d="m 270.81062,678.5537 h -2.46 v 0.78003 h 2.46 z m -2.46,0 z m 7.26,-1.26 v -0.72 h -4.26 v 0.12 l 0.06,0.12 v 0.18 c 0.297,0.431 0.28,0.672 0.54,0.96 l 0.42,0.42 c 0.675,0.593 1.385,1.18 1.98,1.86 l 0.18,0.24 0.12,0.24 0.12,0.24 c 0.237,1.408 -1.911,1.858 -2.4,0.6 l -0.12,-0.24 v -0.24 l -0.72,0.12 0.06,0.42 0.12,0.36 c 0.762,1.709 4.042,1.378 3.78,-0.96 l -0.06,-0.18 v -0.18 c -0.141,-1.097 -2.171,-2.351 -2.82,-3.12 l -0.06,-0.12 -0.12,-0.12 h 3.18" /><path
   inkscape:connector-curvature="0"
   id="path1214"
   style="fill:#000000;fill-opacity:1;fill-rule:evenodd;stroke:none"
   d="m 255.75062,752.2337 0.72,-0.18 -0.06,-0.36 -0.12,-0.36 -0.18,-0.3 c -0.517,-0.498 -1.262,-0.816 -1.98,-0.6 l -0.48,0.12 -0.36,0.12 c -0.469,0.501 -0.869,0.827 -0.78,1.56 l -0.06,0.24 v 0.66 l 0.06,0.36 v 0.36 l 0.12,0.24 0.18,0.3 0.36,0.36 0.24,0.18 0.24,0.12 0.3,0.12 0.24,0.06 h 0.3 l 0.72,-0.12 0.24,-0.12 0.3,-0.12 0.18,-0.24 0.24,-0.24 0.12,-0.36 0.06,-0.3 -0.78,-0.12 -0.06,0.24 -0.24,0.24 -0.06,0.12 -0.18,0.12 -0.18,0.06 h -0.66 c -0.461,-0.076 -0.827,-0.466 -0.9,-0.9 l -0.12,-0.3 v -0.84 l 0.12,-0.3 0.12,-0.3 0.18,-0.24 0.12,-0.18 0.3,-0.12 0.18,-0.06 h 0.36 c 0.406,0.015 0.645,0.09 0.9,0.42 l 0.24,0.36 z m 5.64,1.98 h -4.32 v 0.77997 h 4.32 z m 0,-1.98 h -4.32 v 0.78003 h 4.32 z m 3.24,0.18 h -2.52 v 0.77997 h 2.52 z m -2.52,0 z m 7.32,-1.2 v -0.78 h -4.26 v 0.18 l 0.06,0.06 c 0.106,1.518 2.487,2.465 3.12,3.72 l 0.12,0.18 0.06,0.3 v 0.18 c 0.029,0.458 -0.148,0.725 -0.54,0.96 l -0.18,0.06 -0.24,0.06 h -0.54 l -0.18,-0.06 -0.24,-0.06 -0.18,-0.18 -0.12,-0.18 -0.12,-0.18 -0.12,-0.3 v -0.24 l -0.78,0.12 0.06,0.42 0.18,0.42 0.18,0.3 0.18,0.24 0.36,0.18 0.3,0.18 0.36,0.06 0.48,0.06 0.42,-0.06 0.36,-0.06 0.3,-0.18 0.3,-0.24 0.24,-0.3 0.18,-0.24 0.06,-0.36 0.06,-0.42 v -0.12 l -0.06,-0.24 c -0.077,-1.237 -1.999,-2.345 -2.76,-3.18 l -0.12,-0.12 v -0.12 l -0.12,-0.06 h 3.18" /><path
   inkscape:connector-curvature="0"
   id="path5929-3-6-7-5-3"
   d="m 272.25062,723.31368 v -35.88"
   style="fill:none;stroke:#000000;stroke-width:0.60000002;stroke-linecap:butt;stroke-linejoin:miter;stroke-miterlimit:4;stroke-dasharray:2.40000006, 2.40000006;stroke-dashoffset:0;stroke-opacity:1" /><g
   aria-label="y"
   transform="scale(1,-1)"
   style="font-style:normal;font-weight:normal;font-size:9.41431713px;line-height:1.25;font-family:sans-serif;letter-spacing:0px;word-spacing:0px;opacity:0.95;fill:#000000;fill-opacity:1;stroke:none;stroke-width:0.23535794"
   id="text4279-3"><path
     d="m 291.33171,-771.37923 q -0.35855,0.91937 -0.69872,1.19977 -0.34016,0.28041 -0.91017,0.28041 h -0.67573 v -0.70791 h 0.49645 q 0.34936,0 0.54243,-0.16549 0.19307,-0.16548 0.42751,-0.78146 l 0.15169,-0.38613 -2.08236,-5.06571 h 0.89638 l 1.60889,4.02682 1.60889,-4.02682 h 0.89639 z"
     style="stroke-width:0.23535794"
     id="path1187" /></g><g
   aria-label="x"
   transform="scale(1,-1)"
   style="font-style:normal;font-weight:normal;font-size:9.41431713px;line-height:1.25;font-family:sans-serif;letter-spacing:0px;word-spacing:0px;opacity:0.95;fill:#000000;fill-opacity:1;stroke:none;stroke-width:0.23535794"
   id="text4283-6"><path
     d="m 386.59754,-683.35646 -1.86172,2.50527 1.95825,2.64318 h -0.99751 l -1.49857,-2.02261 -1.49857,2.02261 h -0.99751 l 1.99962,-2.69374 -1.82954,-2.45471 h 0.99751 l 1.36526,1.83413 1.36526,-1.83413 z"
     style="stroke-width:0.23535794"
     id="path1190" /></g></g></svg>