<?xml version="1.0" encoding="UTF-8" standalone="no"?>
<!-- Created with Inkscape (http://www.inkscape.org/) -->

<svg
   xmlns:dc="http://purl.org/dc/elements/1.1/"
   xmlns:cc="http://creativecommons.org/ns#"
   xmlns:rdf="http://www.w3.org/1999/02/22-rdf-syntax-ns#"
   xmlns:svg="http://www.w3.org/2000/svg"
   xmlns="http://www.w3.org/2000/svg"
   xmlns:sodipodi="http://sodipodi.sourceforge.net/DTD/sodipodi-0.dtd"
   xmlns:inkscape="http://www.inkscape.org/namespaces/inkscape"
   version="1.1"
   id="svg2"
   xml:space="preserve"
   width="450.39999"
   height="179.7227"
   viewBox="0 0 450.4 179.72269"
   sodipodi:docname="fig_1_ef.svg"
   inkscape:version="0.92.4 (unknown)"><metadata
     id="metadata8"><rdf:RDF><cc:Work
         rdf:about=""><dc:format>image/svg+xml</dc:format><dc:type
           rdf:resource="http://purl.org/dc/dcmitype/StillImage" /><dc:title /></cc:Work></rdf:RDF></metadata><defs
     id="defs6"><clipPath
   clipPathUnits="userSpaceOnUse"
   id="clipPath1254"><path
     d="m 299.46,390.32 h 6.6 v 14.64 h -6.6 z"
     id="path1252"
     inkscape:connector-curvature="0" /></clipPath><clipPath
   clipPathUnits="userSpaceOnUse"
   id="clipPath1310"><path
     d="m 319.92,314.18 h 15.18 v 14.64 h -15.18 z"
     id="path1308"
     inkscape:connector-curvature="0" /></clipPath><clipPath
   clipPathUnits="userSpaceOnUse"
   id="clipPath1326"><path
     d="m 310.2,314.18 h 6.6 v 14.64 h -6.6 z"
     id="path1324"
     inkscape:connector-curvature="0" /></clipPath><clipPath
   clipPathUnits="userSpaceOnUse"
   id="clipPath1338"><path
     d="m 247.74,314.18 h 12.48 v 14.64 h -12.48 z"
     id="path1336"
     inkscape:connector-curvature="0" /></clipPath><clipPath
   clipPathUnits="userSpaceOnUse"
   id="clipPath1390"><path
     d="m 319.92,244.82 h 15.18 v 14.64 h -15.18 z"
     id="path1388"
     inkscape:connector-curvature="0" /></clipPath><clipPath
   clipPathUnits="userSpaceOnUse"
   id="clipPath1406"><path
     d="m 310.2,244.82 h 6.6 v 14.64 h -6.6 z"
     id="path1404"
     inkscape:connector-curvature="0" /></clipPath><clipPath
   clipPathUnits="userSpaceOnUse"
   id="clipPath1418"><path
     d="m 247.74,244.82 h 12.48 v 14.64 h -12.48 z"
     id="path1416"
     inkscape:connector-curvature="0" /></clipPath><clipPath
   clipPathUnits="userSpaceOnUse"
   id="clipPath1470"><path
     d="m 319.86,175.46 h 8.58 v 14.64 h -8.58 z"
     id="path1468"
     inkscape:connector-curvature="0" /></clipPath><clipPath
   clipPathUnits="userSpaceOnUse"
   id="clipPath1482"><path
     d="m 310.32,175.46 h 6.6 v 14.64 h -6.6 z"
     id="path1480"
     inkscape:connector-curvature="0" /></clipPath><clipPath
   clipPathUnits="userSpaceOnUse"
   id="clipPath1494"><path
     d="m 247.8,175.46 h 12.48 V 190.1 H 247.8 Z"
     id="path1492"
     inkscape:connector-curvature="0" /></clipPath><clipPath
   clipPathUnits="userSpaceOnUse"
   id="clipPath1546"><path
     d="m 319.86,106.1 h 8.58 v 14.64 h -8.58 z"
     id="path1544"
     inkscape:connector-curvature="0" /></clipPath><clipPath
   clipPathUnits="userSpaceOnUse"
   id="clipPath1558"><path
     d="m 310.32,106.1 h 6.6 v 14.64 h -6.6 z"
     id="path1556"
     inkscape:connector-curvature="0" /></clipPath><clipPath
   clipPathUnits="userSpaceOnUse"
   id="clipPath1570"><path
     d="m 247.8,106.1 h 12.48 v 14.64 H 247.8 Z"
     id="path1568"
     inkscape:connector-curvature="0" /></clipPath>




</defs><sodipodi:namedview
     pagecolor="#ffffff"
     bordercolor="#666666"
     borderopacity="1"
     objecttolerance="10"
     gridtolerance="10"
     guidetolerance="10"
     inkscape:pageopacity="0"
     inkscape:pageshadow="2"
     inkscape:window-width="1299"
     inkscape:window-height="713"
     id="namedview4"
     showgrid="false"
     fit-margin-top="0"
     fit-margin-left="0"
     fit-margin-right="0"
     fit-margin-bottom="0"
     inkscape:zoom="1.1891486"
     inkscape:cx="254.12793"
     inkscape:cy="52.613184"
     inkscape:window-x="67"
     inkscape:window-y="27"
     inkscape:window-maximized="1"
     inkscape:current-layer="g10" /><g
     id="g10"
     inkscape:groupmode="layer"
     inkscape:label="TP4 Matemática-2017"
     transform="matrix(1.3333333,0,0,-1.3333333,-66.49493,1037.706)"><g
   aria-label="e)"
   transform="scale(1,-1)"
   style="font-style:normal;font-weight:normal;font-size:12.97472286px;line-height:1.25;font-family:sans-serif;letter-spacing:0px;word-spacing:0px;fill:#000000;fill-opacity:1;stroke:none;stroke-width:0.32436809"
   id="text8456"><path
     d="m 59.280998,-769.71133 v 0.57018 h -5.359675 q 0.07602,1.20371 0.722225,1.83724 0.652538,0.62719 1.8119,0.62719 0.671543,0 1.298739,-0.16471 0.633532,-0.16472 1.254393,-0.49416 v 1.10235 q -0.627196,0.26608 -1.286069,0.40546 -0.658873,0.13937 -1.336751,0.13937 -1.697864,0 -2.692509,-0.98831 -0.988309,-0.98831 -0.988309,-2.6735 0,-1.74221 0.937627,-2.7622 0.943962,-1.02632 2.540461,-1.02632 1.431781,0 2.261707,0.92496 0.836261,0.91862 0.836261,2.50245 z m -1.165698,-0.34211 q -0.01267,-0.95663 -0.538501,-1.52681 -0.519496,-0.57018 -1.381099,-0.57018 -0.975638,0 -1.564822,0.55117 -0.582849,0.55118 -0.671544,1.55216 z"
     style="stroke-width:0.32436809"
     id="path1226" /><path
     d="m 61.010539,-775.71721 h 1.01365 q 0.950297,1.49513 1.41911,2.92692 0.475149,1.43178 0.475149,2.84455 0,1.41911 -0.475149,2.85723 -0.468813,1.43811 -1.41911,2.92691 h -1.01365 q 0.842596,-1.45078 1.254392,-2.88256 0.41813,-1.43812 0.41813,-2.90158 0,-1.46346 -0.41813,-2.8889 -0.411796,-1.42545 -1.254392,-2.88257 z"
     style="stroke-width:0.32436809"
     id="path1228" /></g>
<g
   aria-label="f)"
   transform="scale(1,-1)"
   style="font-style:normal;font-weight:normal;font-size:12.97472286px;line-height:1.25;font-family:sans-serif;letter-spacing:0px;word-spacing:0px;fill:#000000;fill-opacity:1;stroke:none;stroke-width:0.32436809"
   id="text8460"><path
     d="m 232.3039,-775.72988 v 0.9693 h -1.11502 q -0.62719,0 -0.87427,0.25342 -0.24074,0.25341 -0.24074,0.91228 v 0.6272 h 1.9196 v 0.90595 h -1.9196 v 6.1896 h -1.17204 v -6.1896 h -1.11501 v -0.90595 h 1.11501 v -0.49416 q 0,-1.1847 0.55118,-1.7232 0.55117,-0.54484 1.74854,-0.54484 z"
     style="stroke-width:0.32436809"
     id="path1221" /><path
     d="m 233.08948,-775.71721 h 1.01365 q 0.95029,1.49513 1.41911,2.92692 0.47515,1.43178 0.47515,2.84455 0,1.41911 -0.47515,2.85723 -0.46882,1.43811 -1.41911,2.92691 h -1.01365 q 0.84259,-1.45078 1.25439,-2.88256 0.41813,-1.43812 0.41813,-2.90158 0,-1.46346 -0.41813,-2.8889 -0.4118,-1.42545 -1.25439,-2.88257 z"
     style="stroke-width:0.32436809"
     id="path1223" /></g>

<path
   inkscape:connector-curvature="0"
   id="path2122"
   style="fill:none;stroke:#000000;stroke-width:0.99974996;stroke-linecap:round;stroke-linejoin:round;stroke-miterlimit:4;stroke-dasharray:none;stroke-opacity:1"
   d="m 152.5312,774.07779 -2.1,3 -2.1,-3" /><path
   d="m 150.4312,776.53779 v -126.24"
   style="fill:none;stroke:#000000;stroke-width:0.99974996;stroke-linecap:round;stroke-linejoin:round;stroke-miterlimit:4;stroke-dasharray:none;stroke-opacity:1"
   id="path2126"
   inkscape:connector-curvature="0" /><path
   inkscape:connector-curvature="0"
   id="path2130"
   style="fill:none;stroke:#000000;stroke-width:0.99974996;stroke-linecap:round;stroke-linejoin:round;stroke-miterlimit:4;stroke-dasharray:none;stroke-opacity:1"
   d="M 57.971196,688.75779 H 212.23121" /><path
   d="m 209.59121,690.67779 3.3,-1.92 -3.3,-1.92"
   style="fill:none;stroke:#000000;stroke-width:0.99974996;stroke-linecap:round;stroke-linejoin:round;stroke-miterlimit:4;stroke-dasharray:none;stroke-opacity:1"
   id="path2134"
   inkscape:connector-curvature="0" /><path
   inkscape:connector-curvature="0"
   id="path2138"
   style="fill:none;stroke:#000000;stroke-width:0.99974996;stroke-linecap:round;stroke-linejoin:round;stroke-miterlimit:4;stroke-dasharray:none;stroke-opacity:1"
   d="m 52.811196,697.93778 3.12,0.72 c 41.9,10.96201 62.973004,1.80101 66.960004,-44.63999 l 0.36,-5.7" /><path
   d="m 192.79121,756.43779 -3.12001,0.6 -3.12,0.24 c -15.593,0.452 -27.574,-12.087 -35.52,-24.12 l -2.22,-3.72 -2.1,-3.84 c -10.44699,-19.786 -15.81399,-42.88901 -17.94,-65.04 l -0.48,-5.88 -0.36,-5.88"
   style="fill:none;stroke:#000000;stroke-width:0.99974996;stroke-linecap:round;stroke-linejoin:round;stroke-miterlimit:4;stroke-dasharray:none;stroke-opacity:1"
   id="path2142"
   inkscape:connector-curvature="0" /><path
   inkscape:connector-curvature="0"
   id="path2390"
   style="fill:#000000;fill-opacity:1;fill-rule:evenodd;stroke:#000000;stroke-width:0.06;stroke-linecap:round;stroke-linejoin:round;stroke-miterlimit:10;stroke-dasharray:none;stroke-opacity:1"
   d="m 123.26656,701.05778 v 0.24 l 0.06,0.12 v 0.12 l 0.06,0.06 v 0.06 l 0.06,0.06 v 0.06 l 0.06,0.12 0.18,0.18 v 0.06 l 0.12,0.12 h 0.06 l 0.12,0.12 0.12,0.06 h 0.06 l 0.06,0.06 h 0.3 l 0.12,0.06 h 0.48 l 0.12,-0.06 h 0.3 l 0.06,-0.06 h 0.06 l 0.18,-0.18 h 0.06 l 0.36,-0.36 0.06,-0.12 v -0.06 l 0.06,-0.06 v -0.06 l 0.06,-0.06 v -0.12 l 0.06,-0.12 v -0.42 l -0.06,-0.12 v -0.12 l -0.06,-0.12 -0.06,-0.06 v -0.06 l -0.06,-0.12 -0.12,-0.12 v -0.06 l -0.06,-0.06 h -0.06 l -0.12,-0.12 h -0.06 l -0.18,-0.18 h -0.06 l -0.06,-0.06 h -0.06 l -0.12,-0.06 h -0.12 l -0.12,-0.06 h -0.48 l -0.12,0.06 h -0.12 l -0.12,0.06 h -0.06 l -0.06,0.06 h -0.06 l -0.12,0.06 -0.12,0.12 h -0.06 l -0.18,0.18 v 0.06 l -0.12,0.12 -0.06,0.12 v 0.06 l -0.06,0.06 -0.06,0.12 v 0.12 l -0.06,0.12 z" /><path
   inkscape:connector-curvature="0"
   id="path2394"
   style="fill:#000000;fill-opacity:1;fill-rule:evenodd;stroke:none"
   d="m 121.0912,681.07778 h -2.7 v 0.72 h 2.7 z m -2.7,0 z m 7.86,-1.26 v -0.72 h -4.62 v 0.12 l 0.06,0.12 v 0.18 c 0.173,0.191 0.329,0.705 0.6,0.96 l 0.24,0.18 0.24,0.24 c 0.806,0.622 1.405,1.122 2.16,1.8 l 0.18,0.3 0.12,0.18 0.12,0.3 c 0.224,1.39 -2.137,1.758 -2.58,0.54 l -0.12,-0.24 v -0.24 l -0.84,0.12 0.06,0.42 0.18,0.36 c 0.867,1.741 4.34,1.311 4.08,-0.96 l -0.06,-0.18 v -0.18 l -0.06,-0.18 c -0.208,-0.38 -0.471,-0.714 -0.78,-1.02 l -0.24,-0.3 -0.36,-0.24 c -0.51,-0.417 -1.117,-0.715 -1.5,-1.26 l -0.12,-0.06 -0.06,-0.12 -0.12,-0.12 h 3.42" /><path
   inkscape:connector-curvature="0"
   id="path2398"
   style="fill:none;stroke:#000000;stroke-width:0.99975002;stroke-linecap:round;stroke-linejoin:round;stroke-miterlimit:4;stroke-dasharray:none;stroke-opacity:1"
   d="m 153.4912,700.27778 h -6.12" /><path
   d="m 154.0912,713.11778 h -6.12"
   style="fill:none;stroke:#000000;stroke-width:0.99975002;stroke-linecap:round;stroke-linejoin:round;stroke-miterlimit:4;stroke-dasharray:none;stroke-opacity:1"
   id="path2402"
   inkscape:connector-curvature="0" /><path
   inkscape:connector-curvature="0"
   id="path2406"
   style="fill:none;stroke:#000000;stroke-width:0.99975002;stroke-linecap:round;stroke-linejoin:round;stroke-miterlimit:4;stroke-dasharray:none;stroke-opacity:1"
   d="m 153.7912,724.09778 h -6.12" /><path
   d="m 154.3312,736.15778 h -6.12"
   style="fill:none;stroke:#000000;stroke-width:0.99975002;stroke-linecap:round;stroke-linejoin:round;stroke-miterlimit:4;stroke-dasharray:none;stroke-opacity:1"
   id="path2410"
   inkscape:connector-curvature="0" /><path
   inkscape:connector-curvature="0"
   id="path2414"
   style="fill:none;stroke:#000000;stroke-width:0.99975002;stroke-linecap:round;stroke-linejoin:round;stroke-miterlimit:4;stroke-dasharray:none;stroke-opacity:1"
   d="m 153.4912,677.17778 h -6.12" /><path
   d="m 154.3312,665.17778 h -6.12"
   style="fill:none;stroke:#000000;stroke-width:0.99975002;stroke-linecap:round;stroke-linejoin:round;stroke-miterlimit:4;stroke-dasharray:none;stroke-opacity:1"
   id="path2418"
   inkscape:connector-curvature="0" /><path
   inkscape:connector-curvature="0"
   id="path2422"
   style="fill:none;stroke:#000000;stroke-width:0.99975002;stroke-linecap:round;stroke-linejoin:round;stroke-miterlimit:4;stroke-dasharray:none;stroke-opacity:1"
   d="m 163.5712,692.05778 v -5.64" /><path
   d="m 176.6512,692.29778 v -5.58"
   style="fill:none;stroke:#000000;stroke-width:0.99975002;stroke-linecap:round;stroke-linejoin:round;stroke-miterlimit:4;stroke-dasharray:none;stroke-opacity:1"
   id="path2426"
   inkscape:connector-curvature="0" /><path
   inkscape:connector-curvature="0"
   id="path2430"
   style="fill:none;stroke:#000000;stroke-width:0.99975002;stroke-linecap:round;stroke-linejoin:round;stroke-miterlimit:4;stroke-dasharray:none;stroke-opacity:1"
   d="m 189.4312,691.27778 v -5.58" /><path
   d="m 137.4112,691.75778 v -5.58"
   style="fill:none;stroke:#000000;stroke-width:0.99975002;stroke-linecap:round;stroke-linejoin:round;stroke-miterlimit:4;stroke-dasharray:none;stroke-opacity:1"
   id="path2434"
   inkscape:connector-curvature="0" /><path
   inkscape:connector-curvature="0"
   id="path2438"
   style="fill:none;stroke:#000000;stroke-width:0.99975002;stroke-linecap:round;stroke-linejoin:round;stroke-miterlimit:4;stroke-dasharray:none;stroke-opacity:1"
   d="m 124.9312,692.05778 v -5.64" /><path
   d="m 112.9312,691.27778 v -5.58"
   style="fill:none;stroke:#000000;stroke-width:0.99975002;stroke-linecap:round;stroke-linejoin:round;stroke-miterlimit:4;stroke-dasharray:none;stroke-opacity:1"
   id="path2442"
   inkscape:connector-curvature="0" /><path
   inkscape:connector-curvature="0"
   id="path2446"
   style="fill:#000000;fill-opacity:1;fill-rule:evenodd;stroke:none"
   d="m 146.5912,697.57778 h -0.84 v 4.98 l -0.18,-0.12 c -0.413,-0.305 -0.857,-0.558 -1.32,-0.78 l -0.24,-0.06 v 0.78 l 0.36,0.12 c 0.543,0.389 1.16,0.713 1.56,1.26 l 0.12,0.18 h 0.54 v -6.36" /><path
   inkscape:connector-curvature="0"
   id="path2730"
   style="fill:#000000;fill-opacity:1;fill-rule:evenodd;stroke:none"
   d="m 78.131196,748.03778 0.78,-0.18 -0.06,-0.36 -0.18,-0.3 -0.18,-0.36 c -0.692,-0.634 -1.185,-0.688 -2.1,-0.54 l -0.48,0.06 -0.42,0.18 c -0.473,0.331 -0.952,0.882 -0.9,1.5 l -0.06,0.24 v 0.66 l 0.06,0.36 c 0.029,0.656 0.501,1.109 1.02,1.44 l 0.6,0.24 0.24,0.06 h 0.3 l 0.42,-0.06 0.36,-0.06 0.6,-0.24 0.24,-0.24 0.18,-0.24 0.12,-0.36 0.12,-0.3 -0.84,-0.12 -0.06,0.24 -0.36,0.36 -0.18,0.12 -0.18,0.06 h -0.72 l -0.18,-0.06 -0.3,-0.12 -0.36,-0.36 -0.12,-0.36 -0.12,-0.3 v -0.78 l 0.12,-0.36 0.12,-0.3 0.18,-0.24 0.18,-0.12 0.3,-0.12 0.18,-0.12 h 0.6 l 0.18,0.06 0.24,0.12 0.36,0.24 0.12,0.18 0.12,0.24 z m 6.06,1.98 h -4.62 v 0.78 h 4.62 z m 0,-1.92 h -4.62 v 0.72 h 4.62 z m 3.54,0.18 h -2.7 v 0.72 h 2.7 z m -2.7,0 z m 7.86,-1.26 v -0.72 h -4.62 v 0.12 l 0.06,0.12 v 0.18 c 0.194,0.324 0.349,0.672 0.6,0.96 l 0.24,0.18 0.24,0.24 c 0.873,0.605 1.387,1.141 2.16,1.8 l 0.18,0.3 0.12,0.18 0.12,0.3 c 0.224,1.39 -2.137,1.758 -2.58,0.54 l -0.12,-0.24 v -0.24 l -0.84,0.12 0.06,0.42 0.18,0.42 c 0.953,1.629 4.267,1.26 4.08,-0.96 l -0.06,-0.24 v -0.18 l -0.06,-0.18 c -0.208,-0.38 -0.471,-0.714 -0.78,-1.02 l -0.24,-0.3 -0.36,-0.24 c -0.51,-0.417 -1.117,-0.715 -1.5,-1.26 l -0.12,-0.06 -0.06,-0.12 -0.12,-0.12 h 3.42" /><g
   aria-label="y"
   transform="scale(1,-1)"
   style="font-style:normal;font-weight:normal;font-size:9.41431713px;line-height:1.25;font-family:sans-serif;letter-spacing:0px;word-spacing:0px;fill:#000000;fill-opacity:1;stroke:none;stroke-width:0.23535794"
   id="text4271"><path
     d="m 144.72446,-771.1584 q -0.35855,0.91936 -0.69872,1.19977 -0.34017,0.28041 -0.91017,0.28041 h -0.67574 v -0.70792 h 0.49646 q 0.34936,0 0.54243,-0.16548 0.19306,-0.16549 0.4275,-0.78146 l 0.1517,-0.38614 -2.08237,-5.06571 h 0.89638 l 1.6089,4.02683 1.60889,-4.02683 h 0.89638 z"
     style="stroke-width:0.23535794"
     id="path1218" /></g><g
   aria-label="x"
   transform="scale(1,-1)"
   style="font-style:normal;font-weight:normal;font-size:9.41431713px;line-height:1.25;font-family:sans-serif;letter-spacing:0px;word-spacing:0px;fill:#000000;fill-opacity:1;stroke:none;stroke-width:0.23535794"
   id="text4275"><path
     d="m 212.54427,-685.02754 -1.86172,2.50527 1.95825,2.64318 h -0.99751 l -1.49857,-2.02261 -1.49857,2.02261 h -0.99751 l 1.99962,-2.69374 -1.82954,-2.45471 h 0.99752 l 1.36526,1.83413 1.36526,-1.83413 z"
     style="stroke-width:0.23535794"
     id="path1215" /></g><path
   style="fill:none;stroke:#000000;stroke-width:0.60000002;stroke-linecap:butt;stroke-linejoin:miter;stroke-miterlimit:4;stroke-dasharray:2.40000006, 2.40000006;stroke-dashoffset:0;stroke-opacity:1"
   d="M 124.9312,699.55778 V 646.77912"
   id="path5929-3-6"
   inkscape:connector-curvature="0" /><path
   inkscape:connector-curvature="0"
   id="path2738"
   style="fill:none;stroke:#000000;stroke-width:0.99975002;stroke-linecap:round;stroke-linejoin:round;stroke-miterlimit:4;stroke-dasharray:none;stroke-opacity:1"
   d="m 289.3005,774.10708 -2.22,3.18 -2.16,-3.18" /><path
   d="m 287.0805,776.68708 v -134.28"
   style="fill:none;stroke:#000000;stroke-width:0.99975002;stroke-linecap:round;stroke-linejoin:round;stroke-miterlimit:4;stroke-dasharray:none;stroke-opacity:1"
   id="path2742"
   inkscape:connector-curvature="0" /><path
   inkscape:connector-curvature="0"
   id="path2746"
   style="fill:none;stroke:#000000;stroke-width:0.99975002;stroke-linecap:round;stroke-linejoin:round;stroke-miterlimit:4;stroke-dasharray:none;stroke-opacity:1"
   d="m 225.8205,683.32708 h 160.14" /><path
   d="m 383.2005,685.36708 3.42,-2.04 -3.42,-2.04"
   style="fill:none;stroke:#000000;stroke-width:0.99975002;stroke-linecap:round;stroke-linejoin:round;stroke-miterlimit:4;stroke-dasharray:none;stroke-opacity:1"
   id="path2750"
   inkscape:connector-curvature="0" /><path
   inkscape:connector-curvature="0"
   id="path2754"
   style="fill:none;stroke:#000000;stroke-width:0.99975002;stroke-linecap:round;stroke-linejoin:round;stroke-miterlimit:4;stroke-dasharray:none;stroke-opacity:1"
   d="m 237.4005,656.92708 2.52,0.54 c 24.62,5.677 40.183,18.792 57.9,35.88 l 1.98,1.92" /><path
   d="m 299.29027,695.6488 v 0.06 l -0.06,0.06 h -0.06 v 0.06 l -0.06,0.06 v 0.06 l -0.06,0.06 v 0.06 l -0.06,0.06 v 0.06 l -0.06,0.06 v 0.48 l 0.06,0.06 v 0.18 l 0.06,0.06 v 0.06 h 0.06 v 0.06 l 0.06,0.06 h 0.06 v 0.06 l 0.06,0.06 h 0.06 l 0.06,0.06 v 0.06 h 0.06 l 0.06,0.06 h 0.06 l 0.06,0.06 h 0.06 l 0.06,0.06 h 0.12 l 0.06,0.06 h 0.48 l 0.06,-0.06 h 0.18 l 0.06,-0.06 h 0.06 v -0.06 h 0.06 l 0.12,-0.12 h 0.06 l 0.06,-0.06 v -0.06 l 0.06,-0.06 h 0.06 l 0.06,-0.06 v -0.06 l 0.06,-0.06 v -0.06 l 0.06,-0.06 v -0.12 l 0.06,-0.06 v -0.48 l -0.06,-0.06 v -0.12 l -0.06,-0.06 v -0.06 h -0.06 v -0.06 l -0.12,-0.12 v -0.06 l -0.06,-0.06 h -0.06 l -0.06,-0.06 v -0.06 h -0.06 l -0.06,-0.06 h -0.06 l -0.06,-0.06 h -0.06 l -0.06,-0.06 h -0.12 l -0.06,-0.06 h -0.48 l -0.06,0.06 h -0.18 l -0.06,0.06 h -0.06 v 0.06 h -0.06 l -0.12,0.12 h -0.06 l -0.06,0.06"
   style="fill:none;stroke:#000000;stroke-width:0.99975002;stroke-linecap:round;stroke-linejoin:round;stroke-miterlimit:4;stroke-dasharray:none;stroke-opacity:1"
   id="path2758"
   inkscape:connector-curvature="0" /><path
   inkscape:connector-curvature="0"
   id="path2762"
   style="fill:#000000;fill-opacity:1;fill-rule:evenodd;stroke:#000000;stroke-width:0.06;stroke-linecap:round;stroke-linejoin:round;stroke-miterlimit:10;stroke-dasharray:none;stroke-opacity:1"
   d="m 298.64349,670.36708 -0.06,-0.06 v -0.54 l 0.06,-0.06 v -0.18 l 0.06,-0.06 v -0.06 l 0.06,-0.06 0.06,-0.12 v -0.06 l 0.18,-0.18 v -0.06 h 0.06 l 0.18,-0.18 h 0.12 l 0.12,-0.12 h 0.06 l 0.06,-0.06 h 0.12 l 0.06,-0.06 h 0.12 l 0.06,-0.06 h 0.6 l 0.06,0.06 h 0.18 l 0.06,0.06 h 0.06 l 0.06,0.06 0.12,0.06 h 0.06 l 0.06,0.06 0.12,0.12 h 0.06 l 0.06,0.06 h 0.06 l 0.06,0.06 0.06,0.12 v 0.06 l 0.06,0.06 0.06,0.06 v 0.06 l 0.06,0.06 v 0.12 l 0.06,0.06 v 0.12 l 0.06,0.06 v 0.54 l -0.06,0.06 v 0.18 l -0.06,0.06 v 0.06 l -0.06,0.06 -0.06,0.12 v 0.06 l -0.36,0.36 -0.06,0.06 h -0.12 l -0.12,0.12 h -0.06 l -0.06,0.06 h -0.12 l -0.06,0.06 h -0.12 l -0.06,0.06 h -0.6 l -0.06,-0.06 h -0.18 l -0.06,-0.06 h -0.06 l -0.06,-0.06 -0.12,-0.06 h -0.06 l -0.06,-0.06 -0.06,-0.06 -0.06,-0.06 h -0.06 l -0.12,-0.12 h -0.06 l -0.06,-0.12 v -0.06 l -0.06,-0.06 -0.06,-0.06 v -0.06 l -0.06,-0.06 v -0.12 l -0.06,-0.06 z" /><path
   inkscape:connector-curvature="0"
   id="path2766"
   style="fill:none;stroke:#000000;stroke-width:0.99975002;stroke-linecap:round;stroke-linejoin:round;stroke-miterlimit:4;stroke-dasharray:none;stroke-opacity:1"
   d="m 301.09452,670.89904 1.2,4.8 1.2,4.62 c 3.861,13.749 8.387,29.548 15.84,41.82 l 1.26,1.92 1.26,1.68 c 4.748,6.025 10.745,8.792 17.82,4.62 l 1.56,-0.96 1.5,-1.14" /><path
   inkscape:connector-curvature="0"
   id="path2770"
   style="fill:#000000;fill-opacity:1;fill-rule:evenodd;stroke:none"
   d="m 300.2805,674.62708 h -0.84 v 5.34 l -0.18,-0.18 c -0.502,-0.304 -0.835,-0.535 -1.38,-0.78 l -0.3,-0.06 v 0.78 l 0.42,0.18 c 0.538,0.361 1.262,0.76 1.62,1.32 l 0.12,0.24 h 0.54 v -6.84" /><path
   inkscape:connector-curvature="0"
   id="path2774"
   style="fill:none;stroke:#000000;stroke-width:0.06;stroke-linecap:round;stroke-linejoin:round;stroke-miterlimit:10;stroke-dasharray:none;stroke-opacity:1"
   d="m 300.2205,686.02709 v -6" /><path
   d="m 313.7205,686.02709 v -5.94"
   style="fill:none;stroke:#000000;stroke-width:0.375;stroke-linecap:round;stroke-linejoin:round;stroke-miterlimit:10;stroke-dasharray:none;stroke-opacity:1"
   id="path2778"
   inkscape:connector-curvature="0" /><path
   inkscape:connector-curvature="0"
   id="path2782"
   style="fill:none;stroke:#000000;stroke-width:0.375;stroke-linecap:round;stroke-linejoin:round;stroke-miterlimit:10;stroke-dasharray:none;stroke-opacity:1"
   d="m 326.7405,686.26709 v -5.94" /><path
   d="m 283.7205,695.56708 h 6.36"
   style="fill:none;stroke:#000000;stroke-width:0.375;stroke-linecap:round;stroke-linejoin:round;stroke-miterlimit:10;stroke-dasharray:none;stroke-opacity:1"
   id="path2882"
   inkscape:connector-curvature="0" /><path
   inkscape:connector-curvature="0"
   id="path2886"
   style="fill:none;stroke:#000000;stroke-width:0.375;stroke-linecap:round;stroke-linejoin:round;stroke-miterlimit:4;stroke-dasharray:none;stroke-opacity:1"
   d="m 283.7205,708.58708 h 6.36" /><path
   d="m 283.64348,670.12708 h 6.36"
   style="fill:none;stroke:#000000;stroke-width:0.375;stroke-linecap:round;stroke-linejoin:round;stroke-miterlimit:4;stroke-dasharray:none;stroke-opacity:1"
   id="path2890"
   inkscape:connector-curvature="0" /><path
   inkscape:connector-curvature="0"
   id="path2894"
   style="fill:none;stroke:#000000;stroke-width:0.375;stroke-linecap:round;stroke-linejoin:round;stroke-miterlimit:4;stroke-dasharray:none;stroke-opacity:1"
   d="m 284.03751,657.88708 h 6.36" /><path
   inkscape:connector-curvature="0"
   id="path2898"
   style="fill:#000000;fill-opacity:1;fill-rule:evenodd;stroke:none"
   d="m 278.5005,692.44708 h -0.84 v 5.34 l -0.18,-0.18 c -0.588,-0.425 -0.704,-0.531 -1.38,-0.84 l -0.24,-0.06 v 0.84 l 0.36,0.18 c 0.802,0.349 1.029,0.677 1.62,1.26 l 0.12,0.24 h 0.54 v -6.78" /><path
   inkscape:connector-curvature="0"
   id="path2902"
   style="fill:#000000;fill-opacity:1;fill-rule:evenodd;stroke:none"
   d="m 237.5205,735.40708 0.84,-0.18 -0.06,-0.36 -0.36,-0.72 c -0.777,-0.565 -1.286,-0.803 -2.28,-0.6 l -0.48,0.12 -0.42,0.18 -0.36,0.24 -0.12,0.18 -0.18,0.24 -0.06,0.18 -0.12,0.24 -0.06,0.24 v 0.24 l -0.06,0.3 v 0.66 l 0.06,0.42 c 0.047,0.634 0.493,1.179 1.02,1.5 l 0.6,0.24 0.3,0.06 h 0.36 l 0.42,-0.06 0.36,-0.06 0.6,-0.24 0.24,-0.24 0.24,-0.3 0.12,-0.36 0.12,-0.3 -0.9,-0.12 -0.06,0.24 -0.12,0.18 -0.12,0.06 -0.12,0.12 -0.18,0.12 -0.36,0.12 h -0.6 l -0.24,-0.12 -0.3,-0.12 -0.36,-0.36 -0.24,-0.72 v -0.84 c 0.227,-1.497 2.012,-1.784 2.7,-0.66 l 0.12,0.24 z m 6.3,2.1 h -4.8 v 0.84 h 4.8 z m 0,-2.04 h -4.8 v 0.78 h 4.8 z m 4.26,-1.92 h -0.84 v 5.34 l -0.18,-0.18 c -0.506,-0.392 -0.827,-0.492 -1.38,-0.78 l -0.24,-0.06 v 0.78 l 0.36,0.18 c 0.751,0.522 1.036,0.515 1.62,1.32 l 0.12,0.24 h 0.54 v -6.84" /><g
   aria-label=" "
   transform="scale(1,-1)"
   style="font-variant:normal;font-weight:normal;font-stretch:normal;font-size:10.99989986px;font-family:Calibri;-inkscape-font-specification:Calibri;writing-mode:lr-tb;fill:#000000;fill-opacity:1;fill-rule:nonzero;stroke:none;stroke-width:0.99999994"
   id="text2906" /><g
   aria-label="y"
   transform="scale(1,-1)"
   style="font-style:normal;font-weight:normal;font-size:9.41431713px;line-height:1.25;font-family:sans-serif;letter-spacing:0px;word-spacing:0px;fill:#000000;fill-opacity:1;stroke:none;stroke-width:0.23535794"
   id="text4247"><path
     d="m 281.44173,-771.39559 q -0.35855,0.91937 -0.69872,1.19978 -0.34017,0.2804 -0.91017,0.2804 h -0.67574 v -0.70791 h 0.49646 q 0.34936,0 0.54243,-0.16548 0.19306,-0.16549 0.4275,-0.78147 l 0.1517,-0.38613 -2.08237,-5.06571 h 0.89638 l 1.6089,4.02683 1.60889,-4.02683 h 0.89638 z"
     style="stroke-width:0.23535794"
     id="path1211" /></g><g
   aria-label="x"
   transform="scale(1,-1)"
   style="font-style:normal;font-weight:normal;font-size:9.41431713px;line-height:1.25;font-family:sans-serif;letter-spacing:0px;word-spacing:0px;fill:#000000;fill-opacity:1;stroke:none;stroke-width:0.23535794"
   id="text4251"><path
     d="m 386.31558,-680.15669 -1.86171,2.50527 1.95825,2.64318 h -0.99751 l -1.49857,-2.02261 -1.49857,2.02261 h -0.99751 l 1.99962,-2.69374 -1.82954,-2.45471 h 0.99751 l 1.36526,1.83413 1.36526,-1.83413 z"
     style="stroke-width:0.23535794"
     id="path1208" /></g><path
   style="fill:none;stroke:#000000;stroke-width:0.41993022;stroke-linecap:butt;stroke-linejoin:miter;stroke-miterlimit:4;stroke-dasharray:1.67972078, 1.67972078;stroke-dashoffset:0;stroke-opacity:1"
   d="M 300.19209,695.53579 V 669.68285"
   id="path5929-3-6-7"
   inkscape:connector-curvature="0" /></g></svg>