<?xml version="1.0" encoding="UTF-8" standalone="no"?>
<!-- Created with Inkscape (http://www.inkscape.org/) -->

<svg
   xmlns:dc="http://purl.org/dc/elements/1.1/"
   xmlns:cc="http://creativecommons.org/ns#"
   xmlns:rdf="http://www.w3.org/1999/02/22-rdf-syntax-ns#"
   xmlns:svg="http://www.w3.org/2000/svg"
   xmlns="http://www.w3.org/2000/svg"
   xmlns:sodipodi="http://sodipodi.sourceforge.net/DTD/sodipodi-0.dtd"
   xmlns:inkscape="http://www.inkscape.org/namespaces/inkscape"
   version="1.1"
   id="svg2"
   xml:space="preserve"
   width="450.39999"
   height="179.7227"
   viewBox="0 0 450.4 179.72269"
   sodipodi:docname="fig_1_ab.svg"
   inkscape:version="0.92.4 (unknown)"><metadata
     id="metadata8"><rdf:RDF><cc:Work
         rdf:about=""><dc:format>image/svg+xml</dc:format><dc:type
           rdf:resource="http://purl.org/dc/dcmitype/StillImage" /><dc:title /></cc:Work></rdf:RDF></metadata><defs
     id="defs6"><clipPath
       clipPathUnits="userSpaceOnUse"
       id="clipPath1254"><path
         d="m 299.46,390.32 h 6.6 v 14.64 h -6.6 z"
         id="path1252"
         inkscape:connector-curvature="0" /></clipPath><clipPath
       clipPathUnits="userSpaceOnUse"
       id="clipPath1310"><path
         d="m 319.92,314.18 h 15.18 v 14.64 h -15.18 z"
         id="path1308"
         inkscape:connector-curvature="0" /></clipPath><clipPath
       clipPathUnits="userSpaceOnUse"
       id="clipPath1326"><path
         d="m 310.2,314.18 h 6.6 v 14.64 h -6.6 z"
         id="path1324"
         inkscape:connector-curvature="0" /></clipPath><clipPath
       clipPathUnits="userSpaceOnUse"
       id="clipPath1338"><path
         d="m 247.74,314.18 h 12.48 v 14.64 h -12.48 z"
         id="path1336"
         inkscape:connector-curvature="0" /></clipPath><clipPath
       clipPathUnits="userSpaceOnUse"
       id="clipPath1390"><path
         d="m 319.92,244.82 h 15.18 v 14.64 h -15.18 z"
         id="path1388"
         inkscape:connector-curvature="0" /></clipPath><clipPath
       clipPathUnits="userSpaceOnUse"
       id="clipPath1406"><path
         d="m 310.2,244.82 h 6.6 v 14.64 h -6.6 z"
         id="path1404"
         inkscape:connector-curvature="0" /></clipPath><clipPath
       clipPathUnits="userSpaceOnUse"
       id="clipPath1418"><path
         d="m 247.74,244.82 h 12.48 v 14.64 h -12.48 z"
         id="path1416"
         inkscape:connector-curvature="0" /></clipPath><clipPath
       clipPathUnits="userSpaceOnUse"
       id="clipPath1470"><path
         d="m 319.86,175.46 h 8.58 v 14.64 h -8.58 z"
         id="path1468"
         inkscape:connector-curvature="0" /></clipPath><clipPath
       clipPathUnits="userSpaceOnUse"
       id="clipPath1482"><path
         d="m 310.32,175.46 h 6.6 v 14.64 h -6.6 z"
         id="path1480"
         inkscape:connector-curvature="0" /></clipPath><clipPath
       clipPathUnits="userSpaceOnUse"
       id="clipPath1494"><path
         d="m 247.8,175.46 h 12.48 V 190.1 H 247.8 Z"
         id="path1492"
         inkscape:connector-curvature="0" /></clipPath><clipPath
       clipPathUnits="userSpaceOnUse"
       id="clipPath1546"><path
         d="m 319.86,106.1 h 8.58 v 14.64 h -8.58 z"
         id="path1544"
         inkscape:connector-curvature="0" /></clipPath><clipPath
       clipPathUnits="userSpaceOnUse"
       id="clipPath1558"><path
         d="m 310.32,106.1 h 6.6 v 14.64 h -6.6 z"
         id="path1556"
         inkscape:connector-curvature="0" /></clipPath><clipPath
       clipPathUnits="userSpaceOnUse"
       id="clipPath1570"><path
         d="m 247.8,106.1 h 12.48 v 14.64 H 247.8 Z"
         id="path1568"
         inkscape:connector-curvature="0" /></clipPath></defs><sodipodi:namedview
     pagecolor="#ffffff"
     bordercolor="#666666"
     borderopacity="1"
     objecttolerance="10"
     gridtolerance="10"
     guidetolerance="10"
     inkscape:pageopacity="0"
     inkscape:pageshadow="2"
     inkscape:window-width="1299"
     inkscape:window-height="713"
     id="namedview4"
     showgrid="false"
     fit-margin-top="0"
     fit-margin-left="0"
     fit-margin-right="0"
     fit-margin-bottom="0"
     inkscape:zoom="0.84085505"
     inkscape:cx="142.34427"
     inkscape:cy="-22.681385"
     inkscape:window-x="67"
     inkscape:window-y="27"
     inkscape:window-maximized="1"
     inkscape:current-layer="g10" /><g
     id="g10"
     inkscape:groupmode="layer"
     inkscape:label="TP4 Matemática-2017"
     transform="matrix(1.3333333,0,0,-1.3333333,-66.49493,1037.706)"><path
   inkscape:connector-curvature="0"
   id="path18"
   style="fill:none;stroke:#000000;stroke-width:0.75;stroke-linecap:butt;stroke-linejoin:miter;stroke-miterlimit:4;stroke-dasharray:none;stroke-opacity:1"
   d="m 108.1912,774.46708 -1.98,3.12 -2.04,-3.12" /><path
   d="M 106.2112,776.92708 V 646.24709"
   style="fill:none;stroke:#000000;stroke-width:0.99975002;stroke-linecap:butt;stroke-linejoin:miter;stroke-miterlimit:4;stroke-dasharray:none;stroke-opacity:1"
   id="path22"
   inkscape:connector-curvature="0" /><path
   inkscape:connector-curvature="0"
   id="path26"
   style="fill:none;stroke:#000000;stroke-width:0.99975002;stroke-linecap:butt;stroke-linejoin:miter;stroke-miterlimit:4;stroke-dasharray:none;stroke-opacity:1"
   d="M 49.871199,685.24709 H 196.9912" /><path
   d="m 194.5312,687.22709 3.06,-1.98 -3.06,-1.98"
   style="fill:none;stroke:#000000;stroke-width:0.75;stroke-linecap:butt;stroke-linejoin:miter;stroke-miterlimit:4;stroke-dasharray:none;stroke-opacity:1"
   id="path30"
   inkscape:connector-curvature="0" /><path
   inkscape:connector-curvature="0"
   id="path34"
   style="fill:none;stroke:#000000;stroke-width:0.99975002;stroke-linecap:butt;stroke-linejoin:miter;stroke-miterlimit:4;stroke-dasharray:none;stroke-opacity:1"
   d="m 56.560509,702.59957 4.8,-1.92 4.56,-1.68 c 14.65,-4.619 28.575,-5.35899 41.460001,4.08 l 2.28,1.68 2.16,1.92 c 9.739,8.66 17.031,20.053 26.58,29.04 l 2.34,2.1 2.4,2.04" /><path
   d="m 143.4726,739.95312 -0.18,0.18 v 0.06 h -0.06 v 0.18 l -0.06,0.06 v 0.48 h 0.06 v 0.12 l 0.06,0.06 v 0.06 l 0.06,0.06 v 0.06 l 0.06,0.06 v 0.06 h 0.06 v 0.06 l 0.12,0.12 h 0.06 l 0.06,0.06 h 0.06 l 0.12,0.12 h 0.18 l 0.06,0.06 h 0.48 v -0.06 h 0.12 l 0.06,-0.06 h 0.12 l 0.06,-0.06 h 0.12 v -0.06 h 0.06 l 0.12,-0.12 v -0.06 l 0.06,-0.06 v -0.06 l 0.06,-0.06 v -0.06 l 0.06,-0.06 v -0.18 h 0.06 v -0.12 c 0,-0.1 0,-0.2 0,-0.3 v -0.06 l -0.06,-0.06 v -0.12 l -0.12,-0.12 v -0.18 h -0.06 v -0.06 l -0.12,-0.12 h -0.06 l -0.12,-0.12 -0.06,-0.06 h -0.06 l -0.06,-0.06 h -0.84 l -0.06,0.06 h -0.06 l -0.06,0.06 -0.06,0.06 h -0.06 v 0.06 h -0.06 l -0.12,0.12 v 0.06"
   style="fill:none;stroke:#000000;stroke-width:0.75;stroke-linecap:butt;stroke-linejoin:miter;stroke-miterlimit:4;stroke-dasharray:none;stroke-opacity:1"
   id="path38"
   inkscape:connector-curvature="0" /><path
   inkscape:connector-curvature="0"
   id="path42"
   style="fill:none;stroke:#000000;stroke-width:0.75;stroke-linecap:butt;stroke-linejoin:miter;stroke-miterlimit:4;stroke-dasharray:none;stroke-opacity:1"
   d="m 145.18888,667.24709 v 0.06 l -0.06,0.06 v 0.06 l -0.06,0.06 v 0.06 l -0.06,0.06 h -0.06 v 0.12 h -0.06 l -0.18,0.18 h -0.3 l -0.06,0.06 h -0.42 l -0.06,-0.06 h -0.24 l -0.06,-0.06 h -0.06 v -0.06 h -0.06 l -0.06,-0.06 v -0.06 h -0.06 l -0.06,-0.06 v -0.06 l -0.06,-0.06 -0.06,-0.06 -0.06,-0.06 v -0.12 l -0.06,-0.06 v -0.06 l -0.06,-0.06 v -0.48 l 0.06,-0.06 v -0.06 l 0.06,-0.06 v -0.06 l 0.06,-0.06 v -0.06 l 0.06,-0.06 v -0.06 l 0.06,-0.06 h 0.06 v -0.06 l 0.06,-0.06 h 0.06 l 0.06,-0.06 v -0.06 l 0.06,-0.06 h 0.3 l 0.06,-0.06 h 0.42 l 0.06,0.06 h 0.24 l 0.06,0.06 h 0.06 l 0.06,0.06 h 0.06 l 0.06,0.06 v 0.06 l 0.06,0.06 v 0.06 l 0.06,0.06 0.06,0.06 0.06,0.06 v 0.12 l 0.06,0.06 v 0.06 l 0.06,0.06 v 0.48 l -0.06,0.06 v 0.06 l -0.06,0.06" /><path
   d="m 144.9112,667.18709 2.1,0.96 c 21.704,10.098 31.112,30.13899 35.7,52.49999 l 0.48,2.4"
   style="fill:none;stroke:#000000;stroke-width:0.99975002;stroke-linecap:butt;stroke-linejoin:miter;stroke-miterlimit:4;stroke-dasharray:none;stroke-opacity:1"
   id="path46"
   inkscape:connector-curvature="0" /><path
   inkscape:connector-curvature="0"
   id="path418"
   style="fill:#000000;fill-opacity:1;fill-rule:evenodd;stroke:#000000;stroke-width:0.06;stroke-linecap:butt;stroke-linejoin:miter;stroke-miterlimit:10;stroke-dasharray:none;stroke-opacity:1"
   d="m 145.76655,648.14111 v -0.24 l -0.06,-0.12 v -0.12 l -0.06,-0.06 v -0.06 l -0.06,-0.06 v -0.06 l -0.06,-0.12 -0.12,-0.12 v -0.06 l -0.18,-0.18 h -0.12 v -0.06 l -0.06,-0.06 -0.12,-0.06 h -0.06 l -0.06,-0.06 h -0.06 l -0.12,-0.06 h -0.12 l -0.12,-0.06 h -0.42 l -0.12,0.06 h -0.12 l -0.06,0.06 h -0.06 l -0.06,0.06 h -0.06 l -0.12,0.06 -0.12,0.12 h -0.12 l -0.18,0.18 v 0.06 l -0.06,0.06 v 0.06 l -0.06,0.12 v 0.06 l -0.06,0.06 v 0.06 l -0.06,0.06 v 0.12 l -0.06,0.12 v 0.42 l 0.06,0.12 v 0.12 l 0.06,0.12 v 0.06 l 0.06,0.06 v 0.06 l 0.06,0.12 v 0.06 h 0.06 v 0.06 l 0.06,0.06 0.06,0.06 0.06,0.06 0.06,0.06 h 0.06 l 0.06,0.06 0.06,0.06 0.12,0.06 h 0.06 l 0.06,0.06 h 0.06 l 0.06,0.06 h 0.12 l 0.12,0.06 h 0.42 l 0.12,-0.06 h 0.12 l 0.12,-0.06 h 0.06 l 0.06,-0.06 h 0.06 l 0.12,-0.06 0.06,-0.06 v -0.06 h 0.06 l 0.06,-0.06 0.06,-0.06 0.06,-0.06 0.06,-0.06 v -0.06 h 0.06 l 0.06,-0.06 0.06,-0.12 v -0.06 l 0.06,-0.06 v -0.06 l 0.06,-0.12 v -0.12 l 0.06,-0.12 z" /><path
   inkscape:connector-curvature="0"
   id="path422"
   style="fill:#000000;fill-opacity:1;fill-rule:evenodd;stroke:none"
   d="m 142.15119,676.48708 v -0.78 h -4.38 v 0.18 l 0.06,0.12 v 0.18 l 0.06,0.12 0.12,0.18 0.12,0.24 0.06,0.24 0.66,0.66 c 0.823,0.678 1.288,1.062 2.04,1.86 l 0.18,0.3 0.06,0.18 0.12,0.3 v 0.42 l -0.06,0.18 -0.12,0.24 -0.12,0.18 -0.48,0.24 -0.18,0.06 c -0.647,0.025 -0.892,0.016 -1.38,-0.48 l -0.06,-0.24 -0.12,-0.24 v -0.24 l -0.78,0.12 0.06,0.42 0.12,0.42 c 0.76,1.556 4.103,1.408 3.9,-1.02 l -0.06,-0.24 v -0.18 c -0.26,-1.145 -2.145,-2.322 -2.94,-3.18 l -0.06,-0.12 -0.12,-0.12 h 3.3" /><path
   inkscape:connector-curvature="0"
   id="path426"
   style="fill:none;stroke:#000000;stroke-width:0.375;stroke-linecap:butt;stroke-linejoin:miter;stroke-miterlimit:4;stroke-dasharray:none;stroke-opacity:1"
   d="m 109.10016,703.60708 h -5.88" /><path
   inkscape:connector-curvature="0"
   id="path430"
   style="fill:#000000;fill-opacity:1;fill-rule:evenodd;stroke:none;stroke-width:0.375;stroke-miterlimit:4;stroke-dasharray:none"
   d="m 99.911199,701.98708 h -0.78 v 5.22 l -0.18,-0.18 c -0.429,-0.291 -0.786,-0.55 -1.26,-0.78 l -0.24,-0.06 v 0.78 l 0.36,0.18 c 1.113,0.72 0.582,0.315 1.5,1.26 l 0.12,0.24 h 0.48 v -6.66" /><path
   inkscape:connector-curvature="0"
   id="path434"
   style="fill:none;stroke:#000000;stroke-width:0.375;stroke-linecap:butt;stroke-linejoin:miter;stroke-miterlimit:4;stroke-dasharray:none;stroke-opacity:1"
   d="m 108.89419,739.96708 h -5.82" /><path
   d="m 109.10016,721.66708 h -5.88"
   style="fill:none;stroke:#000000;stroke-width:0.375;stroke-linecap:butt;stroke-linejoin:miter;stroke-miterlimit:4;stroke-dasharray:none;stroke-opacity:1"
   id="path438"
   inkscape:connector-curvature="0" /><path
   inkscape:connector-curvature="0"
   id="path442"
   style="fill:none;stroke:#000000;stroke-width:0.375;stroke-linecap:butt;stroke-linejoin:miter;stroke-miterlimit:4;stroke-dasharray:none;stroke-opacity:1"
   d="m 108.92821,666.76708 h -5.82" /><path
   d="m 124.3312,687.88708 v -5.82"
   style="fill:none;stroke:#000000;stroke-width:0.375;stroke-linecap:butt;stroke-linejoin:miter;stroke-miterlimit:4;stroke-dasharray:none;stroke-opacity:1"
   id="path446"
   inkscape:connector-curvature="0" /><path
   inkscape:connector-curvature="0"
   id="path450"
   style="fill:none;stroke:#000000;stroke-width:0.375;stroke-linecap:butt;stroke-linejoin:miter;stroke-miterlimit:4;stroke-dasharray:none;stroke-opacity:1"
   d="m 144.2512,687.64708 v -5.82" /><path
   d="m 108.92821,647.93604 h -5.82"
   style="fill:none;stroke:#000000;stroke-width:0.375;stroke-linecap:butt;stroke-linejoin:miter;stroke-miterlimit:4;stroke-dasharray:none;stroke-opacity:1"
   id="path5783"
   inkscape:connector-curvature="0" /><path
   inkscape:connector-curvature="0"
   id="path454"
   style="fill:#000000;fill-opacity:1;fill-rule:evenodd;stroke:none;stroke-width:0.99975002;stroke-miterlimit:4;stroke-dasharray:none"
   d="m 58.3312,735.70708 0.78,-0.18 -0.06,-0.42 -0.18,-0.3 c -0.917,-1.886 -4.155,-0.984 -3.9,1.14 v 0.66 c -0.166,2.151 2.715,2.914 3.78,1.32 l 0.24,-0.72 -0.84,-0.06 -0.06,0.18 -0.12,0.18 -0.06,0.12 -0.12,0.12 -0.18,0.12 -0.18,0.06 h -0.66 c -0.481,-0.048 -0.838,-0.461 -0.96,-0.9 l -0.12,-0.36 v -0.84 l 0.12,-0.3 0.12,-0.36 0.36,-0.36 0.48,-0.24 h 0.54 l 0.18,0.06 0.24,0.12 0.18,0.12 0.12,0.18 0.12,0.12 0.12,0.24 z m 5.82,2.04 h -4.44 v 0.84003 h 4.44 z m 0,-1.98 h -4.44 v 0.77997 h 4.44 z m 5.16,-1.14 v -0.78 h -4.38 v 0.18 l 0.06,0.12 v 0.18 l 0.06,0.06 0.24,0.48 0.06,0.24 0.66,0.66 c 0.823,0.678 1.288,1.062 2.04,1.86 l 0.18,0.3 0.06,0.18 0.12,0.3 v 0.24 c -0.069,0.656 -0.033,0.533 -0.54,0.9 l -0.24,0.12 -0.18,0.06 c -0.869,0.018 -0.74,0.011 -1.38,-0.48 l -0.06,-0.24 -0.12,-0.3 v -0.18 l -0.78,0.12 0.06,0.42 0.18,0.36 c 0.718,1.812 4.157,1.246 3.84,-0.96 l -0.06,-0.24 v -0.18 c -0.26,-1.171 -2.146,-2.336 -2.94,-3.18 l -0.06,-0.12 -0.06,-0.12 h 3.24" /><g
   aria-label=" "
   transform="scale(1,-1)"
   style="font-variant:normal;font-weight:normal;font-stretch:normal;font-size:10.99989986px;font-family:Calibri;-inkscape-font-specification:Calibri;writing-mode:lr-tb;fill:#000000;fill-opacity:1;fill-rule:nonzero;stroke:none;stroke-width:0.99999994"
   id="text458" />
<path
   inkscape:connector-curvature="0"
   id="path462"
   style="fill:none;stroke:#000000;stroke-width:0.99974996;stroke-linecap:butt;stroke-linejoin:miter;stroke-miterlimit:4;stroke-dasharray:none;stroke-opacity:1"
   d="M 266.9512,774.34708 V 647.38709" /><path
   d="m 268.9312,770.98708 -1.98,3 -1.92,-3"
   style="fill:none;stroke:#000000;stroke-width:0.99974996;stroke-linecap:butt;stroke-linejoin:miter;stroke-miterlimit:4;stroke-dasharray:none;stroke-opacity:1"
   id="path466"
   inkscape:connector-curvature="0" /><path
   inkscape:connector-curvature="0"
   id="path470"
   style="fill:none;stroke:#000000;stroke-width:0.99974996;stroke-linecap:butt;stroke-linejoin:miter;stroke-miterlimit:4;stroke-dasharray:none;stroke-opacity:1"
   d="m 213.0112,685.78709 h 142.2" /><path
   d="m 351.6112,687.58709 3.06,-1.8 -3.06,-1.98"
   style="fill:none;stroke:#000000;stroke-width:0.99974996;stroke-linecap:butt;stroke-linejoin:miter;stroke-miterlimit:4;stroke-dasharray:none;stroke-opacity:1"
   id="path474"
   inkscape:connector-curvature="0" /><path
   inkscape:connector-curvature="0"
   id="path478"
   style="fill:none;stroke:#000000;stroke-width:0.99974996;stroke-linecap:butt;stroke-linejoin:miter;stroke-miterlimit:4;stroke-dasharray:none;stroke-opacity:1"
   d="m 387.08655,697.00848 -4.26,1.08 -4.08,0.9 c -10.569,1.668 -21.924,1.00001 -31.38,-4.44 l -2.52,-1.26 -2.28,-1.62 -2.16,-1.62 -2.1,-1.56 -4.26,-3.6 -3.9,-3.72 -4.14,-3.72 -3.9,-3.9 -4.08,-3.6 -4.44,-3.35999 -2.1,-1.62 -2.34,-1.38 -2.46,-1.26 -2.64,-1.26" /><path
   d="m 303.83445,661.30709 v -1.08 h -0.18 v -0.12 h -0.18 v -0.18 h -0.54 v -0.18 h -0.36 v 0.18 h -0.36 v 0.18 h -0.36 v 0.3 h -0.18 v 0.9 l 0.18,0.18 v 0.18 h 0.18 v 0.18 h 0.36 v 0.18 h 0.72 l 0.18,-0.18 h 0.18 v -0.18 h 0.18 v -0.18 h 0.18 v -0.18"
   style="fill:none;stroke:#000000;stroke-width:0.60000002;stroke-linecap:butt;stroke-linejoin:miter;stroke-miterlimit:4;stroke-dasharray:none;stroke-opacity:1"
   id="path482"
   inkscape:connector-curvature="0" /><path
   inkscape:connector-curvature="0"
   id="path486"
   style="fill:none;stroke:#000000;stroke-width:0.99974996;stroke-linecap:butt;stroke-linejoin:miter;stroke-miterlimit:4;stroke-dasharray:none;stroke-opacity:1"
   d="m 248.0205,697.63778 1.98,-3.9 c 8.857,-18.27 28.349,-27.93499 47.4,-31.86 l 4.44,-0.9" /><path
   d="m 248.2005,697.63778 h 0.18 v 0.18 h 0.18 v 0.18 h 0.18 v 0.54 h 0.18 v 0.18 h -0.18 v 0.48 h -0.18 v 0.18 h -0.18 v 0.18 h -0.18 v 0.18 h -0.84 v -0.18 h -0.36 v -0.18 h -0.18 v -0.18 l -0.18,-0.18 v -0.84 h 0.18 v -0.18 h 0.18 v -0.18 h 0.18 v -0.18 h 0.36 l 0.18,-0.18 h 0.18 v 0.18 h 0.3"
   style="fill:none;stroke:#000000;stroke-width:0.60000002;stroke-linecap:butt;stroke-linejoin:miter;stroke-miterlimit:4;stroke-dasharray:none;stroke-opacity:1"
   id="path490"
   inkscape:connector-curvature="0" /><path
   inkscape:connector-curvature="0"
   id="path834"
   style="fill:#1f1a17;fill-opacity:1;fill-rule:evenodd;stroke:none"
   d="m 301.5712,743.74708 v 0.72 h 0.18 v 0.36 h 0.18 v 0.18 h 0.18 l 0.18,0.18 h 0.36 v 0.18 h 0.72 v -0.18 h 0.36 l 0.18,-0.18 h 0.18 v -0.18 h 0.18 v -0.36 h 0.12 v -0.18 c 0,-0.3 0,-0.6 0,-0.9 v -0.18 h -0.12 v -0.3 h -0.18 v -0.18 h -0.18 v -0.18 h -0.36 v -0.18 h -1.08 v 0.18 h -0.36 v 0.18 h -0.18 v 0.18 h -0.18 v 0.3 h -0.18 v 0.54" /><g
   aria-label="3"
   transform="scale(0.99746653,-1.0025399)"
   style="font-variant:normal;font-weight:normal;font-stretch:normal;font-size:8.86967087px;font-family:Arial;-inkscape-font-specification:ArialMT;writing-mode:lr-tb;fill:#1f1a17;fill-opacity:1;fill-rule:nonzero;stroke:none;stroke-width:0.99746644"
   id="text838"><path
     d="m 302.5367,-677.05667 q 0,0.84453 -0.53703,1.30793 -0.53703,0.46341 -1.53314,0.46341 -0.92681,0 -1.48116,-0.41577 -0.55003,-0.42009 -0.65397,-1.23863 l 0.80555,-0.0736 q 0.15591,1.08273 1.32958,1.08273 0.589,0 0.92248,-0.29017 0.33781,-0.29017 0.33781,-0.86185 0,-0.49805 -0.38545,-0.77523 -0.38112,-0.28151 -1.10438,-0.28151 h -0.44175 v -0.67562 h 0.42443 q 0.64097,0 0.99178,-0.27718 0.35513,-0.2815 0.35513,-0.77523 0,-0.48939 -0.29017,-0.7709 -0.28584,-0.28583 -0.85319,-0.28583 -0.51537,0 -0.83586,0.26418 -0.31615,0.26418 -0.36813,0.74491 l -0.78389,-0.0606 q 0.0866,-0.74924 0.61932,-1.16934 0.53703,-0.4201 1.37722,-0.4201 0.91815,0 1.42487,0.42876 0.51104,0.42443 0.51104,1.18667 0,0.58467 -0.32914,0.95279 -0.32482,0.3638 -0.94847,0.49373 v 0.0173 q 0.68428,0.0736 1.0654,0.45907 0.38112,0.38545 0.38112,0.97012 z"
     style="stroke-width:0.99746644"
     id="path1071" /></g>
<path
   inkscape:connector-curvature="0"
   id="path842"
   style="fill:none;stroke:#000000;stroke-width:0.375;stroke-linecap:round;stroke-linejoin:round;stroke-miterlimit:4;stroke-dasharray:none;stroke-opacity:1"
   d="m 278.1712,688.30708 v -5.7" /><path
   d="m 290.9512,687.94708 v -5.52"
   style="fill:none;stroke:#000000;stroke-width:0.375;stroke-linecap:round;stroke-linejoin:round;stroke-miterlimit:4;stroke-dasharray:none;stroke-opacity:1"
   id="path846"
   inkscape:connector-curvature="0" /><path
   inkscape:connector-curvature="0"
   id="path850"
   style="fill:none;stroke:#000000;stroke-width:0.375;stroke-linecap:round;stroke-linejoin:round;stroke-miterlimit:4;stroke-dasharray:none;stroke-opacity:1"
   d="m 303.0112,688.30708 v -5.7" /><path
   d="m 264.3112,697.18708 h 5.52"
   style="fill:none;stroke:#000000;stroke-width:0.375;stroke-linecap:round;stroke-linejoin:round;stroke-miterlimit:4;stroke-dasharray:none;stroke-opacity:1"
   id="path854"
   inkscape:connector-curvature="0" /><path
   inkscape:connector-curvature="0"
   id="path858"
   style="fill:none;stroke:#000000;stroke-width:0.375;stroke-linecap:round;stroke-linejoin:round;stroke-miterlimit:4;stroke-dasharray:none;stroke-opacity:1"
   d="m 264.3112,708.88708 h 5.52" /><path
   d="m 264.8512,673.84708 h 5.46"
   style="fill:none;stroke:#000000;stroke-width:0.375;stroke-linecap:round;stroke-linejoin:round;stroke-miterlimit:4;stroke-dasharray:none;stroke-opacity:1"
   id="path862"
   inkscape:connector-curvature="0" /><path
   inkscape:connector-curvature="0"
   id="path866"
   style="fill:none;stroke:#000000;stroke-width:0.375;stroke-linecap:round;stroke-linejoin:round;stroke-miterlimit:4;stroke-dasharray:none;stroke-opacity:1"
   d="m 264.4912,720.28708 h 5.64" /><path
   d="m 264.3112,732.58708 h 5.52"
   style="fill:none;stroke:#000000;stroke-width:0.375;stroke-linecap:round;stroke-linejoin:round;stroke-miterlimit:4;stroke-dasharray:none;stroke-opacity:1"
   id="path870"
   inkscape:connector-curvature="0" /><path
   inkscape:connector-curvature="0"
   id="path874"
   style="fill:none;stroke:#000000;stroke-width:0.375;stroke-linecap:round;stroke-linejoin:round;stroke-miterlimit:4;stroke-dasharray:none;stroke-opacity:1"
   d="m 263.9512,745.00708 h 5.7" /><g
   aria-label="1"
   transform="scale(0.99746653,-1.0025399)"
   style="font-variant:normal;font-weight:normal;font-stretch:normal;font-size:8.86967087px;font-family:Arial;-inkscape-font-specification:ArialMT;writing-mode:lr-tb;fill:#1f1a17;fill-opacity:1;fill-rule:nonzero;stroke:none;stroke-width:0.99746644"
   id="text878"><path
     d="m 260.66549,-692.18927 v -0.66263 h 1.55479 v -4.69469 l -1.37723,0.98312 v -0.73625 l 1.44219,-0.99178 h 0.71893 v 5.4396 h 1.4855 v 0.66263 z"
     style="stroke-width:0.99746644"
     id="path1068" /></g>
<path
   inkscape:connector-curvature="0"
   id="path882"
   style="fill:none;stroke:#1f1a17;stroke-width:0.375;stroke-linecap:round;stroke-linejoin:round;stroke-miterlimit:4;stroke-dasharray:none;stroke-opacity:1"
   d="m 264.3112,661.42709 h 5.52" /><g
   aria-label="c=3"
   transform="scale(0.99746653,-1.0025399)"
   style="font-variant:normal;font-weight:normal;font-stretch:normal;font-size:8.86967087px;font-family:Arial;-inkscape-font-specification:ArialMT;writing-mode:lr-tb;fill:#1f1a17;fill-opacity:1;fill-rule:nonzero;stroke:none;stroke-width:0.99975002;stroke-miterlimit:4;stroke-dasharray:none"
   id="text886"><path
     d="m 221.84119,-741.53441 q 0,0.93548 0.2945,1.38589 0.2945,0.45041 0.88783,0.45041 0.41577,0 0.69295,-0.2252 0.2815,-0.22521 0.34647,-0.69295 l 0.78822,0.052 q -0.0909,0.67562 -0.57601,1.0784 -0.48506,0.40277 -1.22997,0.40277 -0.98312,0 -1.50282,-0.61932 -0.51538,-0.62365 -0.51538,-1.81464 0,-1.18234 0.51971,-1.80166 0.5197,-0.62364 1.48982,-0.62364 0.71893,0 1.191,0.37245 0.4764,0.37246 0.59766,1.02642 l -0.80121,0.0606 q -0.0606,-0.38978 -0.30749,-0.61932 -0.24687,-0.22954 -0.70161,-0.22954 -0.61932,0 -0.89649,0.41144 -0.27718,0.41143 -0.27718,1.38588 z"
     style="stroke-width:0.99975002;stroke-miterlimit:4;stroke-dasharray:none"
     id="path1061" /><path
     d="m 225.52344,-742.87698 v -0.64098 h 4.30924 v 0.64098 z m 0,2.21741 v -0.64097 h 4.30924 v 0.64097 z"
     style="stroke-width:0.99975002;stroke-miterlimit:4;stroke-dasharray:none"
     id="path1063" /><path
     d="m 234.81865,-740.85446 q 0,0.84453 -0.53703,1.30793 -0.53703,0.46341 -1.53314,0.46341 -0.92681,0 -1.48116,-0.41577 -0.55003,-0.42009 -0.65397,-1.23863 l 0.80555,-0.0736 q 0.15591,1.08273 1.32958,1.08273 0.58901,0 0.92248,-0.29017 0.33781,-0.29017 0.33781,-0.86185 0,-0.49805 -0.38545,-0.77523 -0.38111,-0.28151 -1.10437,-0.28151 h -0.44175 v -0.67562 h 0.42442 q 0.64098,0 0.99178,-0.27718 0.35513,-0.2815 0.35513,-0.77523 0,-0.48939 -0.29017,-0.7709 -0.28584,-0.28583 -0.85319,-0.28583 -0.51537,0 -0.83586,0.26418 -0.31615,0.26418 -0.36812,0.74491 l -0.7839,-0.0606 q 0.0866,-0.74924 0.61932,-1.16934 0.53703,-0.4201 1.37723,-0.4201 0.91815,0 1.42486,0.42876 0.51105,0.42443 0.51105,1.18667 0,0.58467 -0.32915,0.95279 -0.32482,0.3638 -0.94847,0.49372 v 0.0173 q 0.68428,0.0736 1.0654,0.45907 0.38112,0.38545 0.38112,0.97012 z"
     style="stroke-width:0.99975002;stroke-miterlimit:4;stroke-dasharray:none"
     id="path1065" /></g>
<g
   aria-label=" "
   transform="scale(1,-1)"
   style="font-variant:normal;font-weight:normal;font-stretch:normal;font-size:10.99989986px;font-family:Calibri;-inkscape-font-specification:Calibri;writing-mode:lr-tb;fill:#000000;fill-opacity:1;fill-rule:nonzero;stroke:none;stroke-width:0.99999994"
   id="text890" />
<g
   aria-label="y"
   transform="scale(1,-1)"
   style="font-style:normal;font-weight:normal;font-size:9.41431713px;line-height:1.25;font-family:sans-serif;letter-spacing:0px;word-spacing:0px;fill:#000000;fill-opacity:1;stroke:none;stroke-width:0.23535794"
   id="text4223"><path
     d="m 99.356394,-772.13167 q -0.358553,0.91937 -0.698719,1.19977 -0.340166,0.28041 -0.910173,0.28041 h -0.675735 v -0.70791 h 0.496458 q 0.34936,0 0.542427,-0.16549 0.193067,-0.16548 0.427505,-0.78146 l 0.151696,-0.38613 -2.082366,-5.06572 h 0.896382 l 1.608893,4.02683 1.608888,-4.02683 h 0.89639 z"
     style="stroke-width:0.23535794"
     id="path1057" /></g>
<g
   aria-label="x"
   transform="scale(1,-1)"
   style="font-style:normal;font-weight:normal;font-size:9.41431713px;line-height:1.25;font-family:sans-serif;letter-spacing:0px;word-spacing:0px;fill:#000000;fill-opacity:1;stroke:none;stroke-width:0.23535794"
   id="text4227"><path
     d="m 198.23026,-680.89278 -1.86172,2.50528 1.95825,2.64318 h -0.99751 l -1.49857,-2.02261 -1.49857,2.02261 h -0.99751 l 1.99962,-2.69375 -1.82954,-2.45471 h 0.99751 l 1.36526,1.83414 1.36526,-1.83414 z"
     style="stroke-width:0.23535794"
     id="path1054" /></g>
<g
   aria-label="y"
   transform="scale(1,-1)"
   style="font-style:normal;font-weight:normal;font-size:9.41431713px;line-height:1.25;font-family:sans-serif;letter-spacing:0px;word-spacing:0px;fill:#000000;fill-opacity:1;stroke:none;stroke-width:0.23535794"
   id="text4231"><path
     d="m 258.96443,-767.63167 q -0.35855,0.91937 -0.69872,1.19977 -0.34016,0.28041 -0.91017,0.28041 h -0.67573 v -0.70791 h 0.49645 q 0.34936,0 0.54243,-0.16549 0.19307,-0.16548 0.42751,-0.78146 l 0.15169,-0.38613 -2.08236,-5.06572 h 0.89638 l 1.60889,4.02683 1.60889,-4.02683 h 0.89639 z"
     style="stroke-width:0.23535794"
     id="path1051" /></g>
<g
   aria-label="x"
   transform="scale(1,-1)"
   style="font-style:normal;font-weight:normal;font-size:9.41431713px;line-height:1.25;font-family:sans-serif;letter-spacing:0px;word-spacing:0px;fill:#000000;fill-opacity:1;stroke:none;stroke-width:0.23535794"
   id="text4235"><path
     d="m 354.83826,-682.39278 -1.86172,2.50528 1.95825,2.64318 h -0.99751 l -1.49857,-2.02261 -1.49857,2.02261 h -0.99751 l 1.99962,-2.69375 -1.82954,-2.45471 h 0.99752 l 1.36526,1.83414 1.36526,-1.83414 z"
     style="stroke-width:0.23535794"
     id="path1048" /></g>
<path
   style="fill:none;stroke:#000000;stroke-width:0.74780911;stroke-linecap:butt;stroke-linejoin:miter;stroke-miterlimit:4;stroke-dasharray:2.99123613, 2.99123613;stroke-dashoffset:0;stroke-opacity:1"
   d="M 302.81516,743.29393 V 661.30838"
   id="path5929-3-6-7-7"
   inkscape:connector-curvature="0" /><path
   style="fill:none;stroke:#000000;stroke-width:0.60000002;stroke-linecap:butt;stroke-linejoin:miter;stroke-miterlimit:4;stroke-dasharray:2.40000006, 2.40000006;stroke-dashoffset:0;stroke-opacity:1"
   d="M 144.2512,739.2526 V 667.79388"
   id="path5929-3-6-7-5"
   inkscape:connector-curvature="0" /><path
   style="fill:none;stroke:#000000;stroke-width:0.60000002;stroke-linecap:butt;stroke-linejoin:miter;stroke-miterlimit:4;stroke-dasharray:2.40000006, 2.40000006;stroke-dashoffset:0;stroke-opacity:1"
   d="M 144.24424,665.68709 V 648.66398"
   id="path5929-3-6-7-35"
   inkscape:connector-curvature="0" /><g
   aria-label="a)"
   transform="scale(1,-1)"
   style="font-style:normal;font-weight:normal;font-size:12.97472286px;line-height:1.25;font-family:sans-serif;letter-spacing:0px;word-spacing:0px;fill:#000000;fill-opacity:1;stroke:none;stroke-width:1.5;stroke-miterlimit:4;stroke-dasharray:none"
   id="text8456"><path
     d="m 56.436442,-769.43891 q -1.412775,0 -1.957612,0.3231 -0.544837,0.3231 -0.544837,1.10234 0,0.62086 0.40546,0.98831 0.411796,0.36111 1.115016,0.36111 0.969303,0 1.552151,-0.68421 0.589185,-0.69055 0.589185,-1.83091 v -0.25974 z m 2.32506,-0.48149 v 4.04827 h -1.165697 v -1.077 q -0.399125,0.6462 -0.994645,0.95663 -0.595519,0.30409 -1.457122,0.30409 -1.089674,0 -1.735876,-0.60819 -0.639867,-0.61452 -0.639867,-1.64084 0,-1.19738 0.79825,-1.80557 0.804585,-0.60819 2.394749,-0.60819 h 1.634511 v -0.11403 q 0,-0.80459 -0.532167,-1.24173 -0.525831,-0.44347 -1.482463,-0.44347 -0.60819,0 -1.184704,0.14571 -0.576513,0.14572 -1.10868,0.43714 v -1.077 q 0.639867,-0.24708 1.241722,-0.36745 0.601855,-0.12671 1.172033,-0.12671 1.539481,0 2.299719,0.79825 0.760237,0.79825 0.760237,2.42009 z"
     style="stroke-width:1.5;stroke-miterlimit:4;stroke-dasharray:none"
     id="path1043" /><path
     d="m 60.985198,-775.71721 h 1.01365 q 0.950297,1.49513 1.41911,2.92692 0.475149,1.43178 0.475149,2.84455 0,1.41911 -0.475149,2.85723 -0.468813,1.43811 -1.41911,2.92691 h -1.01365 q 0.842596,-1.45078 1.254392,-2.88256 0.41813,-1.43812 0.41813,-2.90158 0,-1.46346 -0.41813,-2.8889 -0.411796,-1.42545 -1.254392,-2.88257 z"
     style="stroke-width:1.5;stroke-miterlimit:4;stroke-dasharray:none"
     id="path1045" /></g>
<g
   aria-label="b)"
   transform="scale(1,-1)"
   style="font-style:normal;font-weight:normal;font-size:12.97472286px;line-height:1.25;font-family:sans-serif;letter-spacing:0px;word-spacing:0px;fill:#000000;fill-opacity:1;stroke:none;stroke-width:1.5;stroke-miterlimit:4;stroke-dasharray:none"
   id="text8460"><path
     d="m 220.30537,-769.41357 q 0,-1.28607 -0.53217,-2.01463 -0.52583,-0.7349 -1.45079,-0.7349 -0.92495,0 -1.45712,0.7349 -0.52583,0.72856 -0.52583,2.01463 0,1.28607 0.52583,2.02096 0.53217,0.72856 1.45712,0.72856 0.92496,0 1.45079,-0.72856 0.53217,-0.73489 0.53217,-2.02096 z m -3.96591,-2.47711 q 0.36745,-0.63353 0.92496,-0.93763 0.56384,-0.31043 1.34308,-0.31043 1.29241,0 2.09699,1.02632 0.81092,1.02633 0.81092,2.69885 0,1.67252 -0.81092,2.69884 -0.80458,1.02632 -2.09699,1.02632 -0.77924,0 -1.34308,-0.30409 -0.55751,-0.31043 -0.92496,-0.94396 v 1.06433 h -1.17203 v -9.85775 h 1.17203 z"
     style="stroke-width:1.5;stroke-miterlimit:4;stroke-dasharray:none"
     id="path1038" /><path
     d="m 223.26396,-775.71721 h 1.01365 q 0.9503,1.49513 1.41911,2.92692 0.47515,1.43178 0.47515,2.84455 0,1.41911 -0.47515,2.85723 -0.46881,1.43811 -1.41911,2.92691 h -1.01365 q 0.8426,-1.45078 1.25439,-2.88256 0.41813,-1.43812 0.41813,-2.90158 0,-1.46346 -0.41813,-2.8889 -0.41179,-1.42545 -1.25439,-2.88257 z"
     style="stroke-width:1.5;stroke-miterlimit:4;stroke-dasharray:none"
     id="path1040" /></g>
</g></svg>