<?xml version="1.0" encoding="UTF-8" standalone="no"?>
<!-- Created with Inkscape (http://www.inkscape.org/) -->

<svg
   xmlns:dc="http://purl.org/dc/elements/1.1/"
   xmlns:cc="http://creativecommons.org/ns#"
   xmlns:rdf="http://www.w3.org/1999/02/22-rdf-syntax-ns#"
   xmlns:svg="http://www.w3.org/2000/svg"
   xmlns="http://www.w3.org/2000/svg"
   xmlns:sodipodi="http://sodipodi.sourceforge.net/DTD/sodipodi-0.dtd"
   xmlns:inkscape="http://www.inkscape.org/namespaces/inkscape"
   version="1.1"
   id="svg2"
   xml:space="preserve"
   width="450.39999"
   height="179.7227"
   viewBox="0 0 450.4 179.72269"
   sodipodi:docname="fig_1_cd.svg"
   inkscape:version="0.92.4 (unknown)"><metadata
     id="metadata8"><rdf:RDF><cc:Work
         rdf:about=""><dc:format>image/svg+xml</dc:format><dc:type
           rdf:resource="http://purl.org/dc/dcmitype/StillImage" /><dc:title /></cc:Work></rdf:RDF></metadata><defs
     id="defs6"><clipPath
   clipPathUnits="userSpaceOnUse"
   id="clipPath1254"><path
     d="m 299.46,390.32 h 6.6 v 14.64 h -6.6 z"
     id="path1252"
     inkscape:connector-curvature="0" /></clipPath><clipPath
   clipPathUnits="userSpaceOnUse"
   id="clipPath1310"><path
     d="m 319.92,314.18 h 15.18 v 14.64 h -15.18 z"
     id="path1308"
     inkscape:connector-curvature="0" /></clipPath><clipPath
   clipPathUnits="userSpaceOnUse"
   id="clipPath1326"><path
     d="m 310.2,314.18 h 6.6 v 14.64 h -6.6 z"
     id="path1324"
     inkscape:connector-curvature="0" /></clipPath><clipPath
   clipPathUnits="userSpaceOnUse"
   id="clipPath1338"><path
     d="m 247.74,314.18 h 12.48 v 14.64 h -12.48 z"
     id="path1336"
     inkscape:connector-curvature="0" /></clipPath><clipPath
   clipPathUnits="userSpaceOnUse"
   id="clipPath1390"><path
     d="m 319.92,244.82 h 15.18 v 14.64 h -15.18 z"
     id="path1388"
     inkscape:connector-curvature="0" /></clipPath><clipPath
   clipPathUnits="userSpaceOnUse"
   id="clipPath1406"><path
     d="m 310.2,244.82 h 6.6 v 14.64 h -6.6 z"
     id="path1404"
     inkscape:connector-curvature="0" /></clipPath><clipPath
   clipPathUnits="userSpaceOnUse"
   id="clipPath1418"><path
     d="m 247.74,244.82 h 12.48 v 14.64 h -12.48 z"
     id="path1416"
     inkscape:connector-curvature="0" /></clipPath><clipPath
   clipPathUnits="userSpaceOnUse"
   id="clipPath1470"><path
     d="m 319.86,175.46 h 8.58 v 14.64 h -8.58 z"
     id="path1468"
     inkscape:connector-curvature="0" /></clipPath><clipPath
   clipPathUnits="userSpaceOnUse"
   id="clipPath1482"><path
     d="m 310.32,175.46 h 6.6 v 14.64 h -6.6 z"
     id="path1480"
     inkscape:connector-curvature="0" /></clipPath><clipPath
   clipPathUnits="userSpaceOnUse"
   id="clipPath1494"><path
     d="m 247.8,175.46 h 12.48 V 190.1 H 247.8 Z"
     id="path1492"
     inkscape:connector-curvature="0" /></clipPath><clipPath
   clipPathUnits="userSpaceOnUse"
   id="clipPath1546"><path
     d="m 319.86,106.1 h 8.58 v 14.64 h -8.58 z"
     id="path1544"
     inkscape:connector-curvature="0" /></clipPath><clipPath
   clipPathUnits="userSpaceOnUse"
   id="clipPath1558"><path
     d="m 310.32,106.1 h 6.6 v 14.64 h -6.6 z"
     id="path1556"
     inkscape:connector-curvature="0" /></clipPath><clipPath
   clipPathUnits="userSpaceOnUse"
   id="clipPath1570"><path
     d="m 247.8,106.1 h 12.48 v 14.64 H 247.8 Z"
     id="path1568"
     inkscape:connector-curvature="0" /></clipPath>




</defs><sodipodi:namedview
     pagecolor="#ffffff"
     bordercolor="#666666"
     borderopacity="1"
     objecttolerance="10"
     gridtolerance="10"
     guidetolerance="10"
     inkscape:pageopacity="0"
     inkscape:pageshadow="2"
     inkscape:window-width="1299"
     inkscape:window-height="713"
     id="namedview4"
     showgrid="false"
     fit-margin-top="0"
     fit-margin-left="0"
     fit-margin-right="0"
     fit-margin-bottom="0"
     inkscape:zoom="1.1891486"
     inkscape:cx="275.02434"
     inkscape:cy="80.249492"
     inkscape:window-x="67"
     inkscape:window-y="27"
     inkscape:window-maximized="1"
     inkscape:current-layer="g10" /><g
     id="g10"
     inkscape:groupmode="layer"
     inkscape:label="TP4 Matemática-2017"
     transform="matrix(1.3333333,0,0,-1.3333333,-66.49493,1037.706)">


<path
   inkscape:connector-curvature="0"
   id="path1515"
   style="font-style:normal;font-weight:normal;font-size:12.97472286px;line-height:1.25;font-family:sans-serif;letter-spacing:0px;word-spacing:0px;fill:#000000;fill-opacity:1;stroke:none;stroke-width:0.32436809"
   d="m 58.31803,772.69526 v -1.08967 q -0.494154,0.27242 -0.994644,0.40546 -0.494154,0.13938 -1.000979,0.13938 -1.134022,0 -1.761218,-0.72223 -0.627196,-0.71589 -0.627196,-2.01463 0,-1.29874 0.627196,-2.02096 0.627196,-0.71589 1.761218,-0.71589 0.506825,0 1.000979,0.13304 0.50049,0.13937 0.994644,0.41179 v -1.077 q -0.487819,-0.22807 -1.01365,-0.34211 -0.519496,-0.11403 -1.10868,-0.11403 -1.602834,0 -2.546796,1.00731 -0.943962,1.00732 -0.943962,2.71785 0,1.73588 0.950297,2.73052 0.956633,0.99465 2.616485,0.99465 0.538502,0 1.051662,-0.11404 0.513161,-0.1077 0.994644,-0.32944 z" /><path
   inkscape:connector-curvature="0"
   id="path1517"
   style="font-style:normal;font-weight:normal;font-size:12.97472286px;line-height:1.25;font-family:sans-serif;letter-spacing:0px;word-spacing:0px;fill:#000000;fill-opacity:1;stroke:none;stroke-width:0.32436809"
   d="m 60.174277,775.71721 h 1.013651 q 0.950297,-1.49513 1.41911,-2.92692 0.475148,-1.43178 0.475148,-2.84455 0,-1.41911 -0.475148,-2.85723 -0.468813,-1.43811 -1.41911,-2.92691 h -1.013651 q 0.842597,1.45078 1.254392,2.88256 0.418131,1.43812 0.418131,2.90158 0,1.46346 -0.418131,2.8889 -0.411795,1.42545 -1.254392,2.88257 z" /><path
   inkscape:connector-curvature="0"
   id="path1510"
   style="font-style:normal;font-weight:normal;font-size:12.97472286px;line-height:1.25;font-family:sans-serif;letter-spacing:0px;word-spacing:0px;fill:#000000;fill-opacity:1;stroke:none;stroke-width:0.32436809"
   d="m 233.3809,771.89068 v 3.8392 h 1.1657 v -9.85775 h -1.1657 v 1.06433 q -0.36745,-0.63353 -0.93129,-0.94396 -0.55751,-0.30409 -1.34309,-0.30409 -1.28607,0 -2.09699,1.02632 -0.80458,1.02632 -0.80458,2.69884 0,1.67252 0.80458,2.69885 0.81092,1.02632 2.09699,1.02632 0.78558,0 1.34309,-0.31043 0.56384,-0.3041 0.93129,-0.93763 z m -3.97224,-2.47711 q 0,-1.28607 0.52583,-2.02096 0.53217,-0.72856 1.45712,-0.72856 0.92496,0 1.45713,0.72856 0.53216,0.73489 0.53216,2.02096 0,1.28607 -0.53216,2.01463 -0.53217,0.7349 -1.45713,0.7349 -0.92495,0 -1.45712,-0.7349 -0.52583,-0.72856 -0.52583,-2.01463 z" /><path
   inkscape:connector-curvature="0"
   id="path1512"
   style="font-style:normal;font-weight:normal;font-size:12.97472286px;line-height:1.25;font-family:sans-serif;letter-spacing:0px;word-spacing:0px;fill:#000000;fill-opacity:1;stroke:none;stroke-width:0.32436809"
   d="m 236.76396,775.71721 h 1.01365 q 0.9503,-1.49513 1.41911,-2.92692 0.47515,-1.43178 0.47515,-2.84455 0,-1.41911 -0.47515,-2.85723 -0.46881,-1.43811 -1.41911,-2.92691 h -1.01365 q 0.8426,1.45078 1.25439,2.88256 0.41813,1.43812 0.41813,2.90158 0,1.46346 -0.41813,2.8889 -0.41179,1.42545 -1.25439,2.88257 z" /><path
   inkscape:connector-curvature="0"
   id="path894"
   style="fill:none;stroke:#000000;stroke-width:0.99975002;stroke-linecap:round;stroke-linejoin:round;stroke-miterlimit:4;stroke-dasharray:none;stroke-opacity:1"
   d="m 108.0112,774.94708 -1.98,3.06 -1.98,-3.06" /><path
   d="m 106.0312,777.40708 v -129.12"
   style="fill:none;stroke:#000000;stroke-width:0.99975002;stroke-linecap:round;stroke-linejoin:round;stroke-miterlimit:4;stroke-dasharray:none;stroke-opacity:1"
   id="path898"
   inkscape:connector-curvature="0" /><path
   inkscape:connector-curvature="0"
   id="path902"
   style="fill:none;stroke:#000000;stroke-width:0.99975002;stroke-linecap:round;stroke-linejoin:round;stroke-miterlimit:4;stroke-dasharray:none;stroke-opacity:1"
   d="m 50.2912,690.28708 h 144.96" /><path
   d="m 192.7912,692.26708 3.06,-1.98 -3.06,-1.98"
   style="fill:none;stroke:#000000;stroke-width:0.99975002;stroke-linecap:round;stroke-linejoin:round;stroke-miterlimit:4;stroke-dasharray:none;stroke-opacity:1"
   id="path906"
   inkscape:connector-curvature="0" /><path
   inkscape:connector-curvature="0"
   id="path910"
   style="fill:none;stroke:#000000;stroke-width:0.99975002;stroke-linecap:round;stroke-linejoin:round;stroke-miterlimit:4;stroke-dasharray:none;stroke-opacity:1"
   d="m 208.2712,716.14708 -4.32,0.96 c -41.776,7.673 -33.981,-48.087 -59.52,-62.16 l -2.64,-1.26" /><path
   inkscape:connector-curvature="0"
   id="path914"
   style="fill:#000000;fill-opacity:1;fill-rule:evenodd;stroke:#000000;stroke-width:0.06;stroke-linecap:round;stroke-linejoin:round;stroke-miterlimit:10;stroke-dasharray:none;stroke-opacity:1"
   d="m 142.3312,652.24708 v -0.06 h -0.18 l -0.06,-0.06 h -0.06 c -0.16,0 -0.32,0 -0.48,0 l -0.06,0.06 h -0.18 l -0.06,0.06 h -0.06 l -0.06,0.06 -0.12,0.06 -0.06,0.06 -0.06,0.06 -0.06,0.06 h -0.06 l -0.06,0.06 h -0.06 l -0.06,0.06 -0.06,0.12 v 0.06 l -0.06,0.06 v 0.12 l -0.06,0.12 -0.06,0.06 v 0.12 l -0.06,0.06 v 0.54 l 0.06,0.06 v 0.18 l 0.06,0.06 v 0.06 l 0.06,0.06 v 0.12 l 0.18,0.18 v 0.06 l 0.12,0.12 0.06,0.06 0.12,0.06 h 0.06 l 0.06,0.06 h 0.06 l 0.12,0.06 0.06,0.06 h 0.18 l 0.06,0.06 h 0.54 l 0.06,-0.06 h 0.18 v -0.06 h 0.06 l 0.06,-0.06 h 0.18 l 0.12,-0.12 0.06,-0.06 h 0.06 l 0.12,-0.12 v -0.06 l 0.06,-0.12 v -0.06 l 0.06,-0.06 h 0.06 v -0.06 l 0.06,-0.12 0.06,-0.06 v -0.18 l 0.06,-0.06 v -0.54 l -0.06,-0.06 v -0.12 l -0.06,-0.06 v -0.06 l -0.12,-0.12 v -0.12 l -0.12,-0.12 v -0.12 h -0.06 l -0.12,-0.12 -0.12,-0.06 h -0.06 l -0.12,-0.12 h -0.06 z" /><path
   inkscape:connector-curvature="0"
   id="path918"
   style="fill:none;stroke:#000000;stroke-width:0.99974996;stroke-linecap:round;stroke-linejoin:round;stroke-miterlimit:4;stroke-dasharray:none;stroke-opacity:1"
   d="m 74.291194,694.54708 2.94,-0.72 2.94,-0.48 c 13.344,-2.001 25.820006,2.097 35.700006,11.22 l 2.34,2.34 2.28,2.52 c 12.363,14.832 17.17101,34.358 19.2,53.16 l 0.48,5.64 0.3,6" /><path
   inkscape:connector-curvature="0"
   id="path1458"
   style="fill:#000000;fill-opacity:1;fill-rule:evenodd;stroke:none"
   d="m 134.9512,683.20708 0.78,0.12 0.12,-0.24 0.12,-0.3 0.18,-0.36 0.18,-0.12 0.24,-0.12 0.18,-0.06 h 0.6 l 0.48,0.24 0.18,0.18 0.18,0.12 0.12,0.24 0.06,0.24 c 0.18,1.059 -0.672,1.715 -1.56,1.44 h -0.06 l -0.18,-0.06 0.06,0.84 h 0.12 c 0.959,0.099 1.388,0.259 1.26,1.32 l -0.12,0.12 -0.12,0.12 c -0.594,0.52 -1.403,0.369 -1.8,-0.3 l -0.12,-0.24 -0.06,-0.24 -0.78,0.12 0.12,0.42 0.18,0.3 c 0.447,1.061 1.938,1.319 2.82,0.66 l 0.18,-0.18 0.18,-0.12 c 0.387,-0.559 0.472,-1.636 -0.18,-2.04 l -0.18,-0.18 -0.18,-0.12 h 0.24 l 0.3,-0.12 c 0.867,-0.774 0.943,-1.55 0.36,-2.58 l -0.24,-0.36 -0.36,-0.24 c -0.984,-0.607 -2.64,-0.45 -3.06,0.78 l -0.18,0.36 -0.06,0.36" /><path
   inkscape:connector-curvature="0"
   id="path1462"
   style="fill:none;stroke:#000000;stroke-width:0.375;stroke-linecap:round;stroke-linejoin:round;stroke-miterlimit:10;stroke-dasharray:none;stroke-opacity:1"
   d="m 102.9712,702.10708 h 5.76" /><path
   d="m 102.9112,714.64708 h 5.76"
   style="fill:none;stroke:#000000;stroke-width:0.375;stroke-linecap:round;stroke-linejoin:round;stroke-miterlimit:4;stroke-dasharray:none;stroke-opacity:1"
   id="path1466"
   inkscape:connector-curvature="0" /><path
   inkscape:connector-curvature="0"
   id="path1470"
   style="fill:none;stroke:#000000;stroke-width:0.375;stroke-linecap:round;stroke-linejoin:round;stroke-miterlimit:4;stroke-dasharray:none;stroke-opacity:1"
   d="m 103.2112,676.90708 h 5.76" /><path
   d="m 103.5112,665.38708 h 5.76"
   style="fill:none;stroke:#000000;stroke-width:0.375;stroke-linecap:round;stroke-linejoin:round;stroke-miterlimit:4;stroke-dasharray:none;stroke-opacity:1"
   id="path1474"
   inkscape:connector-curvature="0" /><path
   inkscape:connector-curvature="0"
   id="path1478"
   style="fill:none;stroke:#000000;stroke-width:0.375;stroke-linecap:round;stroke-linejoin:round;stroke-miterlimit:4;stroke-dasharray:none;stroke-opacity:1"
   d="m 103.4512,653.26708 h 5.76" /><path
   inkscape:connector-curvature="0"
   id="path5929-3-6-7-6"
   d="M 141.7005,778.00652 V 654.0792"
   style="fill:none;stroke:#000000;stroke-width:0.60000002;stroke-linecap:butt;stroke-linejoin:miter;stroke-miterlimit:4;stroke-dasharray:2.40000006, 2.40000006;stroke-dashoffset:0;stroke-opacity:1" /><path
   inkscape:connector-curvature="0"
   id="path1482"
   style="fill:#000000;fill-opacity:1;fill-rule:evenodd;stroke:none"
   d="m 99.731199,698.98708 h -0.78 v 5.1 l -0.12,-0.12 c -0.893,-0.611 -0.216,-0.316 -1.26,-0.78 l -0.24,-0.06 v 0.78 l 0.3,0.12 c 0.857,0.61 0.816,0.438 1.5,1.26 l 0.12,0.24 h 0.48 v -6.54" /><path
   inkscape:connector-curvature="0"
   id="path1486"
   style="fill:none;stroke:#000000;stroke-width:0.375;stroke-linecap:round;stroke-linejoin:round;stroke-miterlimit:4;stroke-dasharray:none;stroke-opacity:1"
   d="m 117.3712,686.86708 v 5.76" /><path
   d="m 129.9112,686.86708 v 5.76"
   style="fill:none;stroke:#000000;stroke-width:0.375;stroke-linecap:round;stroke-linejoin:round;stroke-miterlimit:4;stroke-dasharray:none;stroke-opacity:1"
   id="path1490"
   inkscape:connector-curvature="0" /><path
   inkscape:connector-curvature="0"
   id="path1494"
   style="fill:none;stroke:#000000;stroke-width:0.375;stroke-linecap:round;stroke-linejoin:round;stroke-miterlimit:4;stroke-dasharray:none;stroke-opacity:1"
   d="m 141.6712,687.16708 v 5.76" /><path
   d="m 153.9112,686.86708 v 5.76"
   style="fill:none;stroke:#000000;stroke-width:0.375;stroke-linecap:round;stroke-linejoin:round;stroke-miterlimit:4;stroke-dasharray:none;stroke-opacity:1"
   id="path1498"
   inkscape:connector-curvature="0" /><path
   inkscape:connector-curvature="0"
   id="path1502"
   style="fill:none;stroke:#000000;stroke-width:0.375;stroke-linecap:round;stroke-linejoin:round;stroke-miterlimit:4;stroke-dasharray:none;stroke-opacity:1"
   d="m 166.5712,687.40708 v 5.76" /><path
   inkscape:connector-curvature="0"
   id="path1506"
   style="fill:#000000;fill-opacity:1;fill-rule:evenodd;stroke:none"
   d="m 65.891194,742.30708 0.78,-0.12 -0.06,-0.42 -0.18,-0.3 -0.12,-0.36 c -0.64,-0.493 -1.182,-0.835 -2.04,-0.6 l -0.42,0.12 -0.42,0.18 -0.3,0.24 -0.12,0.18 -0.18,0.24 -0.18,0.36 v 0.48 l -0.06,0.3 v 0.66 l 0.06,0.36 v 0.36 l 0.12,0.24 0.18,0.3 0.36,0.36 0.24,0.18 0.3,0.18 0.24,0.06 0.3,0.06 h 0.24 l 0.42,-0.06 0.6,-0.12 0.24,-0.18 0.48,-0.48 0.06,-0.36 0.12,-0.3 -0.78,-0.12 -0.06,0.24 -0.36,0.36 -0.18,0.12 -0.12,0.06 -0.18,0.06 h -0.48 l -0.48,-0.24 -0.36,-0.36 -0.12,-0.36 -0.12,-0.3 v -0.84 l 0.12,-0.3 0.12,-0.36 0.18,-0.24 0.18,-0.12 0.48,-0.24 h 0.54 l 0.18,0.06 0.54,0.36 0.12,0.18 z m 5.76,2.04 h -4.38 v 0.83997 h 4.38 z m 0,-1.98 h -4.38 v 0.77997 h 4.38 z m 0.96,-0.06 0.72,0.12 0.12,-0.24 0.12,-0.3 c 0.338,-0.941 1.718,-0.806 2.22,-0.12 l 0.12,0.24 0.06,0.24 v 0.54 l -0.06,0.24 -0.12,0.24 -0.12,0.12 -0.24,0.18 -0.24,0.12 -0.18,0.06 h -0.42 l -0.12,-0.06 h -0.12 l -0.18,-0.06 0.06,0.84 h 0.12 c 0.905,0.034 1.48,0.309 1.26,1.32 l -0.24,0.24 c -0.673,0.558 -1.296,0.342 -1.8,-0.3 l -0.12,-0.24 -0.06,-0.24 -0.78,0.12 0.12,0.42 0.36,0.6 0.18,0.24 0.6,0.36 0.3,0.06 h 0.9 l 0.24,-0.06 0.24,-0.12 0.18,-0.12 0.18,-0.18 0.18,-0.12 c 0.387,-0.553 0.509,-1.667 -0.18,-2.04 l -0.18,-0.18 -0.18,-0.12 0.24,-0.06 0.3,-0.06 c 0.859,-0.668 0.929,-1.668 0.36,-2.58 l -0.24,-0.36 -0.36,-0.24 c -0.991,-0.637 -2.602,-0.409 -3.06,0.78 l -0.18,0.36 v 0.36" /><path
   d="m 100.08446,772.49973 q -0.358551,-0.91936 -0.698721,-1.19977 -0.34016,-0.28041 -0.91017,-0.28041 h -0.675734 v 0.70792 h 0.496454 q 0.34936,0 0.54243,0.16548 0.19307,0.16549 0.42751,0.78146 l 0.15169,0.38614 -2.082364,5.06571 h 0.896383 l 1.608891,-4.02683 1.608891,4.02683 h 0.89639 z"
   style="font-style:normal;font-weight:normal;font-size:9.41431713px;line-height:1.25;font-family:sans-serif;letter-spacing:0px;word-spacing:0px;fill:#000000;fill-opacity:1;stroke:none;stroke-width:0.23535794"
   id="path1503"
   inkscape:connector-curvature="0" /><path
   d="m 196.40425,686.36881 -1.86172,-2.50527 1.95825,-2.64318 h -0.99751 l -1.49857,2.02261 -1.49857,-2.02261 h -0.99751 l 1.99962,2.69374 -1.82954,2.45471 h 0.99752 l 1.36526,-1.83413 1.36526,1.83413 z"
   style="font-style:normal;font-weight:normal;font-size:9.41431713px;line-height:1.25;font-family:sans-serif;letter-spacing:0px;word-spacing:0px;fill:#000000;fill-opacity:1;stroke:none;stroke-width:0.23535794"
   id="path1507"
   inkscape:connector-curvature="0" /><path
   inkscape:connector-curvature="0"
   id="path1514"
   style="fill:none;stroke:#000000;stroke-width:0.99975002;stroke-linecap:round;stroke-linejoin:round;stroke-miterlimit:4;stroke-dasharray:none;stroke-opacity:1"
   d="m 281.7712,770.08708 -1.92,2.94 -1.86,-2.94" /><path
   d="m 279.8512,772.42708 v -123.96"
   style="fill:none;stroke:#000000;stroke-width:0.99975002;stroke-linecap:round;stroke-linejoin:round;stroke-miterlimit:4;stroke-dasharray:none;stroke-opacity:1"
   id="path1518"
   inkscape:connector-curvature="0" /><path
   inkscape:connector-curvature="0"
   id="path1522"
   style="fill:none;stroke:#000000;stroke-width:0.99975002;stroke-linecap:round;stroke-linejoin:round;stroke-miterlimit:4;stroke-dasharray:none;stroke-opacity:1"
   d="m 226.5112,686.20708 h 139.44" /><path
   d="m 363.6112,688.12708 2.94,-1.92 -2.94,-1.86"
   style="fill:none;stroke:#000000;stroke-width:0.99975002;stroke-linecap:round;stroke-linejoin:round;stroke-miterlimit:4;stroke-dasharray:none;stroke-opacity:1"
   id="path1526"
   inkscape:connector-curvature="0" /><path
   inkscape:connector-curvature="0"
   id="path1530"
   style="fill:#000000;fill-opacity:1;fill-rule:evenodd;stroke:none"
   d="m 326.75725,674.43173 v 1.5 h -2.76 v 0.72 l 2.94,4.02 h 0.6 v -4.02 h 0.78 v -0.72 h -0.78 v -1.5 z m 0,2.22 v 2.52 l -1.86,-2.52 h 1.86" /><path
   inkscape:connector-curvature="0"
   id="path1534"
   style="fill:none;stroke:#000000;stroke-width:0.99974996;stroke-linecap:round;stroke-linejoin:round;stroke-miterlimit:4;stroke-dasharray:none;stroke-opacity:1"
   d="m 380.29116,658.30708 -0.54,5.34 c -7.00301,50.932 -51.256,14.96299 -52.14001,94.56 l 0.06,8.34" /><path
   inkscape:connector-curvature="0"
   id="path2074"
   style="fill:#000000;fill-opacity:1;fill-rule:evenodd;stroke:#000000;stroke-width:0.06;stroke-linecap:round;stroke-linejoin:round;stroke-miterlimit:10;stroke-dasharray:none;stroke-opacity:1"
   d="m 326.7712,696.28708 0.12,0.06 0.3,0.3 h 0.06 l 0.06,0.06 v 0.06 l 0.06,0.06 v 0.06 l 0.06,0.06 v 0.06 l 0.06,0.06 v 0.06 l 0.06,0.06 v 0.18 l 0.06,0.06 v 0.42 l -0.06,0.06 v 0.12 l -0.06,0.12 v 0.06 l -0.12,0.12 v 0.06 l -0.06,0.06 v 0.06 l -0.06,0.06 -0.06,0.06 -0.12,0.12 h -0.06 l -0.06,0.06 -0.06,0.06 -0.06,0.06 h -0.06 l -0.12,0.06 h -0.06 l -0.06,0.06 h -0.12 l -0.06,0.06 h -0.42 l -0.12,-0.06 c -0.267,0.028 -0.214,-0.118 -0.42,-0.18 h -0.06 l -0.06,-0.06 -0.06,-0.06 h -0.06 v -0.06 c -0.1,-0.1 -0.2,-0.2 -0.3,-0.3 v -0.06 h -0.06 v -0.06 l -0.06,-0.12 v -0.06 c -0.009,-0.277 -0.09,-0.258 -0.06,-0.66 l 0.06,-0.12 v -0.24 l 0.06,-0.06 0.06,-0.12 v -0.06 l 0.18,-0.18 h 0.06 l 0.06,-0.06 v -0.06 l 0.18,-0.18 h 0.06 l 0.06,-0.06 h 0.06 l 0.06,-0.06 h 0.3 l 0.06,-0.06 h 0.42 l 0.06,0.06 h 0.3 z" /><path
   inkscape:connector-curvature="0"
   id="path2078"
   style="fill:none;stroke:#000000;stroke-width:0.99975002;stroke-linecap:round;stroke-linejoin:round;stroke-miterlimit:4;stroke-dasharray:none;stroke-opacity:1"
   d="m 326.1112,697.60708 -87.78,-42.84" /><path
   d="m 303.3112,682.96708 v 5.52"
   style="fill:none;stroke:#000000;stroke-width:0.99975002;stroke-linecap:round;stroke-linejoin:round;stroke-miterlimit:4;stroke-dasharray:none;stroke-opacity:1"
   id="path2082"
   inkscape:connector-curvature="0" /><path
   inkscape:connector-curvature="0"
   id="path2086"
   style="fill:none;stroke:#000000;stroke-width:0.99975002;stroke-linecap:round;stroke-linejoin:round;stroke-miterlimit:4;stroke-dasharray:none;stroke-opacity:1"
   d="m 290.9512,683.26708 v 5.46" /><path
   d="m 314.6512,682.96708 v 5.52"
   style="fill:none;stroke:#000000;stroke-width:0.99975002;stroke-linecap:round;stroke-linejoin:round;stroke-miterlimit:4;stroke-dasharray:none;stroke-opacity:1"
   id="path2090"
   inkscape:connector-curvature="0" /><path
   inkscape:connector-curvature="0"
   id="path2094"
   style="fill:none;stroke:#000000;stroke-width:0.99975002;stroke-linecap:round;stroke-linejoin:round;stroke-miterlimit:4;stroke-dasharray:none;stroke-opacity:1"
   d="m 326.1712,682.72708 v 5.52" /><path
   d="m 282.6712,697.30708 h -5.52"
   style="fill:none;stroke:#000000;stroke-width:0.99975002;stroke-linecap:round;stroke-linejoin:round;stroke-miterlimit:4;stroke-dasharray:none;stroke-opacity:1"
   id="path2098"
   inkscape:connector-curvature="0" /><path
   inkscape:connector-curvature="0"
   id="path2102"
   style="fill:none;stroke:#000000;stroke-width:0.99975002;stroke-linecap:round;stroke-linejoin:round;stroke-miterlimit:4;stroke-dasharray:none;stroke-opacity:1"
   d="m 282.3712,674.62708 h -5.52" /><path
   d="m 283.3312,708.88708 h -5.52"
   style="fill:none;stroke:#000000;stroke-width:0.99975002;stroke-linecap:round;stroke-linejoin:round;stroke-miterlimit:4;stroke-dasharray:none;stroke-opacity:1"
   id="path2106"
   inkscape:connector-curvature="0" /><path
   inkscape:connector-curvature="0"
   id="path2110"
   style="fill:#000000;fill-opacity:1;fill-rule:evenodd;stroke:none"
   d="m 273.8512,694.06708 h -0.72 v 4.92 l -0.18,-0.18 c -0.713,-0.516 -0.43,-0.32 -1.2,-0.72 l -0.18,-0.06 v 0.72 l 0.3,0.18 c 0.875,0.568 0.693,0.447 1.44,1.2 l 0.06,0.24 h 0.48 v -6.3" /><path
   inkscape:connector-curvature="0"
   id="path2114"
   style="fill:#000000;fill-opacity:1;fill-rule:evenodd;stroke:none"
   d="m 235.6312,748.48708 0.72,-0.18 -0.06,-0.36 -0.18,-0.3 -0.12,-0.36 c -0.544,-0.467 -1.243,-0.754 -1.98,-0.54 l -0.42,0.12 -0.36,0.12 c -0.428,0.361 -0.803,0.921 -0.78,1.5 l -0.06,0.24 v 0.66 c 0.021,1.951 2.509,2.791 3.66,1.2 l 0.06,-0.36 0.12,-0.3 -0.78,-0.12 -0.06,0.24 -0.12,0.18 c -0.812,0.926 -1.978,0.248 -2.16,-0.84 v -0.78 l 0.12,-0.3 0.12,-0.3 0.18,-0.24 0.12,-0.12 0.3,-0.12 0.18,-0.12 h 0.54 l 0.36,0.18 0.18,0.12 0.12,0.12 0.24,0.36 z m 5.52,1.92 h -4.2 v 0.77997 h 4.2 z m 0,-1.86 h -4.2 v 0.71997 h 4.2 z m 3.42,-1.8 v 1.5 h -2.82 v 0.72 l 2.94,4.02 h 0.6 v -4.02 h 0.78 v -0.72 h -0.78 v -1.5 z m 0,2.22 v 2.52 l -1.92,-2.52 h 1.92" /><path
   d="m 273.13246,768.07769 q -0.35855,-0.91937 -0.69872,-1.19978 -0.34016,-0.2804 -0.91017,-0.2804 h -0.67573 v 0.70791 h 0.49645 q 0.34936,0 0.54243,0.16548 0.19307,0.16549 0.42751,0.78147 l 0.15169,0.38613 -2.08236,5.06571 h 0.89638 l 1.60889,-4.02683 1.60889,4.02683 h 0.89639 z"
   style="font-style:normal;font-weight:normal;font-size:9.41431713px;line-height:1.25;font-family:sans-serif;letter-spacing:0px;word-spacing:0px;fill:#000000;fill-opacity:1;stroke:none;stroke-width:0.23535794"
   id="path1496"
   inkscape:connector-curvature="0" /><path
   d="m 366.00629,682.83873 -1.86172,-2.50527 1.95825,-2.64318 h -0.99751 l -1.49857,2.02261 -1.49857,-2.02261 h -0.99751 l 1.99962,2.69374 -1.82954,2.45471 h 0.99752 l 1.36526,-1.83413 1.36526,1.83413 z"
   style="font-style:normal;font-weight:normal;font-size:9.41431713px;line-height:1.25;font-family:sans-serif;letter-spacing:0px;word-spacing:0px;fill:#000000;fill-opacity:1;stroke:none;stroke-width:0.23535794"
   id="path1499"
   inkscape:connector-curvature="0" /><path
   style="fill:none;stroke:#000000;stroke-width:0.60000002;stroke-linecap:butt;stroke-linejoin:miter;stroke-miterlimit:4;stroke-dasharray:2.40000006, 2.40000006;stroke-dashoffset:0;stroke-opacity:1"
   d="M 326.21931,769.48115 V 699.87316"
   id="path5929-3-6-7-3"
   inkscape:connector-curvature="0" /></g></svg>