<?xml version="1.0" encoding="UTF-8" standalone="no"?>
<!-- Created with Inkscape (http://www.inkscape.org/) -->

<svg
   xmlns:dc="http://purl.org/dc/elements/1.1/"
   xmlns:cc="http://creativecommons.org/ns#"
   xmlns:rdf="http://www.w3.org/1999/02/22-rdf-syntax-ns#"
   xmlns:svg="http://www.w3.org/2000/svg"
   xmlns="http://www.w3.org/2000/svg"
   xmlns:sodipodi="http://sodipodi.sourceforge.net/DTD/sodipodi-0.dtd"
   xmlns:inkscape="http://www.inkscape.org/namespaces/inkscape"
   width="94.33519mm"
   height="70.586189mm"
   viewBox="0 0 94.335189 70.58619"
   version="1.1"
   id="svg2150"
   inkscape:version="0.92.4 (unknown)"
   sodipodi:docname="fig_3.svg">
  <defs
     id="defs2144" />
  <sodipodi:namedview
     id="base"
     pagecolor="#ffffff"
     bordercolor="#666666"
     borderopacity="1.0"
     inkscape:pageopacity="0.0"
     inkscape:pageshadow="2"
     inkscape:zoom="1.4"
     inkscape:cx="147.36689"
     inkscape:cy="134.21108"
     inkscape:document-units="mm"
     inkscape:current-layer="layer1"
     showgrid="false"
     fit-margin-top="0"
     fit-margin-left="0"
     fit-margin-right="0"
     fit-margin-bottom="0"
     inkscape:window-width="1299"
     inkscape:window-height="713"
     inkscape:window-x="67"
     inkscape:window-y="27"
     inkscape:window-maximized="1"
     inkscape:snap-bbox="true"
     inkscape:snap-bbox-midpoints="true" />
  <metadata
     id="metadata2147">
    <rdf:RDF>
      <cc:Work
         rdf:about="">
        <dc:format>image/svg+xml</dc:format>
        <dc:type
           rdf:resource="http://purl.org/dc/dcmitype/StillImage" />
        <dc:title></dc:title>
      </cc:Work>
    </rdf:RDF>
  </metadata>
  <g
     inkscape:label="Layer 1"
     inkscape:groupmode="layer"
     id="layer1"
     transform="translate(-44.989372,-106.66097)">
    <path
       inkscape:connector-curvature="0"
       id="path270"
       style="fill:none;stroke:#000000;stroke-width:0.35268959;stroke-linecap:round;stroke-linejoin:round;stroke-miterlimit:10;stroke-dasharray:none;stroke-opacity:1"
       d="m 62.800061,108.2978 -0.9525,-1.4605 -0.910167,1.4605" />
    <path
       d="M 61.847561,107.13363 V 177.0683"
       style="fill:none;stroke:#000000;stroke-width:0.35268959;stroke-linecap:round;stroke-linejoin:round;stroke-miterlimit:10;stroke-dasharray:none;stroke-opacity:1"
       id="path274"
       inkscape:connector-curvature="0" />
    <path
       inkscape:connector-curvature="0"
       id="path278"
       style="fill:none;stroke:#000000;stroke-width:0.35268959;stroke-linecap:round;stroke-linejoin:round;stroke-miterlimit:10;stroke-dasharray:none;stroke-opacity:1"
       d="M 45.168228,149.33996 H 138.87306" />
    <path
       d="m 137.68773,148.38746 1.4605,0.9525 -1.4605,0.9525"
       style="fill:none;stroke:#000000;stroke-width:0.35268959;stroke-linecap:round;stroke-linejoin:round;stroke-miterlimit:10;stroke-dasharray:none;stroke-opacity:1"
       id="path282"
       inkscape:connector-curvature="0" />
    <path
       inkscape:connector-curvature="0"
       id="path286"
       style="fill:none;stroke:#000000;stroke-width:0.35268959;stroke-linecap:round;stroke-linejoin:round;stroke-miterlimit:10;stroke-dasharray:none;stroke-opacity:1"
       d="m 126.70223,114.85946 -0.99483,-2.26483 -1.03717,-1.778 -1.18533,-1.29117 -1.24884,-0.91017 -1.397,-0.48683 -1.524,-0.0635 -1.524,0.29633 -1.67216,0.61384 -1.75684,0.93133 -1.82033,1.22767 -1.905,1.4605 -1.9685,1.778 -2.032,1.92616 -2.13783,2.11667 -2.159,2.3495 -2.26484,2.43417 -2.264829,2.58233 -2.3495,2.70933 -2.413,2.75167 -2.434167,2.794 c -8.044744,9.05827 -16.13535,18.31799 -26.098499,25.3365 l -2.7305,1.75683 -2.645834,1.48167" />
    <path
       inkscape:connector-curvature="0"
       id="path294"
       style="fill:none;stroke:#000000;stroke-width:0.26458332;stroke-linecap:round;stroke-linejoin:round;stroke-miterlimit:10;stroke-dasharray:none;stroke-opacity:1"
       d="m 83.966731,150.82164 v -2.96333" />
    <path
       d="m 81.130398,150.88514 v -2.9845"
       style="fill:none;stroke:#000000;stroke-width:0.26458332;stroke-linecap:round;stroke-linejoin:round;stroke-miterlimit:10;stroke-dasharray:none;stroke-opacity:1"
       id="path298"
       inkscape:connector-curvature="0" />
    <path
       inkscape:connector-curvature="0"
       id="path302"
       style="fill:none;stroke:#000000;stroke-width:0.26458332;stroke-linecap:round;stroke-linejoin:round;stroke-miterlimit:10;stroke-dasharray:none;stroke-opacity:1"
       d="m 89.851064,150.65231 v -2.96333" />
    <path
       d="m 86.993564,150.58881 v -2.96333"
       style="fill:none;stroke:#000000;stroke-width:0.26458332;stroke-linecap:round;stroke-linejoin:round;stroke-miterlimit:10;stroke-dasharray:none;stroke-opacity:1"
       id="path306"
       inkscape:connector-curvature="0" />
    <path
       inkscape:connector-curvature="0"
       id="path310"
       style="fill:none;stroke:#000000;stroke-width:0.26458332;stroke-linecap:round;stroke-linejoin:round;stroke-miterlimit:10;stroke-dasharray:none;stroke-opacity:1"
       d="m 61.762898,132.17381 h 0.381" />
    <path
       d="m 92.369899,149.17065 v 0.40217"
       style="fill:none;stroke:#000000;stroke-width:0.26458332;stroke-linecap:round;stroke-linejoin:round;stroke-miterlimit:10;stroke-dasharray:none;stroke-opacity:1"
       id="path554"
       inkscape:connector-curvature="0" />
    <path
       inkscape:connector-curvature="0"
       id="path558"
       style="fill:none;stroke:#000000;stroke-width:0.26458332;stroke-linecap:round;stroke-linejoin:round;stroke-miterlimit:10;stroke-dasharray:none;stroke-opacity:1"
       d="m 95.227399,150.75815 v -3.00567" />
    <path
       d="m 92.327566,150.77932 v -3.02683"
       style="fill:none;stroke:#000000;stroke-width:0.26458332;stroke-linecap:round;stroke-linejoin:round;stroke-miterlimit:10;stroke-dasharray:none;stroke-opacity:1"
       id="path562"
       inkscape:connector-curvature="0" />
    <path
       inkscape:connector-curvature="0"
       id="path566"
       style="fill:none;stroke:#000000;stroke-width:0.26458332;stroke-linecap:round;stroke-linejoin:round;stroke-miterlimit:10;stroke-dasharray:none;stroke-opacity:1"
       d="m 103.82107,150.65232 v -2.96333" />
    <path
       d="m 101.04824,150.52532 v -3.00567"
       style="fill:none;stroke:#000000;stroke-width:0.26458332;stroke-linecap:round;stroke-linejoin:round;stroke-miterlimit:10;stroke-dasharray:none;stroke-opacity:1"
       id="path570"
       inkscape:connector-curvature="0" />
    <path
       inkscape:connector-curvature="0"
       id="path574"
       style="fill:none;stroke:#000000;stroke-width:0.26458332;stroke-linecap:round;stroke-linejoin:round;stroke-miterlimit:10;stroke-dasharray:none;stroke-opacity:1"
       d="m 98.211907,150.52532 v -3.00567" />
    <path
       d="m 60.789241,124.19399 h 3.005667"
       style="fill:none;stroke:#000000;stroke-width:0.26458332;stroke-linecap:round;stroke-linejoin:round;stroke-miterlimit:10;stroke-dasharray:none;stroke-opacity:1"
       id="path578"
       inkscape:connector-curvature="0" />
    <path
       inkscape:connector-curvature="0"
       id="path582"
       style="fill:none;stroke:#000000;stroke-width:0.26458332;stroke-linecap:round;stroke-linejoin:round;stroke-miterlimit:10;stroke-dasharray:none;stroke-opacity:1"
       d="m 60.789241,132.11032 h 3.005667" />
    <path
       d="m 60.937408,132.17382 h 2.9845"
       style="fill:none;stroke:#000000;stroke-width:0.26458332;stroke-linecap:round;stroke-linejoin:round;stroke-miterlimit:10;stroke-dasharray:none;stroke-opacity:1"
       id="path586"
       inkscape:connector-curvature="0" />
    <path
       inkscape:connector-curvature="0"
       id="path590"
       style="fill:none;stroke:#000000;stroke-width:0.26458332;stroke-linecap:round;stroke-linejoin:round;stroke-miterlimit:10;stroke-dasharray:none;stroke-opacity:1"
       d="m 60.937408,140.09015 h 2.9845" />
    <g
       aria-label="L + ε"
       style="font-style:normal;font-weight:normal;font-size:3.69017982px;line-height:1.25;font-family:sans-serif;letter-spacing:0px;word-spacing:0px;fill:#000000;fill-opacity:1;stroke:none;stroke-width:0.09225449"
       id="text4281">
      <path
         d="m 50.121532,122.77603 h 0.363973 v 2.38384 h 1.309942 v 0.30632 h -1.673915 z"
         style="stroke-width:0.09225449"
         id="path10152"
         inkscape:connector-curvature="0" />
      <path
         d="m 54.685607,123.15262 v 1.00362 h 1.003628 v 0.30632 h -1.003628 v 1.00363 h -0.30271 v -1.00363 h -1.003628 v -0.30632 h 1.003628 v -1.00362 z"
         style="stroke-width:0.09225449"
         id="path10154"
         inkscape:connector-curvature="0" />
      <path
         d="m 57.966768,124.37787 q -0.201806,-0.0432 -0.309917,-0.16036 -0.108111,-0.11532 -0.108111,-0.28289 0,-0.25406 0.20541,-0.39641 0.203609,-0.14054 0.556771,-0.14054 0.13694,0 0.290097,0.0216 0.153157,0.0216 0.329738,0.0649 v 0.3009 q -0.174779,-0.0523 -0.318927,-0.0757 -0.14595,-0.0234 -0.273881,-0.0234 -0.214419,0 -0.338747,0.0829 -0.126129,0.0829 -0.126129,0.1982 0,0.12613 0.122526,0.20721 0.120723,0.0793 0.329738,0.0793 h 0.279286 v 0.27388 h -0.266674 q -0.246852,0 -0.376585,0.0919 -0.140544,0.1009 -0.140544,0.25946 0,0.16217 0.151355,0.26307 0.153157,0.10091 0.425235,0.10091 0.167572,0 0.320729,-0.0324 0.153157,-0.0342 0.281088,-0.1009 v 0.30812 q -0.162166,0.0504 -0.313521,0.0757 -0.153157,0.0252 -0.297305,0.0252 -0.428839,0 -0.661277,-0.16397 -0.232438,-0.16397 -0.232438,-0.47569 0,-0.19459 0.124327,-0.32613 0.124327,-0.13153 0.347756,-0.17478 z"
         style="stroke-width:0.09225449"
         id="path10156"
         inkscape:connector-curvature="0" />
    </g>
    <g
       aria-label="c - δ4"
       transform="rotate(-90,0.26458333,-0.26458333)"
       style="font-style:normal;font-weight:normal;font-size:2.69014096px;line-height:1.25;font-family:sans-serif;letter-spacing:0px;word-spacing:0px;fill:#000000;fill-opacity:1;stroke:none;stroke-width:0.06725352"
       id="text4337">
      <path
         d="m -160.55294,79.810684 v 0.22593 q -0.10246,-0.05648 -0.20623,-0.08407 -0.10245,-0.0289 -0.20754,-0.0289 -0.23512,0 -0.36516,0.149744 -0.13004,0.148431 -0.13004,0.417707 0,0.269277 0.13004,0.419021 0.13004,0.148431 0.36516,0.148431 0.10509,0 0.20754,-0.02758 0.10377,-0.0289 0.20623,-0.08538 v 0.223303 q -0.10114,0.04729 -0.21017,0.07093 -0.10771,0.02364 -0.22987,0.02364 -0.33233,0 -0.52804,-0.208854 -0.19572,-0.208853 -0.19572,-0.563511 0,-0.359911 0.19703,-0.566138 0.19834,-0.206226 0.54249,-0.206226 0.11165,0 0.21805,0.02364 0.1064,0.02233 0.20623,0.0683 z"
         style="stroke-width:0.06725352"
         id="path10143"
         inkscape:connector-curvature="0" />
      <path
         d="m -159.39571,80.380763 h 0.708 v 0.215421 h -0.708 z"
         style="stroke-width:0.06725352"
         id="path10145"
         inkscape:connector-curvature="0" />
      <path
         d="m -156.37981,79.521704 q -0.13398,-0.09195 -0.44792,-0.09195 -0.33232,0 -0.33232,0.153685 0,0.120846 0.34677,0.183896 0.27322,0.0486 0.4269,0.195718 0.18653,0.177329 0.18653,0.541181 0,0.348089 -0.17996,0.553003 -0.17995,0.206226 -0.4952,0.206226 -0.31394,0 -0.49521,-0.206226 -0.17996,-0.204914 -0.17996,-0.566139 0,-0.267963 0.17996,-0.484698 0.0696,-0.08407 0.16813,-0.131354 -0.20491,-0.10377 -0.20491,-0.28898 0,-0.357285 0.57927,-0.357285 0.2903,0 0.44792,0.09195 z m -0.64101,0.419021 q -0.0893,0.03809 -0.16156,0.133982 -0.11297,0.14843 -0.11297,0.416393 0,0.26665 0.11165,0.416394 0.11297,0.151058 0.30869,0.151058 0.19309,0 0.30605,-0.152371 0.11297,-0.152371 0.11297,-0.401945 0,-0.261396 -0.11954,-0.387496 -0.12741,-0.135295 -0.29292,-0.149744 -0.0841,-0.0079 -0.15237,-0.02627 z"
         style="stroke-width:0.06725352"
         id="path10147"
         inkscape:connector-curvature="0" />
      <path
         d="m -155.3932,80.63894 -0.43544,0.680482 h 0.43544 z m -0.0453,-0.15027 h 0.21687 v 0.830752 h 0.18186 v 0.143439 h -0.18186 V 81.7634 h -0.17161 v -0.300539 h -0.57547 v -0.166492 z"
         style="font-size:1.74859154px;baseline-shift:sub;stroke-width:0.06725352"
         id="path10149"
         inkscape:connector-curvature="0" />
    </g>
    <g
       aria-label="c - δ3"
       transform="rotate(-90,0.17008928,-0.17008928)"
       style="font-style:normal;font-weight:normal;font-size:2.69014096px;line-height:1.25;font-family:sans-serif;letter-spacing:0px;word-spacing:0px;fill:#000000;fill-opacity:1;stroke:none;stroke-width:0.06725352"
       id="text4343">
      <path
         d="m -160.53201,82.973297 v 0.22593 q -0.10245,-0.05648 -0.20622,-0.08407 -0.10246,-0.0289 -0.20754,-0.0289 -0.23513,0 -0.36517,0.149744 -0.13004,0.148431 -0.13004,0.417707 0,0.269277 0.13004,0.419021 0.13004,0.148431 0.36517,0.148431 0.10508,0 0.20754,-0.02758 0.10377,-0.0289 0.20622,-0.08538 v 0.223303 q -0.10114,0.04729 -0.21016,0.07093 -0.10771,0.02364 -0.22987,0.02364 -0.33233,0 -0.52805,-0.208854 -0.19572,-0.208853 -0.19572,-0.563511 0,-0.359911 0.19703,-0.566138 0.19835,-0.206226 0.5425,-0.206226 0.11165,0 0.21805,0.02364 0.10639,0.02233 0.20622,0.06831 z"
         style="stroke-width:0.06725352"
         id="path10134"
         inkscape:connector-curvature="0" />
      <path
         d="m -159.37477,83.543376 h 0.708 v 0.215421 h -0.708 z"
         style="stroke-width:0.06725352"
         id="path10136"
         inkscape:connector-curvature="0" />
      <path
         d="m -156.35887,82.684317 q -0.13398,-0.09195 -0.44792,-0.09195 -0.33233,0 -0.33233,0.153684 0,0.120847 0.34678,0.183897 0.27321,0.0486 0.4269,0.195718 0.18652,0.177329 0.18652,0.541181 0,0.348089 -0.17995,0.553002 -0.17996,0.206227 -0.49521,0.206227 -0.31394,0 -0.49521,-0.206227 -0.17995,-0.204913 -0.17995,-0.566138 0,-0.267963 0.17995,-0.484698 0.0696,-0.08407 0.16814,-0.131354 -0.20492,-0.103771 -0.20492,-0.28898 0,-0.357285 0.57928,-0.357285 0.29029,0 0.44792,0.09195 z m -0.64101,0.419021 q -0.0893,0.03809 -0.16157,0.133981 -0.11296,0.148431 -0.11296,0.416394 0,0.26665 0.11165,0.416394 0.11296,0.151058 0.30868,0.151058 0.19309,0 0.30606,-0.152371 0.11296,-0.152372 0.11296,-0.401945 0,-0.261396 -0.11953,-0.387496 -0.12741,-0.135295 -0.29292,-0.149744 -0.0841,-0.0079 -0.15237,-0.02627 z"
         style="stroke-width:0.06725352"
         id="path10138"
         inkscape:connector-curvature="0" />
      <path
         d="m -155.3236,84.238701 q 0.1238,0.02647 0.19296,0.110141 0.07,0.08367 0.07,0.20662 0,0.188691 -0.12978,0.292001 -0.12978,0.103311 -0.36884,0.103311 -0.0803,0 -0.16564,-0.01622 -0.0845,-0.01537 -0.17503,-0.04696 V 84.7211 q 0.0717,0.04184 0.1571,0.06318 0.0854,0.02134 0.17845,0.02134 0.16222,0 0.24674,-0.06404 0.0854,-0.06404 0.0854,-0.18613 0,-0.112702 -0.0794,-0.175883 -0.0786,-0.06404 -0.21943,-0.06404 h -0.14856 v -0.141731 h 0.15539 q 0.12722,0 0.19467,-0.05038 0.0674,-0.05123 0.0674,-0.146854 0,-0.09819 -0.07,-0.15027 -0.0692,-0.05294 -0.19894,-0.05294 -0.0709,0 -0.15197,0.01537 -0.0811,0.01537 -0.17845,0.04781 v -0.153685 q 0.0982,-0.02732 0.18357,-0.04098 0.0862,-0.01366 0.16222,-0.01366 0.19638,0 0.31079,0.08965 0.11441,0.0888 0.11441,0.240773 0,0.105872 -0.0606,0.179299 -0.0606,0.07257 -0.17247,0.100749 z"
         style="font-size:1.74859154px;baseline-shift:sub;stroke-width:0.06725352"
         id="path10140"
         inkscape:connector-curvature="0" />
    </g>
    <g
       aria-label="c - δ2"
       transform="rotate(-90,0.07559523,-0.07559523)"
       style="font-style:normal;font-weight:normal;font-size:2.69014096px;line-height:1.25;font-family:sans-serif;letter-spacing:0px;word-spacing:0px;fill:#000000;fill-opacity:1;stroke:none;stroke-width:0.06725352"
       id="text4349">
      <path
         d="m -160.51452,86.16069 v 0.22593 q -0.10246,-0.05648 -0.20623,-0.08407 -0.10245,-0.0289 -0.20754,-0.0289 -0.23512,0 -0.36516,0.149744 -0.13004,0.148431 -0.13004,0.417708 0,0.269276 0.13004,0.419021 0.13004,0.14843 0.36516,0.14843 0.10509,0 0.20754,-0.02758 0.10377,-0.0289 0.20623,-0.08538 v 0.223303 q -0.10114,0.04729 -0.21017,0.07093 -0.10771,0.02364 -0.22987,0.02364 -0.33232,0 -0.52804,-0.208853 -0.19572,-0.208854 -0.19572,-0.563511 0,-0.359912 0.19703,-0.566139 0.19835,-0.206226 0.54249,-0.206226 0.11166,0 0.21805,0.02364 0.1064,0.02233 0.20623,0.0683 z"
         style="stroke-width:0.06725352"
         id="path10125"
         inkscape:connector-curvature="0" />
      <path
         d="m -159.35729,86.730769 h 0.708 v 0.215421 h -0.708 z"
         style="stroke-width:0.06725352"
         id="path10127"
         inkscape:connector-curvature="0" />
      <path
         d="m -156.34139,85.87171 q -0.13398,-0.09195 -0.44792,-0.09195 -0.33232,0 -0.33232,0.153685 0,0.120846 0.34677,0.183896 0.27322,0.0486 0.42691,0.195718 0.18652,0.177329 0.18652,0.541181 0,0.34809 -0.17996,0.553003 -0.17995,0.206226 -0.4952,0.206226 -0.31394,0 -0.49521,-0.206226 -0.17996,-0.204913 -0.17996,-0.566138 0,-0.267964 0.17996,-0.484699 0.0696,-0.08407 0.16813,-0.131354 -0.20491,-0.10377 -0.20491,-0.28898 0,-0.357285 0.57927,-0.357285 0.2903,0 0.44792,0.09195 z m -0.64101,0.419021 q -0.0893,0.03809 -0.16156,0.133982 -0.11297,0.14843 -0.11297,0.416394 0,0.266649 0.11165,0.416393 0.11297,0.151058 0.30869,0.151058 0.19309,0 0.30605,-0.152371 0.11297,-0.152371 0.11297,-0.401945 0,-0.261396 -0.11953,-0.387496 -0.12742,-0.135295 -0.29293,-0.149744 -0.0841,-0.0079 -0.15237,-0.02627 z"
         style="stroke-width:0.06725352"
         id="path10129"
         inkscape:connector-curvature="0" />
      <path
         d="m -155.68008,87.96826 h 0.60193 v 0.145147 h -0.80941 V 87.96826 q 0.0982,-0.101603 0.26724,-0.272364 0.16991,-0.171614 0.21346,-0.221135 0.0828,-0.09306 0.11526,-0.1571 0.0333,-0.06489 0.0333,-0.127217 0,-0.101603 -0.0717,-0.165638 -0.0709,-0.06404 -0.18528,-0.06404 -0.0811,0 -0.17161,0.02818 -0.0896,0.02818 -0.19211,0.08538 V 86.90015 q 0.10417,-0.04184 0.19467,-0.06318 0.0905,-0.02134 0.16564,-0.02134 0.19808,0 0.3159,0.09904 0.11783,0.09904 0.11783,0.26468 0,0.07855 -0.0299,0.149415 -0.029,0.07001 -0.10673,0.165638 -0.0213,0.02476 -0.13575,0.14344 -0.11441,0.117825 -0.32274,0.330422 z"
         style="font-size:1.74859154px;baseline-shift:sub;stroke-width:0.06725352"
         id="path10131"
         inkscape:connector-curvature="0" />
    </g>
    <g
       aria-label="c - δ1"
       transform="rotate(-90,-0.01889882,0.01889882)"
       style="font-style:normal;font-weight:normal;font-size:2.69014096px;line-height:1.25;font-family:sans-serif;letter-spacing:0px;word-spacing:0px;fill:#000000;fill-opacity:1;stroke:none;stroke-width:0.06725352"
       id="text4355">
      <path
         d="m -160.52134,89.335693 v 0.22593 q -0.10246,-0.05648 -0.20623,-0.08407 -0.10245,-0.0289 -0.20754,-0.0289 -0.23512,0 -0.36516,0.149744 -0.13004,0.148431 -0.13004,0.417708 0,0.269276 0.13004,0.419021 0.13004,0.14843 0.36516,0.14843 0.10509,0 0.20754,-0.02758 0.10377,-0.0289 0.20623,-0.08538 v 0.223303 q -0.10114,0.04729 -0.21017,0.07093 -0.10771,0.02364 -0.22987,0.02364 -0.33233,0 -0.52804,-0.208853 -0.19572,-0.208854 -0.19572,-0.563511 0,-0.359912 0.19703,-0.566138 0.19835,-0.206227 0.54249,-0.206227 0.11166,0 0.21805,0.02364 0.1064,0.02233 0.20623,0.0683 z"
         style="stroke-width:0.06725352"
         id="path10116"
         inkscape:connector-curvature="0" />
      <path
         d="m -159.36411,89.905772 h 0.708 v 0.215421 h -0.708 z"
         style="stroke-width:0.06725352"
         id="path10118"
         inkscape:connector-curvature="0" />
      <path
         d="m -156.34821,89.046713 q -0.13398,-0.09195 -0.44792,-0.09195 -0.33232,0 -0.33232,0.153685 0,0.120846 0.34677,0.183896 0.27322,0.0486 0.42691,0.195718 0.18652,0.177329 0.18652,0.541181 0,0.34809 -0.17996,0.553003 -0.17995,0.206226 -0.4952,0.206226 -0.31394,0 -0.49521,-0.206226 -0.17996,-0.204913 -0.17996,-0.566138 0,-0.267964 0.17996,-0.484699 0.0696,-0.08407 0.16813,-0.131354 -0.20491,-0.10377 -0.20491,-0.28898 0,-0.357285 0.57927,-0.357285 0.2903,0 0.44792,0.09195 z m -0.64101,0.419021 q -0.0893,0.03809 -0.16156,0.133982 -0.11297,0.14843 -0.11297,0.416394 0,0.266649 0.11165,0.416393 0.11297,0.151058 0.30869,0.151058 0.19309,0 0.30605,-0.152371 0.11297,-0.152371 0.11297,-0.401945 0,-0.261395 -0.11954,-0.387496 -0.12741,-0.135295 -0.29292,-0.149744 -0.0841,-0.0079 -0.15237,-0.02627 z"
         style="stroke-width:0.06725352"
         id="path10120"
         inkscape:connector-curvature="0" />
      <path
         d="m -155.80558,91.143263 h 0.28175 V 90.17078 l -0.30651,0.06147 v -0.1571 l 0.30481,-0.06147 h 0.17247 v 1.129584 h 0.28175 v 0.145147 h -0.73427 z"
         style="font-size:1.74859166px;baseline-shift:sub;stroke-width:0.06725352"
         id="path10122"
         inkscape:connector-curvature="0" />
    </g>
    <g
       aria-label="c + δ1"
       transform="rotate(-90,0.26458333,-0.26458333)"
       style="font-style:normal;font-weight:normal;font-size:2.69014096px;line-height:1.25;font-family:sans-serif;letter-spacing:0px;word-spacing:0px;fill:#000000;fill-opacity:1;stroke:none;stroke-width:0.06725352"
       id="text4369">
      <path
         d="m -161.01438,94.098198 v 0.225929 q -0.10246,-0.05648 -0.20623,-0.08407 -0.10246,-0.0289 -0.20754,-0.0289 -0.23512,0 -0.36516,0.149744 -0.13005,0.14843 -0.13005,0.417707 0,0.269277 0.13005,0.419021 0.13004,0.148431 0.36516,0.148431 0.10508,0 0.20754,-0.02758 0.10377,-0.0289 0.20623,-0.08538 v 0.223303 q -0.10115,0.04729 -0.21017,0.07093 -0.10771,0.02364 -0.22987,0.02364 -0.33233,0 -0.52805,-0.208854 -0.19571,-0.208854 -0.19571,-0.563511 0,-0.359911 0.19703,-0.566138 0.19834,-0.206227 0.54249,-0.206227 0.11165,0 0.21805,0.02364 0.1064,0.02233 0.20623,0.0683 z"
         style="stroke-width:0.06725352"
         id="path10107"
         inkscape:connector-curvature="0" />
      <path
         d="m -158.75114,93.826294 v 0.731645 h 0.73164 v 0.223302 h -0.73164 v 0.731645 h -0.22068 v -0.731645 h -0.73164 v -0.223302 h 0.73164 v -0.731645 z"
         style="stroke-width:0.06725352"
         id="path10109"
         inkscape:connector-curvature="0" />
      <path
         d="m -155.55923,93.809218 q -0.13398,-0.09195 -0.44792,-0.09195 -0.33232,0 -0.33232,0.153685 0,0.120846 0.34677,0.183897 0.27322,0.0486 0.4269,0.195718 0.18653,0.177329 0.18653,0.541181 0,0.348089 -0.17996,0.553002 -0.17995,0.206227 -0.4952,0.206227 -0.31394,0 -0.49521,-0.206227 -0.17996,-0.204913 -0.17996,-0.566138 0,-0.267963 0.17996,-0.484698 0.0696,-0.08407 0.16813,-0.131355 -0.20491,-0.10377 -0.20491,-0.28898 0,-0.357284 0.57927,-0.357284 0.2903,0 0.44792,0.09195 z m -0.64101,0.419021 q -0.0893,0.03809 -0.16156,0.133981 -0.11297,0.148431 -0.11297,0.416394 0,0.26665 0.11165,0.416394 0.11297,0.151058 0.30869,0.151058 0.19309,0 0.30605,-0.152371 0.11297,-0.152372 0.11297,-0.401945 0,-0.261396 -0.11954,-0.387496 -0.12741,-0.135295 -0.29292,-0.149744 -0.0841,-0.0079 -0.15237,-0.02627 z"
         style="stroke-width:0.06725352"
         id="path10111"
         inkscape:connector-curvature="0" />
      <path
         d="m -155.0166,95.905767 h 0.28175 v -0.972483 l -0.30651,0.06147 v -0.1571 l 0.3048,-0.06147 h 0.17247 v 1.129583 h 0.28176 v 0.145147 h -0.73427 z"
         style="font-size:1.74859166px;baseline-shift:sub;stroke-width:0.06725352"
         id="path10113"
         inkscape:connector-curvature="0" />
    </g>
    <g
       aria-label="c + δ2"
       transform="rotate(-90,0.17008928,-0.17008928)"
       style="font-style:normal;font-weight:normal;font-size:2.69014096px;line-height:1.25;font-family:sans-serif;letter-spacing:0px;word-spacing:0px;fill:#000000;fill-opacity:1;stroke:none;stroke-width:0.06725352"
       id="text4375">
      <path
         d="m -160.99189,97.259445 v 0.22593 q -0.10246,-0.05648 -0.20623,-0.08407 -0.10245,-0.0289 -0.20754,-0.0289 -0.23512,0 -0.36516,0.149744 -0.13004,0.148431 -0.13004,0.417707 0,0.269277 0.13004,0.419021 0.13004,0.148431 0.36516,0.148431 0.10509,0 0.20754,-0.02758 0.10377,-0.0289 0.20623,-0.08538 v 0.223303 q -0.10114,0.04729 -0.21017,0.07093 -0.10771,0.02364 -0.22987,0.02364 -0.33233,0 -0.52804,-0.208854 -0.19572,-0.208853 -0.19572,-0.563511 0,-0.359911 0.19703,-0.566138 0.19834,-0.206226 0.54249,-0.206226 0.11166,0 0.21805,0.02364 0.1064,0.02233 0.20623,0.0683 z"
         style="stroke-width:0.06725352"
         id="path10098"
         inkscape:connector-curvature="0" />
      <path
         d="m -158.72865,96.987541 v 0.731645 h 0.73164 v 0.223303 h -0.73164 v 0.731644 h -0.22068 v -0.731644 h -0.73164 v -0.223303 h 0.73164 v -0.731645 z"
         style="stroke-width:0.06725352"
         id="path10100"
         inkscape:connector-curvature="0" />
      <path
         d="m -155.53674,96.970465 q -0.13398,-0.09195 -0.44792,-0.09195 -0.33232,0 -0.33232,0.153685 0,0.120846 0.34677,0.183896 0.27322,0.0486 0.42691,0.195718 0.18652,0.177329 0.18652,0.541181 0,0.348089 -0.17996,0.553002 -0.17995,0.206227 -0.4952,0.206227 -0.31394,0 -0.49521,-0.206227 -0.17996,-0.204913 -0.17996,-0.566138 0,-0.267963 0.17996,-0.484698 0.0696,-0.08407 0.16813,-0.131354 -0.20491,-0.10377 -0.20491,-0.28898 0,-0.357285 0.57927,-0.357285 0.2903,0 0.44792,0.09195 z m -0.64101,0.419021 q -0.0893,0.03809 -0.16156,0.133982 -0.11297,0.14843 -0.11297,0.416393 0,0.26665 0.11165,0.416394 0.11297,0.151058 0.30869,0.151058 0.19309,0 0.30605,-0.152371 0.11297,-0.152371 0.11297,-0.401945 0,-0.261396 -0.11954,-0.387496 -0.12741,-0.135295 -0.29292,-0.149744 -0.0841,-0.0079 -0.15237,-0.02627 z"
         style="stroke-width:0.06725352"
         id="path10102"
         inkscape:connector-curvature="0" />
      <path
         d="m -154.87543,99.067015 h 0.60193 v 0.145146 h -0.80941 v -0.145146 q 0.0982,-0.101603 0.26724,-0.272364 0.16991,-0.171615 0.21345,-0.221135 0.0828,-0.09306 0.11527,-0.1571 0.0333,-0.06489 0.0333,-0.127217 0,-0.101603 -0.0717,-0.165638 -0.0709,-0.06404 -0.18528,-0.06404 -0.0811,0 -0.17161,0.02818 -0.0897,0.02818 -0.19211,0.08538 v -0.174176 q 0.10416,-0.04184 0.19467,-0.06318 0.0905,-0.02134 0.16564,-0.02134 0.19808,0 0.3159,0.09904 0.11783,0.09904 0.11783,0.264679 0,0.07855 -0.0299,0.149416 -0.029,0.07001 -0.10673,0.165638 -0.0213,0.02476 -0.13575,0.143439 -0.11441,0.117825 -0.32274,0.330423 z"
         style="font-size:1.74859166px;baseline-shift:sub;stroke-width:0.06725352"
         id="path10104"
         inkscape:connector-curvature="0" />
    </g>
    <g
       aria-label="c + δ3"
       transform="rotate(-90,0.07559523,-0.07559523)"
       style="font-style:normal;font-weight:normal;font-size:2.69014096px;line-height:1.25;font-family:sans-serif;letter-spacing:0px;word-spacing:0px;fill:#000000;fill-opacity:1;stroke:none;stroke-width:0.06725352"
       id="text4381">
      <path
         d="m -160.97051,100.44959 v 0.22593 q -0.10246,-0.0565 -0.20623,-0.0841 -0.10246,-0.0289 -0.20754,-0.0289 -0.23512,0 -0.36517,0.14974 -0.13004,0.14843 -0.13004,0.41771 0,0.26928 0.13004,0.41902 0.13005,0.14843 0.36517,0.14843 0.10508,0 0.20754,-0.0276 0.10377,-0.0289 0.20623,-0.0854 v 0.2233 q -0.10115,0.0473 -0.21017,0.0709 -0.10771,0.0236 -0.22987,0.0236 -0.33233,0 -0.52805,-0.20885 -0.19571,-0.20885 -0.19571,-0.56351 0,-0.35991 0.19703,-0.56614 0.19834,-0.20623 0.54249,-0.20623 0.11165,0 0.21805,0.0237 0.1064,0.0223 0.20623,0.0683 z"
         style="stroke-width:0.06725352"
         id="path10089"
         inkscape:connector-curvature="0" />
      <path
         d="m -158.70727,100.17769 v 0.73164 h 0.73164 v 0.22331 h -0.73164 v 0.73164 h -0.22068 v -0.73164 h -0.73165 v -0.22331 h 0.73165 v -0.73164 z"
         style="stroke-width:0.06725352"
         id="path10091"
         inkscape:connector-curvature="0" />
      <path
         d="m -155.51536,100.16061 q -0.13398,-0.092 -0.44792,-0.092 -0.33233,0 -0.33233,0.15369 0,0.12085 0.34678,0.1839 0.27322,0.0486 0.4269,0.19571 0.18653,0.17733 0.18653,0.54118 0,0.34809 -0.17996,0.55301 -0.17996,0.20622 -0.49521,0.20622 -0.31393,0 -0.4952,-0.20622 -0.17996,-0.20492 -0.17996,-0.56614 0,-0.26796 0.17996,-0.4847 0.0696,-0.0841 0.16813,-0.13135 -0.20491,-0.10377 -0.20491,-0.28898 0,-0.357288 0.57927,-0.357288 0.2903,0 0.44792,0.09195 z m -0.64101,0.41902 q -0.0893,0.0381 -0.16157,0.13398 -0.11296,0.14844 -0.11296,0.4164 0,0.26665 0.11165,0.41639 0.11297,0.15106 0.30868,0.15106 0.1931,0 0.30606,-0.15237 0.11297,-0.15237 0.11297,-0.40195 0,-0.26139 -0.11954,-0.38749 -0.12741,-0.1353 -0.29292,-0.14975 -0.0841,-0.008 -0.15237,-0.0263 z"
         style="stroke-width:0.06725352"
         id="path10093"
         inkscape:connector-curvature="0" />
      <path
         d="m -154.48009,101.715 q 0.1238,0.0265 0.19296,0.11014 0.07,0.0837 0.07,0.20662 0,0.18869 -0.12978,0.292 -0.12977,0.10331 -0.36884,0.10331 -0.0803,0 -0.16564,-0.0162 -0.0845,-0.0154 -0.17503,-0.047 v -0.16649 q 0.0717,0.0418 0.1571,0.0632 0.0854,0.0213 0.17845,0.0213 0.16222,0 0.24675,-0.064 0.0854,-0.064 0.0854,-0.18613 0,-0.1127 -0.0794,-0.17589 -0.0786,-0.064 -0.21942,-0.064 h -0.14857 v -0.14173 h 0.1554 q 0.12721,0 0.19466,-0.0504 0.0675,-0.0512 0.0675,-0.14685 0,-0.0982 -0.07,-0.15027 -0.0692,-0.0529 -0.19893,-0.0529 -0.0709,0 -0.15198,0.0154 -0.0811,0.0154 -0.17845,0.0478 v -0.15368 q 0.0982,-0.0273 0.18357,-0.041 0.0862,-0.0137 0.16223,-0.0137 0.19637,0 0.31078,0.0897 0.11441,0.0888 0.11441,0.24077 0,0.10587 -0.0606,0.1793 -0.0606,0.0726 -0.17247,0.10075 z"
         style="font-size:1.74859154px;baseline-shift:sub;stroke-width:0.06725352"
         id="path10095"
         inkscape:connector-curvature="0" />
    </g>
    <g
       aria-label="c + δ4"
       transform="rotate(-90,-0.01889882,0.01889882)"
       style="font-style:normal;font-weight:normal;font-size:2.69014096px;line-height:1.25;font-family:sans-serif;letter-spacing:0px;word-spacing:0px;fill:#000000;fill-opacity:1;stroke:none;stroke-width:0.06725352"
       id="text4387">
      <path
         d="m -160.97576,103.62322 v 0.22593 q -0.10246,-0.0565 -0.20623,-0.0841 -0.10246,-0.0289 -0.20754,-0.0289 -0.23512,0 -0.36516,0.14974 -0.13005,0.14843 -0.13005,0.41771 0,0.26928 0.13005,0.41902 0.13004,0.14843 0.36516,0.14843 0.10508,0 0.20754,-0.0276 0.10377,-0.0289 0.20623,-0.0854 v 0.2233 q -0.10115,0.0473 -0.21017,0.0709 -0.10771,0.0236 -0.22987,0.0236 -0.33233,0 -0.52805,-0.20885 -0.19571,-0.20885 -0.19571,-0.56351 0,-0.35991 0.19703,-0.56614 0.19834,-0.20623 0.54249,-0.20623 0.11165,0 0.21805,0.0236 0.1064,0.0223 0.20623,0.0683 z"
         style="stroke-width:0.06725352"
         id="path10080"
         inkscape:connector-curvature="0" />
      <path
         d="m -158.71252,103.35132 v 0.73164 h 0.73164 v 0.22331 h -0.73164 v 0.73164 h -0.22068 v -0.73164 h -0.73164 v -0.22331 h 0.73164 v -0.73164 z"
         style="stroke-width:0.06725352"
         id="path10082"
         inkscape:connector-curvature="0" />
      <path
         d="m -155.52061,103.33424 q -0.13398,-0.0919 -0.44792,-0.0919 -0.33232,0 -0.33232,0.15369 0,0.12084 0.34677,0.1839 0.27322,0.0486 0.4269,0.19571 0.18653,0.17733 0.18653,0.54118 0,0.34809 -0.17996,0.55301 -0.17995,0.20622 -0.4952,0.20622 -0.31394,0 -0.49521,-0.20622 -0.17996,-0.20492 -0.17996,-0.56614 0,-0.26796 0.17996,-0.4847 0.0696,-0.0841 0.16813,-0.13135 -0.20491,-0.10377 -0.20491,-0.28898 0,-0.35729 0.57927,-0.35729 0.2903,0 0.44792,0.0919 z m -0.64101,0.41902 q -0.0893,0.0381 -0.16156,0.13398 -0.11297,0.14844 -0.11297,0.4164 0,0.26665 0.11165,0.41639 0.11297,0.15106 0.30869,0.15106 0.19309,0 0.30605,-0.15237 0.11297,-0.15237 0.11297,-0.40195 0,-0.26139 -0.11954,-0.38749 -0.12741,-0.1353 -0.29292,-0.14975 -0.0841,-0.008 -0.15237,-0.0263 z"
         style="stroke-width:0.06725352"
         id="path10084"
         inkscape:connector-curvature="0" />
      <path
         d="m -154.534,104.45148 -0.43545,0.68048 h 0.43545 z m -0.0453,-0.15027 h 0.21687 v 0.83075 h 0.18186 v 0.14344 h -0.18186 v 0.30054 h -0.17161 v -0.30054 h -0.57547 v -0.16649 z"
         style="font-size:1.74859166px;baseline-shift:sub;stroke-width:0.06725352"
         id="path10086"
         inkscape:connector-curvature="0" />
    </g>
    <g
       aria-label="c
"
       style="font-style:normal;font-weight:normal;font-size:3.58057785px;line-height:1.25;font-family:sans-serif;letter-spacing:0px;word-spacing:0px;fill:#000000;fill-opacity:1;stroke:none;stroke-width:0.08951443"
       id="text4401">
      <path
         d="m 92.907286,151.69493 v 0.30071 q -0.136369,-0.0752 -0.274487,-0.11189 -0.13637,-0.0385 -0.276236,-0.0385 -0.312951,0 -0.486036,0.19931 -0.173084,0.19756 -0.173084,0.55596 0,0.35841 0.173084,0.55772 0.173085,0.19756 0.486036,0.19756 0.139866,0 0.276236,-0.0367 0.138118,-0.0385 0.274487,-0.11364 v 0.29721 q -0.134621,0.0629 -0.279732,0.0944 -0.143363,0.0315 -0.305958,0.0315 -0.442327,0 -0.702828,-0.27798 -0.260501,-0.27799 -0.260501,-0.75004 0,-0.47904 0.262249,-0.75352 0.263998,-0.27449 0.72206,-0.27449 0.148608,0 0.290223,0.0315 0.141614,0.0297 0.274487,0.0909 z"
         style="stroke-width:0.08951443"
         id="path10077"
         inkscape:connector-curvature="0" />
    </g>
    <g
       aria-label="L - ε"
       style="font-style:normal;font-weight:normal;font-size:3.69017982px;line-height:1.25;font-family:sans-serif;letter-spacing:0px;word-spacing:0px;fill:#000000;fill-opacity:1;stroke:none;stroke-width:0.09225449"
       id="text4407">
      <path
         d="m 50.990879,138.65086 h 0.363973 v 2.38384 h 1.309941 v 0.30632 h -1.673914 z"
         style="stroke-width:0.09225449"
         id="path10070"
         inkscape:connector-curvature="0" />
      <path
         d="m 54.0378,140.18243 h 0.971195 v 0.2955 H 54.0378 Z"
         style="stroke-width:0.09225449"
         id="path10072"
         inkscape:connector-curvature="0" />
      <path
         d="m 57.077514,140.2527 q -0.201807,-0.0432 -0.309918,-0.16036 -0.108111,-0.11532 -0.108111,-0.28289 0,-0.25406 0.205411,-0.39641 0.203608,-0.14054 0.55677,-0.14054 0.13694,0 0.290097,0.0216 0.153157,0.0216 0.329738,0.0649 v 0.30091 q -0.174779,-0.0523 -0.318927,-0.0757 -0.145949,-0.0234 -0.27388,-0.0234 -0.21442,0 -0.338747,0.0829 -0.126129,0.0829 -0.126129,0.1982 0,0.12613 0.122525,0.20722 0.120724,0.0793 0.329738,0.0793 h 0.279286 v 0.27388 h -0.266673 q -0.246853,0 -0.376586,0.0919 -0.140544,0.1009 -0.140544,0.25947 0,0.16216 0.151355,0.26307 0.153157,0.1009 0.425236,0.1009 0.167571,0 0.320728,-0.0324 0.153157,-0.0342 0.281088,-0.10091 v 0.30812 q -0.162166,0.0504 -0.313521,0.0757 -0.153157,0.0252 -0.297304,0.0252 -0.42884,0 -0.661278,-0.16397 -0.232438,-0.16396 -0.232438,-0.47568 0,-0.1946 0.124327,-0.32614 0.124328,-0.13153 0.347757,-0.17478 z"
         style="stroke-width:0.09225449"
         id="path10074"
         inkscape:connector-curvature="0" />
    </g>
    <g
       aria-label="L"
       style="font-style:normal;font-weight:normal;font-size:3.69017982px;line-height:1.25;font-family:sans-serif;letter-spacing:0px;word-spacing:0px;fill:#000000;fill-opacity:1;stroke:none;stroke-width:0.09225449"
       id="text4411">
      <path
         d="m 53.636715,130.71347 h 0.363973 v 2.38384 h 1.309941 v 0.30632 h -1.673914 z"
         style="stroke-width:0.09225449"
         id="path10067"
         inkscape:connector-curvature="0" />
    </g>
    <path
       style="fill:none;stroke:#000000;stroke-width:0.26458332;stroke-linecap:butt;stroke-linejoin:miter;stroke-miterlimit:4;stroke-dasharray:1.05833333, 1.05833333;stroke-dashoffset:0;stroke-opacity:1"
       d="m 63.308065,132.17381 c 28.892499,0 28.892499,0 28.892499,0"
       id="path10038"
       inkscape:connector-curvature="0" />
    <path
       inkscape:connector-curvature="0"
       id="path10040"
       d="m 92.334198,148.5613 c 0,-16 0,-16 0,-16"
       style="fill:none;stroke:#000000;stroke-width:0.26458332;stroke-linecap:butt;stroke-linejoin:miter;stroke-miterlimit:4;stroke-dasharray:1.05833333, 1.05833333;stroke-dashoffset:0;stroke-opacity:1" />
  </g>
</svg>
