<?xml version="1.0" encoding="UTF-8" standalone="no"?>
<!-- Created with Inkscape (http://www.inkscape.org/) -->

<svg
   xmlns:dc="http://purl.org/dc/elements/1.1/"
   xmlns:cc="http://creativecommons.org/ns#"
   xmlns:rdf="http://www.w3.org/1999/02/22-rdf-syntax-ns#"
   xmlns:svg="http://www.w3.org/2000/svg"
   xmlns="http://www.w3.org/2000/svg"
   xmlns:sodipodi="http://sodipodi.sourceforge.net/DTD/sodipodi-0.dtd"
   xmlns:inkscape="http://www.inkscape.org/namespaces/inkscape"
   width="125.62416mm"
   height="64.858124mm"
   viewBox="0 0 125.62416 64.858124"
   version="1.1"
   id="svg2150"
   inkscape:version="0.92.4 (unknown)"
   sodipodi:docname="fig_2.svg">
  <defs
     id="defs2144" />
  <sodipodi:namedview
     id="base"
     pagecolor="#ffffff"
     bordercolor="#666666"
     borderopacity="1.0"
     inkscape:pageopacity="0.0"
     inkscape:pageshadow="2"
     inkscape:zoom="1.979899"
     inkscape:cx="48.941033"
     inkscape:cy="130.56366"
     inkscape:document-units="mm"
     inkscape:current-layer="layer3"
     showgrid="false"
     fit-margin-top="0"
     fit-margin-left="0"
     fit-margin-right="0"
     fit-margin-bottom="0"
     inkscape:window-width="1299"
     inkscape:window-height="713"
     inkscape:window-x="67"
     inkscape:window-y="27"
     inkscape:window-maximized="1" />
  <metadata
     id="metadata2147">
    <rdf:RDF>
      <cc:Work
         rdf:about="">
        <dc:format>image/svg+xml</dc:format>
        <dc:type
           rdf:resource="http://purl.org/dc/dcmitype/StillImage" />
        <dc:title />
      </cc:Work>
    </rdf:RDF>
  </metadata>
  <g
     inkscape:label="Layer 1"
     inkscape:groupmode="layer"
     id="layer1"
     transform="translate(-33.19387,-112.62451)">
    <path
       inkscape:connector-curvature="0"
       id="path18"
       style="fill:none;stroke:#000000;stroke-width:0.35268959;stroke-linecap:butt;stroke-linejoin:miter;stroke-miterlimit:10;stroke-dasharray:none;stroke-opacity:1"
       d="m 55.397703,177.48263 v -62.611" />
    <path
       d="M 33.19387,170.53996 H 158.81803"
       style="fill:none;stroke:#000000;stroke-width:0.35268959;stroke-linecap:butt;stroke-linejoin:miter;stroke-miterlimit:10;stroke-dasharray:none;stroke-opacity:1"
       id="path22"
       inkscape:connector-curvature="0" />
    <path
       inkscape:connector-curvature="0"
       id="path42"
       style="fill:none;stroke:#000000;stroke-width:0.26458332;stroke-linecap:butt;stroke-linejoin:miter;stroke-miterlimit:10;stroke-dasharray:none;stroke-opacity:1"
       d="m 53.420043,131.28149 h 3.661833" />
    <path
       d="m 53.420043,127.40799 h 3.6195"
       style="fill:none;stroke:#000000;stroke-width:0.26458332;stroke-linecap:butt;stroke-linejoin:miter;stroke-miterlimit:10;stroke-dasharray:none;stroke-opacity:1"
       id="path46"
       inkscape:connector-curvature="0" />
    <path
       inkscape:connector-curvature="0"
       id="path50"
       style="fill:none;stroke:#000000;stroke-width:0.26458332;stroke-linecap:butt;stroke-linejoin:miter;stroke-miterlimit:10;stroke-dasharray:none;stroke-opacity:1"
       d="m 53.610543,142.85966 h 3.6195" />
    <path
       d="m 53.75871,139.13433 h 3.577167"
       style="fill:none;stroke:#000000;stroke-width:0.26458332;stroke-linecap:butt;stroke-linejoin:miter;stroke-miterlimit:10;stroke-dasharray:none;stroke-opacity:1"
       id="path54"
       inkscape:connector-curvature="0" />
    <path
       inkscape:connector-curvature="0"
       id="path58"
       style="fill:none;stroke:#000000;stroke-width:0.26458332;stroke-linecap:butt;stroke-linejoin:miter;stroke-miterlimit:10;stroke-dasharray:none;stroke-opacity:1"
       d="M 53.801043,135.30316 H 57.37821" />
    <path
       d="m 53.420043,154.60716 h 3.661833"
       style="fill:none;stroke:#000000;stroke-width:0.26458332;stroke-linecap:butt;stroke-linejoin:miter;stroke-miterlimit:10;stroke-dasharray:none;stroke-opacity:1"
       id="path62"
       inkscape:connector-curvature="0" />
    <path
       inkscape:connector-curvature="0"
       id="path66"
       style="fill:none;stroke:#000000;stroke-width:0.26458332;stroke-linecap:butt;stroke-linejoin:miter;stroke-miterlimit:10;stroke-dasharray:none;stroke-opacity:1"
       d="m 53.420043,150.77599 h 3.6195" />
    <path
       inkscape:connector-curvature="0"
       id="path74"
       style="fill:none;stroke:#000000;stroke-width:0.26458332;stroke-linecap:butt;stroke-linejoin:miter;stroke-miterlimit:10;stroke-dasharray:none;stroke-opacity:1"
       d="m 53.75871,162.43882 h 3.577167" />
    <path
       d="M 53.801043,158.58649 H 57.37821"
       style="fill:none;stroke:#000000;stroke-width:0.26458332;stroke-linecap:butt;stroke-linejoin:miter;stroke-miterlimit:10;stroke-dasharray:none;stroke-opacity:1"
       id="path78"
       inkscape:connector-curvature="0" />
    <path
       d="m 55.71236,146.43682 h 53.67867 m 0,0 v 23.26217"
       style="fill:none;stroke:#000000;stroke-width:0.35268956;stroke-linecap:butt;stroke-linejoin:miter;stroke-miterlimit:10;stroke-dasharray:1.41075827, 1.41075827;stroke-dashoffset:0;stroke-opacity:1"
       id="path80"
       inkscape:connector-curvature="0" />
    <path
       inkscape:connector-curvature="0"
       id="path84"
       style="fill:none;stroke:#000000;stroke-width:0.26458332;stroke-linecap:butt;stroke-linejoin:miter;stroke-miterlimit:10;stroke-dasharray:none;stroke-opacity:1"
       d="m 93.26487,172.21498 v -3.57717" />
    <path
       d="m 109.3727,172.21498 v -3.57717"
       style="fill:none;stroke:#000000;stroke-width:0.26458332;stroke-linecap:butt;stroke-linejoin:miter;stroke-miterlimit:10;stroke-dasharray:none;stroke-opacity:1"
       id="path88"
       inkscape:connector-curvature="0" />
    <path
       inkscape:connector-curvature="0"
       id="path92"
       style="fill:none;stroke:#000000;stroke-width:0.26458332;stroke-linecap:round;stroke-linejoin:round;stroke-miterlimit:10;stroke-dasharray:none;stroke-opacity:1"
       d="m 109.3727,172.21498 v -3.57717" />
    <path
       d="m 125.45937,172.21498 v -3.57717"
       style="fill:none;stroke:#000000;stroke-width:0.26458332;stroke-linecap:round;stroke-linejoin:round;stroke-miterlimit:10;stroke-dasharray:none;stroke-opacity:1"
       id="path96"
       inkscape:connector-curvature="0" />
    <g
       aria-label="L"
       style="font-style:normal;font-weight:normal;font-size:7.3907361px;line-height:1.25;font-family:sans-serif;letter-spacing:0px;word-spacing:0px;fill:#000000;fill-opacity:1;stroke:none;stroke-width:0.18476838"
       id="text1917">
      <path
         d="m 44.775144,145.00821 h 0.364485 v 2.38719 h 1.311783 v 0.30675 h -1.676268 z"
         style="font-size:3.69536805px;stroke-width:0.18476838"
         id="path2973"
         inkscape:connector-curvature="0" />
    </g>
    <g
       aria-label="L + ε5"
       style="font-style:normal;font-weight:normal;font-size:7.3907361px;line-height:1.25;font-family:sans-serif;letter-spacing:0px;word-spacing:0px;fill:#000000;fill-opacity:1;stroke:none;stroke-width:0.18476838"
       id="text1917-3">
      <path
         d="m 41.291074,125.64995 h 0.364485 v 2.38719 h 1.311784 v 0.30675 h -1.676269 z"
         style="font-size:3.69536805px;stroke-width:0.18476838"
         id="path2976"
         inkscape:connector-curvature="0" />
      <path
         d="m 45.861566,126.02706 v 1.00504 h 1.005039 v 0.30675 h -1.005039 v 1.00504 h -0.303135 v -1.00504 h -1.005039 v -0.30675 h 1.005039 v -1.00504 z"
         style="font-size:3.69536805px;stroke-width:0.18476838"
         id="path2978"
         inkscape:connector-curvature="0" />
      <path
         d="m 49.14734,127.25404 q -0.20209,-0.0433 -0.310353,-0.16059 -0.108263,-0.11548 -0.108263,-0.28328 0,-0.25442 0.205699,-0.39697 0.203895,-0.14074 0.557553,-0.14074 0.137133,0 0.290505,0.0217 0.153373,0.0217 0.330202,0.065 v 0.30133 q -0.175025,-0.0523 -0.319375,-0.0758 -0.146155,-0.0235 -0.274266,-0.0235 -0.214721,0 -0.339223,0.083 -0.126307,0.083 -0.126307,0.19848 0,0.12631 0.122698,0.20751 0.120893,0.0794 0.330201,0.0794 h 0.279679 v 0.27427 h -0.267048 q -0.2472,0 -0.377115,0.092 -0.140742,0.10104 -0.140742,0.25983 0,0.16239 0.151568,0.26344 0.153372,0.10104 0.425834,0.10104 0.167807,0 0.321179,-0.0325 0.153372,-0.0343 0.281483,-0.10105 v 0.30855 q -0.162394,0.0505 -0.313962,0.0758 -0.153372,0.0253 -0.297722,0.0253 -0.429442,0 -0.662207,-0.16419 -0.232765,-0.1642 -0.232765,-0.47636 0,-0.19487 0.124502,-0.32659 0.124502,-0.13172 0.348245,-0.17503 z"
         style="font-size:3.69536805px;stroke-width:0.18476838"
         id="path2980"
         inkscape:connector-curvature="0" />
      <path
         d="m 50.693062,127.3319 h 0.930067 v 0.19939 h -0.713091 v 0.42926 q 0.05161,-0.0176 0.103211,-0.0258 0.0516,-0.009 0.10321,-0.009 0.293212,0 0.464447,0.16068 0.171236,0.16068 0.171236,0.43513 0,0.28265 -0.175927,0.43981 -0.175927,0.15599 -0.496114,0.15599 -0.110248,0 -0.225187,-0.0188 -0.113766,-0.0188 -0.235742,-0.0563 v -0.23809 q 0.105557,0.0575 0.21815,0.0856 0.112593,0.0281 0.238088,0.0281 0.202902,0 0.321359,-0.10673 0.118458,-0.10673 0.118458,-0.28969 0,-0.18297 -0.118458,-0.2897 -0.118457,-0.10672 -0.321359,-0.10672 -0.095,0 -0.190002,0.0211 -0.09383,0.0211 -0.192346,0.0657 z"
         style="font-size:2.40198898px;baseline-shift:sub;stroke-width:0.18476838"
         id="path2982"
         inkscape:connector-curvature="0" />
    </g>
    <g
       aria-label="L + ε4"
       style="font-style:normal;font-weight:normal;font-size:7.3907361px;line-height:1.25;font-family:sans-serif;letter-spacing:0px;word-spacing:0px;fill:#000000;fill-opacity:1;stroke:none;stroke-width:0.18476838"
       id="text1945">
      <path
         d="m 41.295126,129.50961 h 0.364484 v 2.3872 h 1.311784 v 0.30674 h -1.676268 z"
         style="font-size:3.69536805px;stroke-width:0.18476838"
         id="path2985"
         inkscape:connector-curvature="0" />
      <path
         d="m 45.865618,129.88673 v 1.00504 h 1.005039 v 0.30674 h -1.005039 v 1.00504 h -0.303136 v -1.00504 h -1.005039 v -0.30674 h 1.005039 v -1.00504 z"
         style="font-size:3.69536805px;stroke-width:0.18476838"
         id="path2987"
         inkscape:connector-curvature="0" />
      <path
         d="m 49.151391,131.11371 q -0.20209,-0.0433 -0.310353,-0.16059 -0.108263,-0.11548 -0.108263,-0.28329 0,-0.25442 0.2057,-0.39696 0.203894,-0.14074 0.557553,-0.14074 0.137132,0 0.290505,0.0217 0.153372,0.0216 0.330201,0.065 v 0.30133 q -0.175025,-0.0523 -0.319375,-0.0758 -0.146155,-0.0234 -0.274266,-0.0234 -0.214721,0 -0.339223,0.083 -0.126306,0.083 -0.126306,0.19848 0,0.12631 0.122697,0.2075 0.120894,0.0794 0.330202,0.0794 h 0.279678 v 0.27426 h -0.267048 q -0.2472,0 -0.377115,0.092 -0.140741,0.10105 -0.140741,0.25983 0,0.1624 0.151567,0.26344 0.153373,0.10105 0.425834,0.10105 0.167807,0 0.321179,-0.0325 0.153372,-0.0343 0.281483,-0.10104 v 0.30854 q -0.162394,0.0505 -0.313962,0.0758 -0.153372,0.0253 -0.297722,0.0253 -0.429442,0 -0.662207,-0.1642 -0.232765,-0.1642 -0.232765,-0.47636 0,-0.19487 0.124502,-0.32659 0.124502,-0.13172 0.348245,-0.17502 z"
         style="font-size:3.69536805px;stroke-width:0.18476838"
         id="path2989"
         inkscape:connector-curvature="0" />
      <path
         d="m 51.345697,131.39799 -0.598152,0.93476 h 0.598152 z m -0.06216,-0.20642 h 0.297903 v 1.14118 h 0.249816 v 0.19703 H 51.58144 v 0.41285 h -0.235742 v -0.41285 H 50.5552 v -0.2287 z"
         style="font-size:2.40198922px;baseline-shift:sub;stroke-width:0.18476838"
         id="path2991"
         inkscape:connector-curvature="0" />
    </g>
    <g
       aria-label="L + ε3"
       style="font-style:normal;font-weight:normal;font-size:7.3907361px;line-height:1.25;font-family:sans-serif;letter-spacing:0px;word-spacing:0px;fill:#000000;fill-opacity:1;stroke:none;stroke-width:0.18476838"
       id="text1951">
      <path
         d="m 41.292021,133.43012 h 0.364484 v 2.38719 h 1.311784 v 0.30674 h -1.676268 z"
         style="font-size:3.69536805px;stroke-width:0.18476838"
         id="path2994"
         inkscape:connector-curvature="0" />
      <path
         d="m 45.862512,133.80723 v 1.00504 h 1.005039 v 0.30674 h -1.005039 v 1.00504 h -0.303135 v -1.00504 h -1.005039 v -0.30674 h 1.005039 v -1.00504 z"
         style="font-size:3.69536805px;stroke-width:0.18476838"
         id="path2996"
         inkscape:connector-curvature="0" />
      <path
         d="m 49.148286,135.03421 q -0.20209,-0.0433 -0.310353,-0.16059 -0.108263,-0.11548 -0.108263,-0.28329 0,-0.25442 0.205699,-0.39696 0.203895,-0.14074 0.557553,-0.14074 0.137133,0 0.290505,0.0216 0.153373,0.0217 0.330202,0.065 v 0.30133 q -0.175025,-0.0523 -0.319375,-0.0758 -0.146155,-0.0234 -0.274266,-0.0234 -0.214721,0 -0.339223,0.083 -0.126307,0.083 -0.126307,0.19848 0,0.12631 0.122698,0.2075 0.120894,0.0794 0.330201,0.0794 h 0.279679 v 0.27426 h -0.267048 q -0.2472,0 -0.377115,0.092 -0.140742,0.10104 -0.140742,0.25983 0,0.16239 0.151568,0.26344 0.153372,0.10104 0.425834,0.10104 0.167807,0 0.321179,-0.0325 0.153372,-0.0343 0.281483,-0.10104 v 0.30855 q -0.162394,0.0505 -0.313962,0.0758 -0.153372,0.0253 -0.297722,0.0253 -0.429442,0 -0.662207,-0.1642 -0.232765,-0.1642 -0.232765,-0.47635 0,-0.19488 0.124502,-0.3266 0.124502,-0.13172 0.348245,-0.17502 z"
         style="font-size:3.69536805px;stroke-width:0.18476838"
         id="path2998"
         inkscape:connector-curvature="0" />
      <path
         d="m 51.409444,135.91899 q 0.170063,0.0363 0.265063,0.15129 0.09617,0.11494 0.09617,0.28383 0,0.2592 -0.178273,0.40112 -0.178273,0.14191 -0.50667,0.14191 -0.110247,0 -0.227532,-0.0223 -0.116112,-0.0211 -0.240433,-0.0645 v -0.22871 q 0.09852,0.0575 0.215803,0.0868 0.117285,0.0293 0.245125,0.0293 0.222841,0 0.338953,-0.088 0.117285,-0.088 0.117285,-0.25568 0,-0.15481 -0.109075,-0.2416 -0.107902,-0.088 -0.301422,-0.088 h -0.204075 v -0.19469 h 0.213458 q 0.174754,0 0.267409,-0.0692 0.09266,-0.0704 0.09266,-0.20173 0,-0.13487 -0.09617,-0.20642 -0.095,-0.0727 -0.273274,-0.0727 -0.09735,0 -0.208766,0.0211 -0.111421,0.0211 -0.245125,0.0657 v -0.21112 q 0.134877,-0.0375 0.252162,-0.0563 0.118457,-0.0188 0.222841,-0.0188 0.269754,0 0.426916,0.12315 0.157161,0.12198 0.157161,0.33074 0,0.14544 -0.08327,0.2463 -0.08327,0.0997 -0.236915,0.1384 z"
         style="font-size:2.40198922px;baseline-shift:sub;stroke-width:0.18476838"
         id="path3000"
         inkscape:connector-curvature="0" />
    </g>
    <g
       aria-label="L + ε2"
       style="font-style:normal;font-weight:normal;font-size:7.3907361px;line-height:1.25;font-family:sans-serif;letter-spacing:0px;word-spacing:0px;fill:#000000;fill-opacity:1;stroke:none;stroke-width:0.18476838"
       id="text1965">
      <path
         d="m 41.289427,137.28978 h 0.364484 v 2.38719 h 1.311784 v 0.30675 h -1.676268 z"
         style="font-size:3.69536805px;stroke-width:0.18476838"
         id="path3003"
         inkscape:connector-curvature="0" />
      <path
         d="m 45.859918,137.6669 v 1.00504 h 1.005039 v 0.30674 h -1.005039 v 1.00504 h -0.303135 v -1.00504 h -1.005039 v -0.30674 h 1.005039 v -1.00504 z"
         style="font-size:3.69536805px;stroke-width:0.18476838"
         id="path3005"
         inkscape:connector-curvature="0" />
      <path
         d="m 49.145692,138.89387 q -0.20209,-0.0433 -0.310353,-0.16059 -0.108263,-0.11548 -0.108263,-0.28328 0,-0.25442 0.205699,-0.39697 0.203895,-0.14074 0.557553,-0.14074 0.137133,0 0.290505,0.0216 0.153373,0.0217 0.330202,0.065 v 0.30133 q -0.175025,-0.0523 -0.319375,-0.0758 -0.146155,-0.0235 -0.274266,-0.0235 -0.214721,0 -0.339223,0.083 -0.126307,0.083 -0.126307,0.19849 0,0.1263 0.122698,0.2075 0.120894,0.0794 0.330202,0.0794 h 0.279678 v 0.27427 h -0.267048 q -0.2472,0 -0.377115,0.092 -0.140742,0.10105 -0.140742,0.25983 0,0.1624 0.151568,0.26344 0.153372,0.10105 0.425834,0.10105 0.167807,0 0.321179,-0.0325 0.153372,-0.0343 0.281483,-0.10105 v 0.30855 q -0.162394,0.0505 -0.313962,0.0758 -0.153372,0.0253 -0.297722,0.0253 -0.429442,0 -0.662207,-0.1642 -0.232765,-0.1642 -0.232765,-0.47636 0,-0.19487 0.124502,-0.32659 0.124502,-0.13172 0.348245,-0.17503 z"
         style="font-size:3.69536805px;stroke-width:0.18476838"
         id="path3007"
         inkscape:connector-curvature="0" />
      <path
         d="M 50.893143,140.52341 H 51.72 v 0.19938 h -1.111858 v -0.19938 q 0.134877,-0.13957 0.367101,-0.37414 0.233396,-0.23574 0.293211,-0.30377 0.113766,-0.12784 0.158334,-0.2158 0.04574,-0.0891 0.04574,-0.17475 0,-0.13957 -0.09852,-0.22754 -0.09735,-0.088 -0.254507,-0.088 -0.111421,0 -0.235742,0.0387 -0.123149,0.0387 -0.263891,0.11729 v -0.23926 q 0.143087,-0.0575 0.267409,-0.0868 0.124322,-0.0293 0.227532,-0.0293 0.272101,0 0.433953,0.13605 0.161853,0.13605 0.161853,0.36358 0,0.1079 -0.04105,0.20525 -0.03988,0.0962 -0.146606,0.22753 -0.02932,0.034 -0.186483,0.19704 -0.157161,0.16185 -0.443336,0.45389 z"
         style="font-size:2.40198922px;baseline-shift:sub;stroke-width:0.18476838"
         id="path3009"
         inkscape:connector-curvature="0" />
    </g>
    <g
       aria-label="L + ε1"
       style="font-style:normal;font-weight:normal;font-size:7.3907361px;line-height:1.25;font-family:sans-serif;letter-spacing:0px;word-spacing:0px;fill:#000000;fill-opacity:1;stroke:none;stroke-width:0.18476838"
       id="text1971">
      <path
         d="m 41.290441,140.99394 h 0.364485 v 2.3872 h 1.311783 v 0.30674 h -1.676268 z"
         style="font-size:3.69536805px;stroke-width:0.18476838"
         id="path3012"
         inkscape:connector-curvature="0" />
      <path
         d="m 45.860933,141.37106 v 1.00504 h 1.005039 v 0.30674 h -1.005039 v 1.00504 h -0.303136 v -1.00504 h -1.005039 v -0.30674 h 1.005039 v -1.00504 z"
         style="font-size:3.69536805px;stroke-width:0.18476838"
         id="path3014"
         inkscape:connector-curvature="0" />
      <path
         d="m 49.146707,142.59804 q -0.202091,-0.0433 -0.310353,-0.16059 -0.108263,-0.11548 -0.108263,-0.28329 0,-0.25442 0.205699,-0.39696 0.203895,-0.14075 0.557553,-0.14075 0.137133,0 0.290505,0.0217 0.153372,0.0216 0.330202,0.0649 v 0.30134 q -0.175025,-0.0523 -0.319376,-0.0758 -0.146154,-0.0234 -0.274265,-0.0234 -0.214721,0 -0.339223,0.083 -0.126307,0.083 -0.126307,0.19848 0,0.1263 0.122698,0.2075 0.120893,0.0794 0.330201,0.0794 h 0.279679 v 0.27427 h -0.267048 q -0.2472,0 -0.377115,0.092 -0.140742,0.10105 -0.140742,0.25983 0,0.1624 0.151568,0.26344 0.153372,0.10105 0.425833,0.10105 0.167808,0 0.32118,-0.0325 0.153372,-0.0343 0.281483,-0.10105 v 0.30855 q -0.162394,0.0505 -0.313962,0.0758 -0.153372,0.0253 -0.297723,0.0253 -0.429442,0 -0.662207,-0.1642 -0.232764,-0.1642 -0.232764,-0.47636 0,-0.19487 0.124502,-0.32659 0.124502,-0.13172 0.348245,-0.17502 z"
         style="font-size:3.69536805px;stroke-width:0.18476838"
         id="path3016"
         inkscape:connector-curvature="0" />
      <path
         d="m 50.731132,144.22757 h 0.38704 v -1.33587 l -0.421052,0.0844 v -0.2158 l 0.418706,-0.0844 h 0.236915 v 1.55167 h 0.387039 v 0.19939 h -1.008648 z"
         style="font-size:2.40198922px;baseline-shift:sub;stroke-width:0.18476838"
         id="path3018"
         inkscape:connector-curvature="0" />
    </g>
    <g
       aria-label="L - ε1"
       style="font-style:normal;font-weight:normal;font-size:7.3907361px;line-height:1.25;font-family:sans-serif;letter-spacing:0px;word-spacing:0px;fill:#000000;fill-opacity:1;stroke:none;stroke-width:0.18476838"
       id="text1993">
      <path
         d="m 42.349409,148.93327 h 0.364484 v 2.3872 h 1.311784 v 0.30674 h -1.676268 z"
         style="font-size:3.69536805px;stroke-width:0.18476838"
         id="path3021"
         inkscape:connector-curvature="0" />
      <path
         d="m 45.400614,150.467 h 0.97256 v 0.29592 h -0.97256 z"
         style="font-size:3.69536805px;stroke-width:0.18476838"
         id="path3023"
         inkscape:connector-curvature="0" />
      <path
         d="m 48.444601,150.53737 q -0.202091,-0.0433 -0.310353,-0.16059 -0.108263,-0.11548 -0.108263,-0.28329 0,-0.25442 0.205699,-0.39696 0.203895,-0.14074 0.557553,-0.14074 0.137133,0 0.290505,0.0216 0.153372,0.0216 0.330202,0.065 v 0.30133 q -0.175025,-0.0523 -0.319376,-0.0758 -0.146154,-0.0234 -0.274265,-0.0234 -0.214721,0 -0.339223,0.083 -0.126307,0.083 -0.126307,0.19848 0,0.12631 0.122698,0.2075 0.120893,0.0794 0.330201,0.0794 h 0.279679 v 0.27426 h -0.267048 q -0.2472,0 -0.377115,0.092 -0.140742,0.10105 -0.140742,0.25983 0,0.1624 0.151568,0.26344 0.153372,0.10105 0.425833,0.10105 0.167808,0 0.32118,-0.0325 0.153372,-0.0343 0.281483,-0.10104 v 0.30854 q -0.162394,0.0505 -0.313962,0.0758 -0.153372,0.0253 -0.297723,0.0253 -0.429442,0 -0.662207,-0.1642 -0.232764,-0.1642 -0.232764,-0.47636 0,-0.19487 0.124502,-0.32659 0.124502,-0.13172 0.348245,-0.17502 z"
         style="font-size:3.69536805px;stroke-width:0.18476838"
         id="path3025"
         inkscape:connector-curvature="0" />
      <path
         d="m 50.029026,152.1669 h 0.387039 v -1.33587 l -0.421052,0.0845 v -0.21581 l 0.418707,-0.0844 h 0.236914 v 1.55167 h 0.38704 v 0.19939 h -1.008648 z"
         style="font-size:2.40198922px;baseline-shift:sub;stroke-width:0.18476838"
         id="path3027"
         inkscape:connector-curvature="0" />
    </g>
    <g
       aria-label="L - ε2"
       style="font-style:normal;font-weight:normal;font-size:7.3907361px;line-height:1.25;font-family:sans-serif;letter-spacing:0px;word-spacing:0px;fill:#000000;fill-opacity:1;stroke:none;stroke-width:0.18476838"
       id="text1999">
      <path
         d="m 42.35346,152.79294 h 0.364485 v 2.38719 h 1.311783 v 0.30675 H 42.35346 Z"
         style="font-size:3.69536805px;stroke-width:0.18476838"
         id="path3030"
         inkscape:connector-curvature="0" />
      <path
         d="m 45.404665,154.32666 h 0.97256 v 0.29592 h -0.97256 z"
         style="font-size:3.69536805px;stroke-width:0.18476838"
         id="path3032"
         inkscape:connector-curvature="0" />
      <path
         d="m 48.448652,154.39703 q -0.20209,-0.0433 -0.310353,-0.16059 -0.108263,-0.11548 -0.108263,-0.28328 0,-0.25442 0.205699,-0.39697 0.203895,-0.14074 0.557553,-0.14074 0.137133,0 0.290505,0.0216 0.153373,0.0217 0.330202,0.065 v 0.30133 q -0.175025,-0.0523 -0.319375,-0.0758 -0.146155,-0.0235 -0.274266,-0.0235 -0.214721,0 -0.339223,0.083 -0.126307,0.083 -0.126307,0.19848 0,0.12631 0.122698,0.20751 0.120893,0.0794 0.330201,0.0794 h 0.279679 v 0.27427 h -0.267048 q -0.2472,0 -0.377115,0.092 -0.140742,0.10104 -0.140742,0.25983 0,0.16239 0.151568,0.26344 0.153372,0.10104 0.425834,0.10104 0.167807,0 0.321179,-0.0325 0.153372,-0.0343 0.281483,-0.10105 v 0.30855 q -0.162394,0.0505 -0.313962,0.0758 -0.153372,0.0253 -0.297722,0.0253 -0.429443,0 -0.662207,-0.16419 -0.232765,-0.1642 -0.232765,-0.47636 0,-0.19487 0.124502,-0.32659 0.124502,-0.13172 0.348245,-0.17503 z"
         style="font-size:3.69536805px;stroke-width:0.18476838"
         id="path3034"
         inkscape:connector-curvature="0" />
      <path
         d="m 50.196103,156.02657 h 0.826856 v 0.19938 h -1.111858 v -0.19938 q 0.134877,-0.13957 0.367101,-0.37414 0.233396,-0.23574 0.293212,-0.30377 0.113766,-0.12784 0.158334,-0.2158 0.04574,-0.0891 0.04574,-0.17476 0,-0.13956 -0.09852,-0.22753 -0.09735,-0.088 -0.254508,-0.088 -0.11142,0 -0.235742,0.0387 -0.123149,0.0387 -0.26389,0.11729 v -0.23926 q 0.143087,-0.0575 0.267409,-0.0868 0.124321,-0.0293 0.227532,-0.0293 0.2721,0 0.433953,0.13605 0.161853,0.13606 0.161853,0.36359 0,0.1079 -0.04105,0.20525 -0.03988,0.0962 -0.146606,0.22753 -0.02932,0.034 -0.186482,0.19704 -0.157162,0.16185 -0.443336,0.45389 z"
         style="font-size:2.40198922px;baseline-shift:sub;stroke-width:0.18476838"
         id="path3036"
         inkscape:connector-curvature="0" />
    </g>
    <g
       aria-label="L - ε3"
       style="font-style:normal;font-weight:normal;font-size:7.3907361px;line-height:1.25;font-family:sans-serif;letter-spacing:0px;word-spacing:0px;fill:#000000;fill-opacity:1;stroke:none;stroke-width:0.18476838"
       id="text2005">
      <path
         d="m 42.350355,156.71344 h 0.364484 v 2.38719 h 1.311784 v 0.30675 h -1.676268 z"
         style="font-size:3.69536805px;stroke-width:0.18476838"
         id="path3039"
         inkscape:connector-curvature="0" />
      <path
         d="m 45.40156,158.24716 h 0.97256 v 0.29592 h -0.97256 z"
         style="font-size:3.69536805px;stroke-width:0.18476838"
         id="path3041"
         inkscape:connector-curvature="0" />
      <path
         d="m 48.445547,158.31753 q -0.202091,-0.0433 -0.310353,-0.16059 -0.108263,-0.11548 -0.108263,-0.28328 0,-0.25442 0.205699,-0.39697 0.203895,-0.14074 0.557553,-0.14074 0.137133,0 0.290505,0.0216 0.153372,0.0217 0.330202,0.065 v 0.30133 q -0.175025,-0.0523 -0.319375,-0.0758 -0.146155,-0.0235 -0.274266,-0.0235 -0.214721,0 -0.339223,0.083 -0.126307,0.083 -0.126307,0.19849 0,0.1263 0.122698,0.2075 0.120893,0.0794 0.330201,0.0794 h 0.279679 v 0.27427 h -0.267048 q -0.2472,0 -0.377115,0.092 -0.140742,0.10105 -0.140742,0.25983 0,0.1624 0.151568,0.26344 0.153372,0.10105 0.425833,0.10105 0.167808,0 0.32118,-0.0325 0.153372,-0.0343 0.281483,-0.10105 v 0.30855 q -0.162394,0.0505 -0.313962,0.0758 -0.153372,0.0253 -0.297722,0.0253 -0.429443,0 -0.662208,-0.1642 -0.232764,-0.1642 -0.232764,-0.47636 0,-0.19487 0.124502,-0.32659 0.124502,-0.13172 0.348245,-0.17503 z"
         style="font-size:3.69536805px;stroke-width:0.18476838"
         id="path3043"
         inkscape:connector-curvature="0" />
      <path
         d="m 50.706704,159.20231 q 0.170063,0.0364 0.265064,0.1513 0.09617,0.11494 0.09617,0.28383 0,0.2592 -0.178273,0.40111 -0.178272,0.14192 -0.506669,0.14192 -0.110248,0 -0.227532,-0.0223 -0.116112,-0.0211 -0.240434,-0.0645 v -0.2287 q 0.09852,0.0575 0.215804,0.0868 0.117284,0.0293 0.245125,0.0293 0.22284,0 0.338952,-0.088 0.117285,-0.088 0.117285,-0.25568 0,-0.15482 -0.109075,-0.24161 -0.107902,-0.088 -0.301421,-0.088 h -0.204076 v -0.19469 h 0.213458 q 0.174755,0 0.267409,-0.0692 0.09266,-0.0704 0.09266,-0.20173 0,-0.13488 -0.09617,-0.20642 -0.095,-0.0727 -0.273273,-0.0727 -0.09735,0 -0.208767,0.0211 -0.11142,0.0211 -0.245125,0.0657 v -0.21111 q 0.134877,-0.0375 0.252162,-0.0563 0.118458,-0.0188 0.222841,-0.0188 0.269755,0 0.426916,0.12315 0.157161,0.12197 0.157161,0.33074 0,0.14543 -0.08327,0.2463 -0.08327,0.0997 -0.236915,0.13839 z"
         style="font-size:2.40198922px;baseline-shift:sub;stroke-width:0.18476838"
         id="path3045"
         inkscape:connector-curvature="0" />
    </g>
    <g
       aria-label="L - ε4"
       style="font-style:normal;font-weight:normal;font-size:7.3907361px;line-height:1.25;font-family:sans-serif;letter-spacing:0px;word-spacing:0px;fill:#000000;fill-opacity:1;stroke:none;stroke-width:0.18476838"
       id="text2011">
      <path
         d="m 42.347761,160.57311 h 0.364484 v 2.38719 h 1.311784 v 0.30674 h -1.676268 z"
         style="font-size:3.69536805px;stroke-width:0.18476838"
         id="path3048"
         inkscape:connector-curvature="0" />
      <path
         d="m 45.398966,162.10683 h 0.97256 v 0.29592 h -0.97256 z"
         style="font-size:3.69536805px;stroke-width:0.18476838"
         id="path3050"
         inkscape:connector-curvature="0" />
      <path
         d="m 48.442953,162.1772 q -0.202091,-0.0433 -0.310353,-0.16059 -0.108263,-0.11548 -0.108263,-0.28329 0,-0.25442 0.205699,-0.39696 0.203895,-0.14074 0.557553,-0.14074 0.137133,0 0.290505,0.0217 0.153372,0.0216 0.330202,0.065 v 0.30133 q -0.175025,-0.0523 -0.319375,-0.0758 -0.146155,-0.0234 -0.274266,-0.0234 -0.214721,0 -0.339223,0.083 -0.126307,0.083 -0.126307,0.19848 0,0.12631 0.122698,0.2075 0.120893,0.0794 0.330201,0.0794 h 0.279679 v 0.27426 h -0.267048 q -0.2472,0 -0.377115,0.092 -0.140742,0.10104 -0.140742,0.25983 0,0.16239 0.151568,0.26344 0.153372,0.10104 0.425833,0.10104 0.167808,0 0.32118,-0.0325 0.153372,-0.0343 0.281483,-0.10104 v 0.30855 q -0.162394,0.0505 -0.313962,0.0758 -0.153372,0.0253 -0.297722,0.0253 -0.429443,0 -0.662208,-0.1642 -0.232764,-0.1642 -0.232764,-0.47635 0,-0.19488 0.124502,-0.3266 0.124502,-0.13172 0.348245,-0.17502 z"
         style="font-size:3.69536805px;stroke-width:0.18476838"
         id="path3052"
         inkscape:connector-curvature="0" />
      <path
         d="m 50.637258,162.46148 -0.598152,0.93476 h 0.598152 z m -0.06216,-0.20642 H 50.873 v 1.14118 h 0.249816 v 0.19704 H 50.873 v 0.41284 h -0.235742 v -0.41284 H 49.84676 v -0.22871 z"
         style="font-size:2.40198922px;baseline-shift:sub;stroke-width:0.18476838"
         id="path3054"
         inkscape:connector-curvature="0" />
    </g>
    <g
       aria-label="c + δ"
       style="font-style:normal;font-weight:normal;font-size:7.3907361px;line-height:1.25;font-family:sans-serif;letter-spacing:0px;word-spacing:0px;fill:#000000;fill-opacity:1;stroke:none;stroke-width:0.18476838"
       id="text2051">
      <path
         d="m 122.27328,174.37655 v 0.31036 q -0.14074,-0.0776 -0.28329,-0.11548 -0.14074,-0.0397 -0.28509,-0.0397 -0.32299,0 -0.50162,0.2057 -0.17863,0.20389 -0.17863,0.57379 0,0.3699 0.17863,0.5756 0.17863,0.20389 0.50162,0.20389 0.14435,0 0.28509,-0.0379 0.14255,-0.0397 0.28329,-0.11728 v 0.30674 q -0.13894,0.065 -0.2887,0.0974 -0.14796,0.0325 -0.31577,0.0325 -0.45651,0 -0.72536,-0.2869 -0.26885,-0.2869 -0.26885,-0.77408 0,-0.4944 0.27065,-0.77769 0.27247,-0.28328 0.74521,-0.28328 0.15338,0 0.29953,0.0325 0.14615,0.0307 0.28329,0.0938 z"
         style="font-size:3.69536805px;stroke-width:0.18476838"
         id="path3066"
         inkscape:connector-curvature="0" />
      <path
         d="m 125.38222,174.00305 v 1.00504 h 1.00504 v 0.30674 h -1.00504 v 1.00504 h -0.30313 v -1.00504 h -1.00504 v -0.30674 h 1.00504 v -1.00504 z"
         style="font-size:3.69536805px;stroke-width:0.18476838"
         id="path3068"
         inkscape:connector-curvature="0" />
      <path
         d="m 129.76686,173.97959 q -0.18404,-0.12631 -0.61529,-0.12631 -0.45651,0 -0.45651,0.21112 0,0.166 0.47636,0.25261 0.37531,0.0668 0.58642,0.26885 0.25622,0.24359 0.25622,0.74341 0,0.47816 -0.2472,0.75964 -0.2472,0.28329 -0.68025,0.28329 -0.43124,0 -0.68025,-0.28329 -0.2472,-0.28148 -0.2472,-0.77769 0,-0.36809 0.2472,-0.66581 0.0956,-0.11548 0.23096,-0.18044 -0.28148,-0.14255 -0.28148,-0.39696 0,-0.4908 0.79573,-0.4908 0.39877,0 0.61529,0.12631 z m -0.88053,0.5756 q -0.1227,0.0523 -0.22194,0.18404 -0.15518,0.2039 -0.15518,0.57199 0,0.36629 0.15337,0.57199 0.15518,0.2075 0.42403,0.2075 0.26525,0 0.42042,-0.2093 0.15518,-0.20931 0.15518,-0.55214 0,-0.35908 -0.1642,-0.5323 -0.17502,-0.18585 -0.40238,-0.2057 -0.11548,-0.0108 -0.2093,-0.0361 z"
         style="font-size:3.69536805px;stroke-width:0.18476838"
         id="path3070"
         inkscape:connector-curvature="0" />
    </g>
    <g
       aria-label="c - δ"
       style="font-style:normal;font-weight:normal;font-size:7.3907361px;line-height:1.25;font-family:sans-serif;letter-spacing:0px;word-spacing:0px;fill:#000000;fill-opacity:1;stroke:none;stroke-width:0.18476838"
       id="text2055">
      <path
         d="m 90.995285,174.37655 v 0.31036 q -0.140741,-0.0776 -0.283287,-0.11548 -0.140742,-0.0397 -0.285092,-0.0397 -0.322984,0 -0.501617,0.2057 -0.178634,0.20389 -0.178634,0.57379 0,0.3699 0.178634,0.5756 0.178633,0.20389 0.501617,0.20389 0.14435,0 0.285092,-0.0379 0.142546,-0.0397 0.283287,-0.11728 v 0.30674 q -0.138937,0.065 -0.2887,0.0974 -0.147959,0.0325 -0.315767,0.0325 -0.456507,0 -0.72536,-0.2869 -0.268852,-0.2869 -0.268852,-0.77408 0,-0.4944 0.270657,-0.77769 0.272461,-0.28328 0.745208,-0.28328 0.153372,0 0.299527,0.0325 0.146155,0.0307 0.283287,0.0938 z"
         style="font-size:3.69536805px;stroke-width:0.18476838"
         id="path3073"
         inkscape:connector-curvature="0" />
      <path
         d="m 92.584943,175.15965 h 0.97256 v 0.29592 h -0.97256 z"
         style="font-size:3.69536805px;stroke-width:0.18476838"
         id="path3075"
         inkscape:connector-curvature="0" />
      <path
         d="m 96.727797,173.97959 q -0.184047,-0.12631 -0.615293,-0.12631 -0.456508,0 -0.456508,0.21112 0,0.166 0.476356,0.25261 0.375311,0.0668 0.586423,0.26885 0.256222,0.24359 0.256222,0.74341 0,0.47816 -0.2472,0.75964 -0.2472,0.28329 -0.680251,0.28329 -0.431246,0 -0.680251,-0.28329 -0.2472,-0.28148 -0.2472,-0.77769 0,-0.36809 0.2472,-0.66581 0.09563,-0.11548 0.230961,-0.18044 -0.281483,-0.14255 -0.281483,-0.39696 0,-0.4908 0.795731,-0.4908 0.398768,0 0.615293,0.12631 z m -0.880537,0.5756 q -0.122698,0.0523 -0.221938,0.18404 -0.155177,0.2039 -0.155177,0.57199 0,0.36629 0.153372,0.57199 0.155177,0.2075 0.424029,0.2075 0.265244,0 0.420421,-0.2093 0.155176,-0.20931 0.155176,-0.55214 0,-0.35908 -0.164198,-0.5323 -0.175025,-0.18585 -0.402377,-0.2057 -0.11548,-0.0108 -0.209308,-0.0361 z"
         style="font-size:3.69536805px;stroke-width:0.18476838"
         id="path3077"
         inkscape:connector-curvature="0" />
    </g>
    <g
       aria-label="c"
       style="font-style:normal;font-weight:normal;font-size:7.3907361px;line-height:1.25;font-family:sans-serif;letter-spacing:0px;word-spacing:0px;fill:#000000;fill-opacity:1;stroke:none;stroke-width:0.18476838"
       id="text2059">
      <path
         d="m 110.10245,174.37655 v 0.31036 q -0.14074,-0.0776 -0.28329,-0.11548 -0.14074,-0.0397 -0.28509,-0.0397 -0.32299,0 -0.50162,0.2057 -0.17863,0.20389 -0.17863,0.57379 0,0.3699 0.17863,0.5756 0.17863,0.20389 0.50162,0.20389 0.14435,0 0.28509,-0.0379 0.14255,-0.0397 0.28329,-0.11728 v 0.30674 q -0.13894,0.065 -0.2887,0.0974 -0.14796,0.0325 -0.31577,0.0325 -0.45651,0 -0.72536,-0.2869 -0.26885,-0.2869 -0.26885,-0.77408 0,-0.4944 0.27066,-0.77769 0.27246,-0.28328 0.7452,-0.28328 0.15338,0 0.29953,0.0325 0.14616,0.0307 0.28329,0.0938 z"
         style="font-size:3.69536805px;stroke-width:0.18476838"
         id="path3080"
         inkscape:connector-curvature="0" />
    </g>
    <path
       inkscape:connector-curvature="0"
       id="path26"
       style="fill:none;stroke:#000000;stroke-width:0.35268959;stroke-linecap:butt;stroke-linejoin:miter;stroke-miterlimit:10;stroke-dasharray:none;stroke-opacity:1"
       d="m 39.268703,167.13213 5.376333,-0.23283 5.164667,-0.381 4.995333,-0.508 4.847167,-0.59267 4.614333,-0.8255 4.445,-0.86783 4.360333,-0.99484 4.106333,-1.12183 4.021667,-1.22767 c 6.272388,-2.04011 11.838516,-4.43441 17.652999,-7.53533 l 3.175002,-1.82033 2.94216,-1.82034 2.87867,-1.86266 2.75167,-2.01084 2.6035,-2.0955 2.49766,-2.11666 2.413,-2.20134 2.32834,-2.24366 2.18016,-2.2225 2.05317,-2.32834 c 3.27307,-3.76449 6.43361,-7.99535 9.16517,-12.17083 l 1.60866,-2.49767 1.524,-2.54 1.27,-2.20133" />
  </g>
  <g
     inkscape:groupmode="layer"
     id="layer3"
     inkscape:label="bottom">
    <rect
       style="opacity:1;fill:#ffffff;stroke:none;stroke-width:0.2;stroke-miterlimit:4;stroke-dasharray:1.19999998, 1.19999998;stroke-dashoffset:0;stroke-opacity:1"
       id="rect895"
       width="16.347469"
       height="4.3467264"
       x="5.6401601"
       y="51.219227" />
    <path
       transform="translate(-33.193871,-112.62451)"
       d="m 53.610543,166.12182 h 3.6195"
       style="fill:none;stroke:#000000;stroke-width:0.26458332;stroke-linecap:butt;stroke-linejoin:miter;stroke-miterlimit:10;stroke-dasharray:none;stroke-opacity:1"
       id="path70"
       inkscape:connector-curvature="0" />
  </g>
  <g
     inkscape:groupmode="layer"
     id="layer2"
     inkscape:label="top">
    <g
       transform="translate(-33.193871,-112.62451)"
       aria-label="L - ε5"
       style="font-style:normal;font-weight:normal;font-size:7.3907361px;line-height:1.25;font-family:sans-serif;letter-spacing:0px;word-spacing:0px;fill:#000000;fill-opacity:1;stroke:none;stroke-width:0.18476838"
       id="text2017">
      <path
         d="m 42.348776,164.27728 h 0.364484 v 2.3872 h 1.311784 v 0.30674 h -1.676268 z"
         style="font-size:3.69536805px;stroke-width:0.18476838"
         id="path3057"
         inkscape:connector-curvature="0" />
      <path
         d="m 45.39998,165.81101 h 0.972561 v 0.29591 H 45.39998 Z"
         style="font-size:3.69536805px;stroke-width:0.18476838"
         id="path3059"
         inkscape:connector-curvature="0" />
      <path
         d="m 48.443968,165.88138 q -0.202091,-0.0433 -0.310354,-0.16059 -0.108262,-0.11548 -0.108262,-0.28329 0,-0.25442 0.205699,-0.39696 0.203895,-0.14075 0.557553,-0.14075 0.137133,0 0.290505,0.0217 0.153372,0.0216 0.330201,0.065 v 0.30133 q -0.175024,-0.0523 -0.319375,-0.0758 -0.146154,-0.0234 -0.274265,-0.0234 -0.214721,0 -0.339224,0.083 -0.126306,0.083 -0.126306,0.19848 0,0.12631 0.122698,0.2075 0.120893,0.0794 0.330201,0.0794 h 0.279679 v 0.27427 H 48.81567 q -0.2472,0 -0.377116,0.092 -0.140741,0.10105 -0.140741,0.25983 0,0.1624 0.151568,0.26344 0.153372,0.10105 0.425833,0.10105 0.167807,0 0.32118,-0.0325 0.153372,-0.0343 0.281483,-0.10105 v 0.30855 q -0.162394,0.0505 -0.313962,0.0758 -0.153372,0.0253 -0.297723,0.0253 -0.429442,0 -0.662207,-0.1642 -0.232765,-0.1642 -0.232765,-0.47636 0,-0.19487 0.124502,-0.32659 0.124503,-0.13172 0.348246,-0.17502 z"
         style="font-size:3.69536805px;stroke-width:0.18476838"
         id="path3061"
         inkscape:connector-curvature="0" />
      <path
         d="m 49.989689,165.95924 h 0.930067 v 0.19938 h -0.713091 v 0.42926 q 0.05161,-0.0176 0.103211,-0.0258 0.0516,-0.009 0.10321,-0.009 0.293212,0 0.464447,0.16068 0.171236,0.16068 0.171236,0.43512 0,0.28266 -0.175927,0.43982 -0.175927,0.15599 -0.496114,0.15599 -0.110248,0 -0.225186,-0.0188 -0.113767,-0.0188 -0.235743,-0.0563 v -0.23809 q 0.105557,0.0575 0.21815,0.0856 0.112593,0.0281 0.238088,0.0281 0.202902,0 0.32136,-0.10672 0.118457,-0.10673 0.118457,-0.2897 0,-0.18296 -0.118457,-0.28969 -0.118458,-0.10673 -0.32136,-0.10673 -0.095,0 -0.190001,0.0211 -0.09383,0.0211 -0.192347,0.0657 z"
         style="font-size:2.40198922px;baseline-shift:sub;stroke-width:0.18476838"
         id="path3063"
         inkscape:connector-curvature="0" />
    </g>
  </g>
</svg>
