<?xml version="1.0" encoding="UTF-8" standalone="no"?>
<!-- Created with Inkscape (http://www.inkscape.org/) -->

<svg
   xmlns:dc="http://purl.org/dc/elements/1.1/"
   xmlns:cc="http://creativecommons.org/ns#"
   xmlns:rdf="http://www.w3.org/1999/02/22-rdf-syntax-ns#"
   xmlns:svg="http://www.w3.org/2000/svg"
   xmlns="http://www.w3.org/2000/svg"
   xmlns:sodipodi="http://sodipodi.sourceforge.net/DTD/sodipodi-0.dtd"
   xmlns:inkscape="http://www.inkscape.org/namespaces/inkscape"
   version="1.1"
   id="svg2"
   xml:space="preserve"
   width="450.39999"
   height="179.7227"
   viewBox="0 0 450.4 179.72269"
   sodipodi:docname="fig_1_gh.svg"
   inkscape:version="0.92.4 (unknown)"><metadata
     id="metadata8"><rdf:RDF><cc:Work
         rdf:about=""><dc:format>image/svg+xml</dc:format><dc:type
           rdf:resource="http://purl.org/dc/dcmitype/StillImage" /><dc:title /></cc:Work></rdf:RDF></metadata><defs
     id="defs6"><clipPath
   clipPathUnits="userSpaceOnUse"
   id="clipPath1254"><path
     d="m 299.46,390.32 h 6.6 v 14.64 h -6.6 z"
     id="path1252"
     inkscape:connector-curvature="0" /></clipPath><clipPath
   clipPathUnits="userSpaceOnUse"
   id="clipPath1310"><path
     d="m 319.92,314.18 h 15.18 v 14.64 h -15.18 z"
     id="path1308"
     inkscape:connector-curvature="0" /></clipPath><clipPath
   clipPathUnits="userSpaceOnUse"
   id="clipPath1326"><path
     d="m 310.2,314.18 h 6.6 v 14.64 h -6.6 z"
     id="path1324"
     inkscape:connector-curvature="0" /></clipPath><clipPath
   clipPathUnits="userSpaceOnUse"
   id="clipPath1338"><path
     d="m 247.74,314.18 h 12.48 v 14.64 h -12.48 z"
     id="path1336"
     inkscape:connector-curvature="0" /></clipPath><clipPath
   clipPathUnits="userSpaceOnUse"
   id="clipPath1390"><path
     d="m 319.92,244.82 h 15.18 v 14.64 h -15.18 z"
     id="path1388"
     inkscape:connector-curvature="0" /></clipPath><clipPath
   clipPathUnits="userSpaceOnUse"
   id="clipPath1406"><path
     d="m 310.2,244.82 h 6.6 v 14.64 h -6.6 z"
     id="path1404"
     inkscape:connector-curvature="0" /></clipPath><clipPath
   clipPathUnits="userSpaceOnUse"
   id="clipPath1418"><path
     d="m 247.74,244.82 h 12.48 v 14.64 h -12.48 z"
     id="path1416"
     inkscape:connector-curvature="0" /></clipPath><clipPath
   clipPathUnits="userSpaceOnUse"
   id="clipPath1470"><path
     d="m 319.86,175.46 h 8.58 v 14.64 h -8.58 z"
     id="path1468"
     inkscape:connector-curvature="0" /></clipPath><clipPath
   clipPathUnits="userSpaceOnUse"
   id="clipPath1482"><path
     d="m 310.32,175.46 h 6.6 v 14.64 h -6.6 z"
     id="path1480"
     inkscape:connector-curvature="0" /></clipPath><clipPath
   clipPathUnits="userSpaceOnUse"
   id="clipPath1494"><path
     d="m 247.8,175.46 h 12.48 V 190.1 H 247.8 Z"
     id="path1492"
     inkscape:connector-curvature="0" /></clipPath><clipPath
   clipPathUnits="userSpaceOnUse"
   id="clipPath1546"><path
     d="m 319.86,106.1 h 8.58 v 14.64 h -8.58 z"
     id="path1544"
     inkscape:connector-curvature="0" /></clipPath><clipPath
   clipPathUnits="userSpaceOnUse"
   id="clipPath1558"><path
     d="m 310.32,106.1 h 6.6 v 14.64 h -6.6 z"
     id="path1556"
     inkscape:connector-curvature="0" /></clipPath><clipPath
   clipPathUnits="userSpaceOnUse"
   id="clipPath1570"><path
     d="m 247.8,106.1 h 12.48 v 14.64 H 247.8 Z"
     id="path1568"
     inkscape:connector-curvature="0" /></clipPath>





</defs><sodipodi:namedview
     pagecolor="#ffffff"
     bordercolor="#666666"
     borderopacity="1"
     objecttolerance="10"
     gridtolerance="10"
     guidetolerance="10"
     inkscape:pageopacity="0"
     inkscape:pageshadow="2"
     inkscape:window-width="1299"
     inkscape:window-height="713"
     id="namedview4"
     showgrid="false"
     fit-margin-top="0"
     fit-margin-left="0"
     fit-margin-right="0"
     fit-margin-bottom="0"
     inkscape:zoom="1.1891486"
     inkscape:cx="253.04991"
     inkscape:cy="-14.017405"
     inkscape:window-x="67"
     inkscape:window-y="27"
     inkscape:window-maximized="1"
     inkscape:current-layer="g10" /><g
     id="g10"
     inkscape:groupmode="layer"
     inkscape:label="TP4 Matemática-2017"
     transform="matrix(1.3333333,0,0,-1.3333333,-66.49493,1037.706)"><g
   aria-label="g)"
   transform="scale(1,-1)"
   style="font-style:normal;font-weight:normal;font-size:12.97472286px;line-height:1.25;font-family:sans-serif;letter-spacing:0px;word-spacing:0px;fill:#000000;fill-opacity:1;stroke:none;stroke-width:0.32436809"
   id="text8456"><path
     d="m 57.880894,-769.50227 q 0,-1.26706 -0.525831,-1.96394 -0.519496,-0.69689 -1.463458,-0.69689 -0.937626,0 -1.463457,0.69689 -0.519496,0.69688 -0.519496,1.96394 0,1.26073 0.519496,1.95762 0.525831,0.69688 1.463457,0.69688 0.943962,0 1.463458,-0.69688 0.525831,-0.69689 0.525831,-1.95762 z m 1.165698,2.74953 q 0,1.8119 -0.804585,2.69251 -0.804585,0.88694 -2.464437,0.88694 -0.614526,0 -1.159363,-0.095 -0.544837,-0.0887 -1.057997,-0.27875 v -1.13402 q 0.51316,0.27875 1.01365,0.41179 0.50049,0.13304 1.019985,0.13304 1.146692,0 1.71687,-0.60185 0.570179,-0.59552 0.570179,-1.80556 v -0.57652 q -0.361113,0.6272 -0.924956,0.93763 -0.563843,0.31043 -1.349422,0.31043 -1.305075,0 -2.103324,-0.99465 -0.79825,-0.99464 -0.79825,-2.63549 0,-1.64718 0.79825,-2.64182 0.798249,-0.99465 2.103324,-0.99465 0.785579,0 1.349422,0.31043 0.563843,0.31043 0.924956,0.93763 v -1.077 h 1.165698 z"
     style="stroke-width:0.32436809"
     id="path1181" /><path
     d="m 61.263952,-775.71721 h 1.01365 q 0.950297,1.49513 1.41911,2.92692 0.475149,1.43178 0.475149,2.84455 0,1.41911 -0.475149,2.85723 -0.468813,1.43811 -1.41911,2.92691 h -1.01365 q 0.842597,-1.45078 1.254392,-2.88256 0.418131,-1.43812 0.418131,-2.90158 0,-1.46346 -0.418131,-2.8889 -0.411795,-1.42545 -1.254392,-2.88257 z"
     style="stroke-width:0.32436809"
     id="path1183" /></g>
<g
   aria-label="h)"
   transform="scale(1,-1)"
   style="font-style:normal;font-weight:normal;font-size:12.97472286px;line-height:1.25;font-family:sans-serif;letter-spacing:0px;word-spacing:0px;fill:#000000;fill-opacity:1;stroke:none;stroke-width:0.32436809"
   id="text8460"><path
     d="m 234.60995,-770.1548 v 4.28267 h -1.1657 v -4.24466 q 0,-1.00732 -0.39278,-1.50781 -0.39279,-0.50049 -1.17837,-0.50049 -0.94397,0 -1.4888,0.60186 -0.54484,0.60185 -0.54484,1.64084 v 4.01026 h -1.17203 v -9.85775 h 1.17203 v 3.86454 q 0.41813,-0.63986 0.98197,-0.95663 0.57018,-0.31677 1.31141,-0.31677 1.22272,0 1.84992,0.76024 0.62719,0.7539 0.62719,2.2237 z"
     style="stroke-width:0.32436809"
     id="path1176" /><path
     d="m 236.76396,-775.71721 h 1.01365 q 0.9503,1.49513 1.41911,2.92692 0.47515,1.43178 0.47515,2.84455 0,1.41911 -0.47515,2.85723 -0.46881,1.43811 -1.41911,2.92691 h -1.01365 q 0.8426,-1.45078 1.25439,-2.88256 0.41813,-1.43812 0.41813,-2.90158 0,-1.46346 -0.41813,-2.8889 -0.41179,-1.42545 -1.25439,-2.88257 z"
     style="stroke-width:0.32436809"
     id="path1178" /></g>

<path
   inkscape:connector-curvature="0"
   id="path3206"
   style="fill:none;stroke:#000000;stroke-width:0.99974996;stroke-linecap:round;stroke-linejoin:round;stroke-miterlimit:4;stroke-dasharray:none;stroke-opacity:1"
   d="m 319.65672,774.09905 -2.34,3.3 -2.34,-3.3" /><path
   d="M 317.31672,776.73905 V 638.97904"
   style="fill:none;stroke:#000000;stroke-width:0.99974996;stroke-linecap:round;stroke-linejoin:round;stroke-miterlimit:4;stroke-dasharray:none;stroke-opacity:1"
   id="path3210"
   inkscape:connector-curvature="0" /><path
   inkscape:connector-curvature="0"
   id="path3214"
   style="fill:none;stroke:#000000;stroke-width:0.99974996;stroke-linecap:round;stroke-linejoin:round;stroke-miterlimit:4;stroke-dasharray:none;stroke-opacity:1"
   d="M 214.29673,680.91904 H 386.19672" /><path
   d="m 383.25672,683.01904 3.66,-2.1 -3.66,-2.1"
   style="fill:none;stroke:#000000;stroke-width:0.99974996;stroke-linecap:round;stroke-linejoin:round;stroke-miterlimit:4;stroke-dasharray:none;stroke-opacity:1"
   id="path3218"
   inkscape:connector-curvature="0" /><path
   inkscape:connector-curvature="0"
   id="path3222"
   style="fill:none;stroke:#000000;stroke-width:0.99974996;stroke-linecap:round;stroke-linejoin:round;stroke-miterlimit:4;stroke-dasharray:none;stroke-opacity:1"
   d="m 223.71673,676.53904 3.54,1.08 3.59999,1.32 c 15.615,6.046 29.882,16.018 46.2,19.92 l 3.6,0.66 3.66,0.48 c 22.658,1.97001 39.16601,-14.91699 51.36,-31.86 l 4.32,-6.42 4.44,-7.14" /><path
   d="m 344.37672,654.69904 h 0.12 l 0.06,0.06 h 0.12 l 0.06,0.06 h 0.54 l 0.06,-0.06 h 0.12 l 0.06,-0.06 h 0.12 l 0.06,-0.06 h 0.12 v -0.06 l 0.06,-0.06 h 0.06 l 0.06,-0.06 v -0.06 l 0.06,-0.06 h 0.06 v -0.06 l 0.06,-0.06 0.06,-0.06 v -0.12 l 0.06,-0.06 v -0.12 l 0.06,-0.06 v -0.42 l -0.06,-0.06 v -0.12 l -0.06,-0.06 v -0.12 l -0.06,-0.06 v -0.06 h -0.06 l -0.06,-0.06 v -0.06 l -0.06,-0.06 h -0.06 l -0.06,-0.06 v -0.06 h -0.06 l -0.12,-0.06 -0.06,-0.06 h -0.12 l -0.06,-0.06 h -0.12 l -0.06,-0.06 h -0.54 l -0.06,0.06 h -0.12 l -0.06,0.06 h -0.12 l -0.06,0.06 h -0.06 v 0.06 l -0.06,0.06 h -0.12 l -0.06,0.06 v 0.06 l -0.06,0.06 h -0.06 v 0.06 l -0.12,0.12 v 0.12 l -0.06,0.06 v 0.12 l -0.06,0.06 v 0.42 l 0.06,0.06 v 0.12 l 0.06,0.06 v 0.12 l 0.06,0.06 v 0.06 h 0.06 l 0.06,0.06 v 0.06 l 0.06,0.06 h 0.06 l 0.12,0.06 v 0.06 h 0.06 l 0.12,0.12"
   style="fill:none;stroke:#000000;stroke-width:0.99974996;stroke-linecap:round;stroke-linejoin:round;stroke-miterlimit:4;stroke-dasharray:none;stroke-opacity:1"
   id="path3226"
   inkscape:connector-curvature="0" /><path
   inkscape:connector-curvature="0"
   id="path3230"
   style="fill:#000000;fill-opacity:1;fill-rule:evenodd;stroke:#000000;stroke-width:0.06;stroke-linecap:round;stroke-linejoin:round;stroke-miterlimit:10;stroke-dasharray:none;stroke-opacity:1"
   d="m 343.5712,694.05904 -0.06,-0.06 -0.12,-0.12 v -0.06 l -0.06,-0.12 -0.06,-0.06 v -0.06 l -0.06,-0.06 v -0.18 l -0.06,-0.06 v -0.54 l 0.06,-0.06 v -0.18 l 0.06,-0.06 v -0.06 l 0.06,-0.06 0.06,-0.12 v -0.06 l 0.12,-0.12 0.06,-0.06 0.06,-0.06 0.12,-0.06 0.24,-0.24 h 0.06 l 0.12,-0.06 0.06,-0.06 h 0.06 l 0.06,-0.06 h 0.24 l 0.06,-0.06 h 0.66 l 0.06,0.06 h 0.18 l 0.06,0.06 h 0.06 l 0.12,0.06 0.06,0.06 h 0.06 l 0.12,0.12 0.12,0.06 0.06,0.06 0.3,0.3 v 0.06 l 0.06,0.12 0.06,0.06 v 0.06 l 0.06,0.06 v 0.18 l 0.06,0.06 v 0.54 l -0.06,0.06 v 0.18 l -0.06,0.06 v 0.06 l -0.06,0.06 -0.06,0.12 v 0.06 l -0.3,0.3 -0.06,0.06 -0.12,0.06 -0.12,0.12 h -0.06 l -0.12,0.06 -0.06,0.06 h -0.06 l -0.06,0.06 h -0.18 l -0.06,0.06 h -0.66 l -0.06,-0.06 h -0.24 l -0.06,-0.06 h -0.06 l -0.12,-0.06 -0.06,-0.06 h -0.06 l -0.24,-0.24 -0.12,-0.06 z" /><path
   inkscape:connector-curvature="0"
   id="path3234"
   style="fill:none;stroke:#000000;stroke-width:0.99974996;stroke-linecap:round;stroke-linejoin:round;stroke-miterlimit:4;stroke-dasharray:none;stroke-opacity:1"
   d="m 344.61672,692.97904 44.64,46.80001" /><path
   inkscape:connector-curvature="0"
   id="path3370"
   style="fill:#000000;fill-opacity:1;fill-rule:evenodd;stroke:none"
   d="m 352.29672,672.27904 v -0.78 h -5.16 v 0.18 l 0.06,0.12 v 0.18 l 0.06,0.12 0.18,0.18 0.24,0.48 0.18,0.24 0.24,0.24 0.3,0.24 c 0.924,0.748 1.462,1.077 2.4,1.98 l 0.18,0.3 0.12,0.24 0.12,0.3 c 0.244,1.582 -2.363,1.89 -2.82,0.6 l -0.12,-0.3 v -0.24 l -0.9,0.12 0.06,0.48 0.18,0.42 0.18,0.36 c 0.869,0.825 1.03,0.595 2.04,0.72 l 0.48,-0.06 h 0.48 c 1.174,-0.645 1.133,-0.842 1.38,-1.92 v -0.12 l -0.12,-0.24 v -0.18 c -0.52,-1.634 -2.338,-2.218 -3.42,-3.42 l -0.06,-0.12 -0.12,-0.12 h 3.84" /><path
   inkscape:connector-curvature="0"
   id="path3374"
   style="fill:none;stroke:#000000;stroke-width:0.375;stroke-linecap:round;stroke-linejoin:round;stroke-miterlimit:4;stroke-dasharray:none;stroke-opacity:1"
   d="m 301.23673,677.87605 v 6.12" /><path
   d="m 330.33673,677.87605 v 6.12"
   style="fill:none;stroke:#000000;stroke-width:0.375;stroke-linecap:round;stroke-linejoin:round;stroke-miterlimit:4;stroke-dasharray:none;stroke-opacity:1"
   id="path3378"
   inkscape:connector-curvature="0" /><path
   inkscape:connector-curvature="0"
   id="path3382"
   style="fill:none;stroke:#000000;stroke-width:0.375;stroke-linecap:round;stroke-linejoin:round;stroke-miterlimit:4;stroke-dasharray:none;stroke-opacity:1"
   d="m 344.97673,677.55904 v 6.12" /><path
   d="m 286.65673,677.928 v 6.12"
   style="fill:none;stroke:#000000;stroke-width:0.375;stroke-linecap:round;stroke-linejoin:round;stroke-miterlimit:4;stroke-dasharray:none;stroke-opacity:1"
   id="path3386"
   inkscape:connector-curvature="0" /><path
   inkscape:connector-curvature="0"
   id="path3390"
   style="fill:none;stroke:#000000;stroke-width:0.375;stroke-linecap:round;stroke-linejoin:round;stroke-miterlimit:4;stroke-dasharray:none;stroke-opacity:1"
   d="m 358.89673,678.00501 v 6.12" /><path
   d="m 320.73673,693.69904 h -6.78"
   style="fill:none;stroke:#000000;stroke-width:0.375;stroke-linecap:round;stroke-linejoin:round;stroke-miterlimit:4;stroke-dasharray:none;stroke-opacity:1"
   id="path3394"
   inkscape:connector-curvature="0" /><path
   inkscape:connector-curvature="0"
   id="path3398"
   style="fill:none;stroke:#000000;stroke-width:0.375;stroke-linecap:round;stroke-linejoin:round;stroke-miterlimit:4;stroke-dasharray:none;stroke-opacity:1"
   d="m 320.73673,706.29904 h -6.78" /><path
   d="m 320.65076,667.11904 h -6.84"
   style="fill:none;stroke:#000000;stroke-width:0.375;stroke-linecap:round;stroke-linejoin:round;stroke-miterlimit:4;stroke-dasharray:none;stroke-opacity:1"
   id="path3402"
   inkscape:connector-curvature="0" /><path
   inkscape:connector-curvature="0"
   id="path2081"
   style="fill:none;stroke:#000000;stroke-width:0.375;stroke-linecap:round;stroke-linejoin:round;stroke-miterlimit:4;stroke-dasharray:none;stroke-opacity:1"
   d="m 320.65076,653.61904 h -6.84" /><path
   inkscape:connector-curvature="0"
   id="path3406"
   style="fill:#000000;fill-opacity:1;fill-rule:evenodd;stroke:none"
   d="m 310.83673,689.31904 h -0.9 v 5.52 l -0.24,-0.18 c -0.709,-0.538 -0.674,-0.464 -1.44,-0.84 l -0.3,-0.06 v 0.84 l 0.42,0.18 c 0.689,0.273 1.277,0.754 1.74,1.32 l 0.12,0.24 h 0.6 v -7.02" /><path
   inkscape:connector-curvature="0"
   id="path3410"
   style="fill:#000000;fill-opacity:1;fill-rule:evenodd;stroke:none"
   d="m 270.03673,732.99905 0.9,-0.18 -0.06,-0.42 -0.18,-0.3 -0.24,-0.36 c -0.641,-0.659 -1.511,-0.849 -2.4,-0.66 l -0.48,0.12 -0.48,0.18 c -0.514,0.37 -1.029,0.937 -0.96,1.62 l -0.06,0.3 v 0.72 c 0.027,2.35 3.271,3.054 4.44,1.32 l 0.18,-0.36 0.12,-0.36 -0.96,-0.12 -0.12,0.24 -0.12,0.18 -0.24,0.24 -0.18,0.12 -0.24,0.06 -0.18,0.06 h -0.54 l -0.6,-0.24 -0.42,-0.42 -0.12,-0.36 -0.12,-0.3 v -0.9 l 0.24,-0.72 0.24,-0.24 0.18,-0.12 0.6,-0.24 h 0.36 c 0.467,-0.05 0.721,0.187 1.08,0.42 l 0.18,0.18 0.12,0.24 z m 6.78,2.16 h -5.16 v 0.90002 h 5.16 z m 0,-2.1 h -5.16 v 0.83997 h 5.16 z m 6.06,-1.14 v -0.84 h -5.16 v 0.18 l 0.12,0.12 c 0.242,1.701 2.93,2.582 3.72,3.96 l 0.12,0.24 0.18,0.3 c 0.157,1.513 -2.339,1.935 -2.88,0.6 l -0.12,-0.24 v -0.24 l -0.9,0.12 0.06,0.42 0.18,0.42 c 0.947,1.882 4.776,1.383 4.56,-1.02 l -0.06,-0.24 v -0.18 l -0.06,-0.24 -0.18,-0.18 -0.12,-0.24 -0.36,-0.48 -0.3,-0.18 -0.24,-0.3 -0.36,-0.3 c -0.644,-0.52 -1.164,-0.83 -1.74,-1.38 l -0.12,-0.06 -0.06,-0.12 -0.12,-0.12 h 3.84" /><g
   aria-label=" "
   transform="scale(1,-1)"
   style="font-variant:normal;font-weight:normal;font-stretch:normal;font-size:10.99989986px;font-family:Calibri;-inkscape-font-specification:Calibri;writing-mode:lr-tb;fill:#000000;fill-opacity:1;fill-rule:nonzero;stroke:none;stroke-width:0.99999994"
   id="text3414" /><g
   aria-label="y"
   transform="scale(1,-1)"
   style="font-style:normal;font-weight:normal;font-size:9.41431713px;line-height:1.25;font-family:sans-serif;letter-spacing:0px;word-spacing:0px;fill:#000000;fill-opacity:1;stroke:none;stroke-width:0.23535794"
   id="text4255"><path
     d="m 311.25798,-772.28749 q -0.35855,0.91936 -0.69872,1.19977 -0.34016,0.28041 -0.91017,0.28041 h -0.67573 v -0.70791 h 0.49645 q 0.34936,0 0.54243,-0.16549 0.19307,-0.16549 0.42751,-0.78146 l 0.15169,-0.38614 -2.08236,-5.06571 h 0.89638 l 1.60889,4.02683 1.60889,-4.02683 h 0.89638 z"
     style="stroke-width:0.23535794"
     id="path1172" /></g><g
   aria-label="x"
   transform="scale(1,-1)"
   style="font-style:normal;font-weight:normal;font-size:9.41431713px;line-height:1.25;font-family:sans-serif;letter-spacing:0px;word-spacing:0px;fill:#000000;fill-opacity:1;stroke:none;stroke-width:0.23535794"
   id="text4259"><path
     d="m 387.02384,-676.71077 -1.86172,2.50527 1.95825,2.64318 h -0.99751 l -1.49857,-2.0226 -1.49857,2.0226 h -0.99751 l 1.99962,-2.69374 -1.82954,-2.45471 h 0.99751 l 1.36526,1.83414 1.36526,-1.83414 z"
     style="stroke-width:0.23535794"
     id="path1169" /></g><path
   style="fill:none;stroke:#000000;stroke-width:0.60000002;stroke-linecap:butt;stroke-linejoin:miter;stroke-miterlimit:4;stroke-dasharray:2.40000006, 2.40000006;stroke-dashoffset:0;stroke-opacity:1"
   d="m 344.95119,691.19521 v -36.975"
   id="path5929"
   inkscape:connector-curvature="0" /><path
   inkscape:connector-curvature="0"
   id="path2910"
   style="fill:none;stroke:#000000;stroke-width:0.99974996;stroke-linecap:round;stroke-linejoin:round;stroke-miterlimit:4;stroke-dasharray:none;stroke-opacity:1"
   d="m 104.12656,774.61779 -2.28,3.18 -2.280004,-3.18" /><path
   d="M 101.84656,777.19779 V 642.91778"
   style="fill:none;stroke:#000000;stroke-width:0.99974996;stroke-linecap:round;stroke-linejoin:round;stroke-miterlimit:4;stroke-dasharray:none;stroke-opacity:1"
   id="path2914"
   inkscape:connector-curvature="0" /><path
   inkscape:connector-curvature="0"
   id="path2918"
   style="fill:none;stroke:#000000;stroke-width:0.99974996;stroke-linecap:round;stroke-linejoin:round;stroke-miterlimit:4;stroke-dasharray:none;stroke-opacity:1"
   d="M 37.586559,683.83778 H 205.46657" /><path
   d="m 202.64657,685.87778 3.54,-2.04 -3.54,-2.04"
   style="fill:none;stroke:#000000;stroke-width:0.99974996;stroke-linecap:round;stroke-linejoin:round;stroke-miterlimit:4;stroke-dasharray:none;stroke-opacity:1"
   id="path2922"
   inkscape:connector-curvature="0" /><path
   inkscape:connector-curvature="0"
   id="path2926"
   style="fill:none;stroke:#000000;stroke-width:0.99974996;stroke-linecap:round;stroke-linejoin:round;stroke-miterlimit:4;stroke-dasharray:none;stroke-opacity:1"
   d="m 43.886559,704.89778 4.92,-5.22 4.44,-4.8 4.080001,-4.32 3.84,-3.96 3.48,-3.48 3.24,-3.06 2.88,-2.76 2.639999,-2.28 2.46,-1.92 c 2.453001,-1.803 6.287001,-4.422 9.48,-4.38 l 1.44,0.06 1.439997,0.42 1.32,0.66 1.26,0.96 1.26,1.26 1.26,1.5 1.26,1.74 1.26,1.92 1.32,2.22 1.5,2.4 c 2.900004,4.963 5.803004,9.943 8.940004,14.76 l 2.34,3.48 2.52,3.54 2.7,3.72001" /><path
   d="m 116.96656,708.97779 3.66,3.42 c 35.41701,31.136 41.989,-47.702 48.18,-28.86001 l 0.54,2.28"
   style="fill:none;stroke:#000000;stroke-width:0.99974996;stroke-linecap:round;stroke-linejoin:round;stroke-miterlimit:4;stroke-dasharray:none;stroke-opacity:1"
   id="path2930"
   inkscape:connector-curvature="0" /><path
   inkscape:connector-curvature="0"
   id="path2934"
   style="fill:none;stroke:#000000;stroke-width:0.99974996;stroke-linecap:round;stroke-linejoin:round;stroke-miterlimit:4;stroke-dasharray:none;stroke-opacity:1"
   d="m 116.36656,706.99779 h 0.3 l 0.06,0.06 h 0.12 l 0.06,0.06 h 0.12 l 0.18,0.18 h 0.06 l 0.06,0.06 v 0.06 h 0.06 l 0.06,0.06 v 0.06 l 0.06,0.06 v 0.06 l 0.12,0.06 v 0.06 l 0.06,0.06 v 0.06 h 0.06 v 0.54 l -0.06,0.06 v 0.12 l -0.06,0.06 v 0.12 l -0.12,0.06 -0.06,0.06 -0.12,0.12 h -0.06 v 0.06 l -0.06,0.06 h -0.06 l -0.06,0.06 h -0.06 l -0.06,0.06 h -0.06 v 0.06 h -0.12 l -0.06,0.06 h -0.6 l -0.06,-0.06 h -0.12 l -0.06,-0.06 h -0.12 l -0.18,-0.18 h -0.06 l -0.06,-0.06 v -0.06 h -0.18 v -0.06 l -0.06,-0.06 v -0.06 l -0.06,-0.06 v -0.06 l -0.06,-0.06 v -0.06 l -0.06,-0.06 v -0.54 l 0.06,-0.06 v -0.06 l 0.06,-0.06 v -0.12 l 0.12,-0.12 0.12,-0.06 v -0.06 l 0.06,-0.06 h 0.06 v -0.06 l 0.06,-0.06 h 0.06 l 0.06,-0.06 h 0.06 l 0.06,-0.06 h 0.06 v -0.06 h 0.12 l 0.06,-0.06 h 0.3" /><path
   inkscape:connector-curvature="0"
   id="path3150"
   style="fill:#000000;fill-opacity:1;fill-rule:evenodd;stroke:#000000;stroke-width:0.06;stroke-linecap:round;stroke-linejoin:round;stroke-miterlimit:10;stroke-dasharray:none;stroke-opacity:1"
   d="m 117.987,654.73778 v -0.24 l -0.06,-0.06 v -0.18 l -0.06,-0.06 v -0.06 l -0.06,-0.12 -0.06,-0.06 v -0.06 l -0.42,-0.42 -0.12,-0.06 h -0.12 l -0.06,-0.06 h -0.06 l -0.12,-0.06 h -0.06 l -0.06,-0.06 h -0.06 l -0.12,-0.06 h -0.66 l -0.06,0.06 h -0.18 l -0.06,0.06 h -0.06 l -0.12,0.06 -0.06,0.06 h -0.12 l -0.18,0.18 -0.12,0.06 -0.18,0.18 v 0.06 l -0.12,0.12 v 0.06 l -0.06,0.12 v 0.06 l -0.06,0.06 v 0.06 l -0.06,0.12 v 0.54 l 0.06,0.06 v 0.18 l 0.06,0.06 v 0.06 l 0.06,0.12 0.3,0.3 0.12,0.06 0.18,0.18 h 0.06 l 0.12,0.12 h 0.06 l 0.12,0.06 h 0.06 c 0.233,0.205 0.604,0.092 0.9,0.12 l 0.06,-0.06 h 0.18 l 0.06,-0.06 h 0.06 l 0.12,-0.06 0.06,-0.06 h 0.06 l 0.06,-0.06 0.12,-0.06 0.36,-0.36 v -0.06 h 0.06 l 0.06,-0.06 v -0.06 l 0.06,-0.12 v -0.06 l 0.06,-0.06 v -0.06 l 0.06,-0.12 z" /><path
   inkscape:connector-curvature="0"
   id="path3154"
   style="fill:#000000;fill-opacity:1;fill-rule:evenodd;stroke:none"
   d="m 121.70656,674.29778 h -0.9 v 5.34 l -0.18,-0.18 c -0.609,-0.48 -0.796,-0.428 -1.44,-0.78 l -0.24,-0.06 v 0.78 l 0.36,0.18 c 1.045,0.664 0.832,0.355 1.74,1.32 l 0.12,0.24 h 0.54 v -6.84" /><path
   inkscape:connector-curvature="0"
   id="path3182"
   style="fill:#000000;fill-opacity:1;fill-rule:evenodd;stroke:none"
   d="m 96.326556,691.75778 h -0.9 v 5.34 l -0.18,-0.18 c -0.484,-0.27 -0.928,-0.721 -1.5,-0.78 l -0.24,-0.06 v 0.78 l 0.42,0.18 c 0.64,0.268 1.205,0.763 1.68,1.26 l 0.12,0.24 h 0.6 v -6.78" /><path
   inkscape:connector-curvature="0"
   id="path3190"
   style="fill:#000000;fill-opacity:1;fill-rule:evenodd;stroke:none"
   d="m 58.40656,710.83779 0.9,-0.18 -0.06,-0.42 -0.18,-0.3 -0.18,-0.36 c -0.918,-0.697 -1.121,-0.749 -2.34,-0.6 l -0.54,0.06 -0.42,0.18 c -0.504,0.244 -1.039,1.038 -0.96,1.62 l -0.06,0.24 v 0.72 l 0.06,0.36 c 0.149,0.974 0.396,1.023 1.08,1.5 l 0.3,0.18 0.3,0.12 0.36,0.06 h 0.3 l 0.84,-0.12 0.3,-0.12 0.3,-0.18 0.24,-0.24 0.3,-0.24 0.24,-0.72 -0.96,-0.12 -0.06,0.24 -0.12,0.18 -0.24,0.24 -0.24,0.12 -0.36,0.12 h -0.54 c -0.601,-0.219 -0.895,-0.307 -1.08,-1.02 l -0.12,-0.3 v -0.84 l 0.24,-0.72 0.18,-0.24 0.18,-0.12 0.6,-0.24 h 0.36 c 0.402,-0.042 0.766,0.199 1.08,0.42 l 0.12,0.18 0.12,0.24 z m 6.66,2.1 h -5.04 v 0.84 h 5.04 z m 0,-2.04 h -5.04 v 0.78 h 5.04 z m 4.44,-1.92 h -0.9 v 5.34 l -0.18,-0.18 c -0.542,-0.408 -0.845,-0.55 -1.44,-0.84 l -0.24,-0.06 v 0.84 l 0.36,0.18 c 0.858,0.35 1.287,0.796 1.86,1.5 h 0.54 v -6.78" /><path
   inkscape:connector-curvature="0"
   id="path3158"
   style="fill:none;stroke:#000000;stroke-width:0.375;stroke-linecap:round;stroke-linejoin:round;stroke-miterlimit:4;stroke-dasharray:none;stroke-opacity:1"
   d="m 97.91209,696.07778 h 6.66" /><path
   d="m 98.495077,720.79778 h 6.660003"
   style="fill:none;stroke:#000000;stroke-width:0.375;stroke-linecap:round;stroke-linejoin:round;stroke-miterlimit:4;stroke-dasharray:none;stroke-opacity:1"
   id="path3162"
   inkscape:connector-curvature="0" /><path
   inkscape:connector-curvature="0"
   id="path3166"
   style="fill:none;stroke:#000000;stroke-width:0.375;stroke-linecap:round;stroke-linejoin:round;stroke-miterlimit:4;stroke-dasharray:none;stroke-opacity:1"
   d="m 98.520141,696.07778 h 6.659999" /><path
   d="m 116.45209,681.07778 v 5.94"
   style="fill:none;stroke:#000000;stroke-width:0.375;stroke-linecap:round;stroke-linejoin:round;stroke-miterlimit:4;stroke-dasharray:none;stroke-opacity:1"
   id="path3170"
   inkscape:connector-curvature="0" /><path
   inkscape:connector-curvature="0"
   id="path3174"
   style="fill:none;stroke:#000000;stroke-width:0.375;stroke-linecap:round;stroke-linejoin:round;stroke-miterlimit:4;stroke-dasharray:none;stroke-opacity:1"
   d="m 129.77209,680.92375 v 6" /><path
   d="m 143.75209,681.07778 v 5.94"
   style="fill:none;stroke:#000000;stroke-width:0.375;stroke-linecap:round;stroke-linejoin:round;stroke-miterlimit:4;stroke-dasharray:none;stroke-opacity:1"
   id="path3178"
   inkscape:connector-curvature="0" /><path
   inkscape:connector-curvature="0"
   id="path3186"
   style="fill:none;stroke:#000000;stroke-width:0.375;stroke-linecap:round;stroke-linejoin:round;stroke-miterlimit:4;stroke-dasharray:none;stroke-opacity:1"
   d="m 98.383573,708.85778 h 6.659997" /><path
   inkscape:connector-curvature="0"
   id="path3194"
   style="fill:none;stroke:#000000;stroke-width:0.375;stroke-linecap:round;stroke-linejoin:round;stroke-miterlimit:4;stroke-dasharray:none;stroke-opacity:1"
   d="m 87.92656,681.07778 v 5.94" /><path
   d="m 72.56656,681.06077 v 5.94"
   style="fill:none;stroke:#000000;stroke-width:0.375;stroke-linecap:round;stroke-linejoin:round;stroke-miterlimit:4;stroke-dasharray:none;stroke-opacity:1"
   id="path3198"
   inkscape:connector-curvature="0" /><g
   aria-label="  "
   transform="scale(1,-1)"
   style="font-variant:normal;font-weight:normal;font-stretch:normal;font-size:10.99989986px;font-family:Calibri;-inkscape-font-specification:Calibri;writing-mode:lr-tb;fill:#000000;fill-opacity:1;fill-rule:nonzero;stroke:none;stroke-width:0.99999994"
   id="text3202" /><g
   aria-label="y"
   transform="scale(1,-1)"
   style="font-style:normal;font-weight:normal;font-size:9.41431713px;line-height:1.25;font-family:sans-serif;letter-spacing:0px;word-spacing:0px;fill:#000000;fill-opacity:1;stroke:none;stroke-width:0.23535794"
   id="text4279"><path
     d="m 95.89982,-772.33242 q -0.358553,0.91937 -0.698719,1.19978 -0.340165,0.28041 -0.910173,0.28041 h -0.675735 v -0.70792 h 0.496459 q 0.349359,0 0.542426,-0.16548 0.193067,-0.16549 0.427506,-0.78146 l 0.151695,-0.38614 -2.082366,-5.06571 h 0.896383 l 1.608892,4.02683 1.608892,-4.02683 h 0.896383 z"
     style="stroke-width:0.23535794"
     id="path1165" /></g><g
   aria-label="x"
   transform="scale(1,-1)"
   style="font-style:normal;font-weight:normal;font-size:9.41431713px;line-height:1.25;font-family:sans-serif;letter-spacing:0px;word-spacing:0px;fill:#000000;fill-opacity:1;stroke:none;stroke-width:0.23535794"
   id="text4283"><path
     d="m 206.16562,-680.20168 -1.86172,2.50528 1.95825,2.64318 h -0.99751 l -1.49857,-2.02261 -1.49856,2.02261 h -0.99752 l 1.99963,-2.69375 -1.82954,-2.45471 h 0.99751 l 1.36526,1.83414 1.36526,-1.83414 z"
     style="stroke-width:0.23535794"
     id="path1162" /></g><path
   style="fill:none;stroke:#000000;stroke-width:0.60000002;stroke-linecap:butt;stroke-linejoin:miter;stroke-miterlimit:4;stroke-dasharray:2.40000006, 2.40000006;stroke-dashoffset:0;stroke-opacity:1"
   d="M 116.30699,707.35779 V 654.57911"
   id="path5929-3"
   inkscape:connector-curvature="0" /></g></svg>